<?xml version="1.0" encoding="utf-8"?>
<!-- Generator: Adobe Illustrator 22.0.1, SVG Export Plug-In . SVG Version: 6.00 Build 0)  -->
<svg version="1.1" id="Layer_1" xmlns="http://www.w3.org/2000/svg" xmlns:xlink="http://www.w3.org/1999/xlink" x="0px" y="0px"
	 viewBox="0 0 1366 189" style="enable-background:new 0 0 1366 189;" xml:space="preserve">
<style type="text/css">
	.st0{fill:none;stroke:#000000;stroke-width:9;stroke-miterlimit:10;}
	.st1{fill:none;stroke:#000000;stroke-width:11;stroke-miterlimit:10;}
	.st2{fill:none;stroke:#000000;stroke-width:5;stroke-miterlimit:10;}
	.st3{fill-rule:evenodd;clip-rule:evenodd;fill:#00A651;}
	.st4{fill-rule:evenodd;clip-rule:evenodd;fill:#004282;}
	.st5{fill:#A91F24;}
	.st6{fill-rule:evenodd;clip-rule:evenodd;fill:#A91F24;}
	.st7{fill:#C34B4C;}
	.st8{fill-rule:evenodd;clip-rule:evenodd;fill:#C34B4C;}
</style>
<g>
	<g>
		<g>
			<g>
				<g>
					<path class="st5" d="M569.3,137l-0.6-0.8c5.3-3.9,9.3-8,12.3-12.6l0,0l0.6-0.6c6.7-10.6,9.2-22.3,7.3-34.6
						c-1.6-9.8-5.1-17.6-10.8-23.8c-0.2-0.2-0.3-0.4-0.3-0.6c0-0.1-0.1-0.2-0.1-0.2c-0.7-0.6-1.4-1.4-2-2c-1-1.1-2-2.2-3.3-3
						l-0.1-0.1l-0.1-0.1c-0.2-0.3-0.5-0.6-0.8-0.8l-0.1,0l-0.1-0.1c-0.2-0.2-0.2-0.3-0.3-0.4c0-0.1-0.1-0.1-0.1-0.2
						c-4.5-3.8-9.6-6.1-14.9-8.3l0.4-1c5.4,2.2,10.7,4.5,15.2,8.5l0,0c0.2,0.2,0.2,0.3,0.3,0.4c0,0.1,0,0.1,0.1,0.1
						c0.4,0.2,0.8,0.6,1.1,1.1c1.4,0.9,2.4,2,3.4,3.1c0.6,0.7,1.2,1.4,1.9,2l0,0c0.2,0.2,0.3,0.4,0.3,0.6c0,0.1,0.1,0.2,0.1,0.2
						c5.9,6.5,9.5,14.4,11.1,24.4c0.9,6.2,0.8,12.4-0.5,18.3c-1.3,6-3.6,11.7-7,17.1l0,0l-0.6,0.6
						C578.8,128.9,574.7,133.1,569.3,137z"/>
				</g>
			</g>
			<g>
				<g>
					<path class="st5" d="M508.8,136.7c-0.7-0.5-1.3-1-2-1.5c-2.6-2.1-5-4.5-7.1-7.1c-2.1-2.6-4-5.4-5.6-8.4c-1.6-3-2.9-6.2-3.9-9.5
						c-1-3.3-1.6-6.8-1.9-10.3c-0.3-3.7-0.2-7.5,0.3-11.1c0.5-3.7,1.4-7.3,2.7-10.7c1.2-3.4,2.9-6.6,4.8-9.7c1.9-3,4.2-5.8,6.7-8.4
						c2.5-2.5,5.3-4.8,8.2-6.8c3-2,6.2-3.7,9.6-5l0.4,1c-3.3,1.3-6.4,2.9-9.4,4.9c-2.9,1.9-5.6,4.2-8.1,6.7
						c-2.5,2.5-4.6,5.3-6.5,8.2c-1.9,3-3.5,6.2-4.7,9.5c-1.3,3.4-2.1,6.9-2.6,10.5c-0.5,3.6-0.6,7.3-0.3,10.9
						c0.3,3.4,0.9,6.8,1.9,10.1c0.9,3.2,2.2,6.3,3.8,9.3c1.5,2.9,3.4,5.7,5.5,8.2c2.1,2.5,4.4,4.9,7,7c0.6,0.5,1.3,1,1.9,1.5
						L508.8,136.7z"/>
				</g>
			</g>
			<g>
				<g>
					<path class="st5" d="M530.2,46l0.9,3.9l-1.2,0.3l-0.9-3.7c-0.3-1.3-1.1-1.8-2.3-1.5c-1.3,0.3-1.9,1.3-1.6,2.7L526,51l-1.2,0.3
						l-2.2-9.4l1.2-0.3l0.8,3.6c0.4-0.8,1.1-1.3,2.1-1.6C528.4,43.3,529.8,44,530.2,46z"/>
				</g>
				<g>
					<path class="st5" d="M538.3,45.1l0.3,4.1l-1.2,0.1l-0.1-0.9c-0.4,0.7-1.1,1.1-2.2,1.1c-1.6,0.1-2.6-0.7-2.7-1.8
						c-0.1-1.1,0.6-2.1,2.6-2.2l2-0.1l0-0.2c-0.1-1.1-0.7-1.6-2-1.5c-0.8,0.1-1.6,0.4-2.1,0.9l-0.6-0.9c0.7-0.6,1.7-1,2.8-1.1
						C537,42.3,538.1,43.2,538.3,45.1z M537.2,47.2l-0.1-1l-1.9,0.1c-1.2,0.1-1.5,0.6-1.5,1.2c0,0.7,0.6,1.1,1.6,1
						C536.2,48.5,536.9,48,537.2,47.2z"/>
				</g>
				<g>
					<path class="st5" d="M541,39.7l1.2,0l-0.4,9.6l-1.2,0L541,39.7z"/>
				</g>
				<g>
					<path class="st5" d="M550,46.1l-0.6,4.1l-1.2-0.2l0.1-0.9c-0.5,0.6-1.3,0.8-2.4,0.7c-1.5-0.2-2.4-1.2-2.2-2.4
						c0.2-1.1,1-1.9,3-1.6l2,0.3l0-0.2c0.2-1-0.4-1.7-1.6-1.9c-0.8-0.1-1.7,0-2.3,0.4l-0.4-1c0.8-0.5,1.9-0.6,2.9-0.5
						C549.4,43.2,550.3,44.2,550,46.1z M548.5,47.9l0.1-1l-1.9-0.3c-1.2-0.2-1.6,0.2-1.7,0.8c-0.1,0.7,0.4,1.2,1.3,1.3
						C547.3,49,548.1,48.7,548.5,47.9z"/>
				</g>
				<g>
					<path class="st5" d="M553.9,41.4l1.2,0.3l-2.4,9.3l-1.2-0.3L553.9,41.4z"/>
				</g>
			</g>
			<g>
				<g>
					<path class="st5" d="M512.5,137.7c1.1-1.8,3.1-2.2,4.9-1.1c1.1,0.6,1.7,1.6,1.7,2.7l-1.1,0c0-0.8-0.5-1.4-1.1-1.8
						c-1.2-0.7-2.5-0.4-3.3,0.9c-0.8,1.3-0.4,2.6,0.8,3.3c0.6,0.4,1.4,0.5,2.1,0.1l0.5,1c-1,0.5-2.1,0.5-3.2-0.2
						C512,141.5,511.5,139.4,512.5,137.7z"/>
				</g>
				<g>
					<path class="st5" d="M525.4,144.4l-5.2-2c-0.3,1.2,0.3,2.3,1.6,2.8c0.8,0.3,1.5,0.3,2.2-0.1l0.4,1c-0.8,0.5-1.9,0.5-2.9,0.1
						c-2.1-0.8-2.9-2.7-2.2-4.6c0.7-1.9,2.6-2.7,4.5-2c1.9,0.7,2.7,2.6,1.9,4.5C525.5,144.1,525.4,144.3,525.4,144.4z M520.5,141.5
						l4.1,1.6c0.3-1.1-0.2-2.2-1.3-2.6C522.1,140,521,140.5,520.5,141.5z"/>
				</g>
				<g>
					<path class="st5" d="M531.9,141.8l-0.3,1.2c-0.1,0-0.2-0.1-0.3-0.1c-1.3-0.3-2.3,0.3-2.6,1.8l-0.7,3.3l-1.2-0.3l1.5-6.7
						l1.2,0.3l-0.3,1.1C529.8,141.8,530.7,141.6,531.9,141.8z"/>
				</g>
				<g>
					<path class="st5" d="M536.7,148.9c-0.4,0.3-1,0.4-1.5,0.3c-1.4-0.1-2.1-1-2-2.4l0.4-3.8l-1.2-0.1l0.1-1l1.2,0.1l0.1-1.5
						l1.2,0.1l-0.1,1.5l2,0.2l-0.1,1l-2-0.2l-0.4,3.7c-0.1,0.7,0.3,1.2,1,1.3c0.4,0,0.7,0,1-0.2L536.7,148.9z"/>
				</g>
				<g>
					<path class="st5" d="M538.4,140.4c0-0.5,0.3-0.8,0.8-0.8c0.5,0,0.9,0.3,0.9,0.8c0,0.5-0.3,0.8-0.8,0.8
						C538.8,141.2,538.4,140.8,538.4,140.4z M538.7,142.5l1.2,0l0.1,6.9l-1.2,0L538.7,142.5z"/>
				</g>
				<g>
					<path class="st5" d="M544.2,139.4c0.5-0.1,1.1,0,1.4,0.2l-0.2,1c-0.3-0.2-0.6-0.2-1-0.2c-0.7,0.1-1,0.6-0.9,1.4l0.1,0.6l2-0.3
						l0.1,1l-2,0.3l0.8,5.8l-1.2,0.2l-0.8-5.8l-1.2,0.2l-0.1-1l1.2-0.2l-0.1-0.6C542.1,140.6,542.8,139.6,544.2,139.4z M547.2,139.6
						c-0.1-0.4,0.2-0.9,0.7-0.9c0.5-0.1,0.9,0.2,0.9,0.7c0.1,0.5-0.2,0.9-0.7,0.9C547.7,140.4,547.3,140.1,547.2,139.6z
						 M547.8,141.7l1.2-0.2l1,6.8l-1.2,0.2L547.8,141.7z"/>
				</g>
				<g>
					<path class="st5" d="M558.1,142.6l-5.3,1.8c0.5,1.1,1.7,1.5,3,1.1c0.8-0.3,1.3-0.7,1.6-1.4l0.9,0.5c-0.4,0.9-1.1,1.6-2.2,1.9
						c-2.1,0.7-4-0.2-4.7-2.1c-0.7-1.9,0.2-3.8,2.1-4.4s3.7,0.2,4.4,2.2C558.1,142.3,558.1,142.5,558.1,142.6z M552.6,143.6l4.2-1.4
						c-0.5-1-1.6-1.5-2.7-1.1C552.9,141.4,552.3,142.4,552.6,143.6z"/>
				</g>
				<g>
					<path class="st5" d="M562.5,132.7l4.8,8.4l-1,0.6l-0.5-0.9c-0.1,1-0.7,1.7-1.5,2.2c-1.7,1-3.7,0.5-4.8-1.3
						c-1-1.8-0.5-3.8,1.3-4.8c0.8-0.5,1.8-0.6,2.6-0.2l-1.9-3.3L562.5,132.7z M564.5,138.7c-0.7-1.3-2.1-1.6-3.2-0.9
						c-1.1,0.7-1.5,2-0.8,3.3c0.7,1.3,2.1,1.6,3.2,1C564.9,141.3,565.2,140,564.5,138.7z"/>
				</g>
			</g>
			<g>
				<g>
					<path class="st5" d="M550.3,112.6c-0.2-0.3-0.5-0.4-0.8-0.3c-3.4,1.3-7.1,1.3-10.5,0c-7.7-2.9-11.6-11.5-8.7-19.1
						c2.8-7.4,10.9-11.4,18.4-9c0.3,0.1,0.6,0,0.8-0.3c0.2-0.3,0.1-0.6-0.1-0.9c-2.2-2.1-4.7-3.7-7.5-4.7
						c-11.2-4.2-23.8,1.5-28,12.8c-4.2,11.2,1.5,23.8,12.8,28c4.1,1.5,8.6,1.8,12.8,0.7c4.2-1,7.9-3.2,10.8-6.4
						C550.5,113.2,550.5,112.9,550.3,112.6z M527.1,117.8c-10.5-3.9-15.9-15.7-12-26.2c3.9-10.5,15.7-15.9,26.2-12
						c1.8,0.7,3.4,1.5,4.9,2.6c-7.4-1-14.6,3.3-17.3,10.5c-3.1,8.4,1.2,17.8,9.6,20.9c2.8,1,5.8,1.3,8.7,0.7
						C541.7,119,534.1,120.4,527.1,117.8z"/>
				</g>
				<g>
					<path class="st5" d="M566.1,75.1c-0.1-0.5-0.5-0.9-1.1-1l-2.2-0.4l-0.9-2c-0.2-0.5-0.7-0.8-1.2-0.8c-0.5,0-1,0.3-1.2,0.7
						l-1.1,2l-2.2,0.2c-0.5,0.1-0.9,0.4-1.1,0.9c-0.2,0.5-0.1,1,0.3,1.4l1.5,1.6l0,0l-0.4,2.2c-0.1,0.5,0.1,1,0.5,1.3
						c0.1,0,0.1,0.1,0.2,0.1c0.4,0.2,0.8,0.2,1.2,0l2-1l1.9,1.1c0.2,0.1,0.4,0.2,0.7,0.2c0.3,0,0.5-0.1,0.8-0.2
						c0.4-0.3,0.7-0.8,0.6-1.3l-0.3-2.2l1.6-1.5C566.1,76.1,566.3,75.6,566.1,75.1z M557.8,80.2l0.4-2.2c0.1-0.4,0-0.9-0.3-1.2
						l-1.5-1.6c0,0,0,0,0,0l2.2-0.2c0.4,0,0.8-0.3,1-0.7l1-1.9l0.1,0l0.9,2c0.2,0.4,0.6,0.7,1,0.8l2.2,0.4l0,0.1l-1.6,1.5
						c-0.3,0.3-0.5,0.7-0.4,1.2l0.3,2.2l-0.1,0.1l-1.9-1.1c-0.4-0.2-0.8-0.2-1.2,0L557.8,80.2l0.2,0.4l0,0L557.8,80.2z"/>
				</g>
				<g>
					<path class="st5" d="M553.1,97.8h-2.3v-2.3c0-0.4-0.3-0.7-0.7-0.7c-0.4,0-0.7,0.3-0.7,0.7v2.3H547c-0.4,0-0.7,0.3-0.7,0.7
						s0.3,0.7,0.7,0.7h2.3v2.3c0,0.4,0.3,0.7,0.7,0.7c0.4,0,0.7-0.3,0.7-0.7v-2.3h2.3c0.4,0,0.7-0.3,0.7-0.7S553.5,97.8,553.1,97.8z
						"/>
				</g>
				<g>
					<path class="st5" d="M561,105.8h-2.3v-2.3c0-0.4-0.3-0.7-0.7-0.7s-0.7,0.3-0.7,0.7v2.3H555c-0.4,0-0.7,0.3-0.7,0.7
						c0,0.4,0.3,0.7,0.7,0.7h2.3v2.3c0,0.4,0.3,0.7,0.7,0.7s0.7-0.3,0.7-0.7v-2.3h2.3c0.4,0,0.7-0.3,0.7-0.7
						C561.7,106.1,561.4,105.8,561,105.8z"/>
				</g>
				<g>
					<circle class="st5" cx="561" cy="96.1" r="1.8"/>
				</g>
			</g>
		</g>
		<g>
			<g>
				<path class="st5" d="M646.7,74.6c-0.3-0.3-0.4-0.7-0.4-1.1s0.2-0.8,0.5-1.1c0.3-0.3,0.7-0.5,1.1-0.5c0.4,0,0.8,0.2,1.1,0.5
					c0.3,0.3,0.5,0.7,0.5,1.1s-0.1,0.8-0.4,1.1c-0.3,0.3-0.7,0.4-1.1,0.4C647.4,75.1,647,74.9,646.7,74.6z M646.7,76.6h2.2v10.8
					h-2.2V76.6z"/>
				<path class="st5" d="M651.1,78.6v-2h1.8v-3l2.2-1.4v4.4h2.8v2h-2.8v5.3c0,1.2,0.5,1.8,1.4,1.8c0.4,0,0.7-0.1,1-0.3l0.6,1.9
					c-0.5,0.3-1.1,0.4-1.7,0.4c-1.1,0-1.9-0.3-2.6-1c-0.6-0.7-1-1.6-1-2.9v-5.2H651.1z"/>
				<path class="st5" d="M660,77l1.6-4.8h3.1l-3,4.8H660z"/>
				<path class="st5" d="M670.8,76.4c0.7,0,1.3,0.2,1.8,0.5c0.6,0.3,1,0.7,1.4,1.3l-1.4,1.2c-0.5-0.7-1.1-1-1.9-1
					c-0.3,0-0.6,0.1-0.8,0.3s-0.3,0.5-0.3,0.8s0.2,0.6,0.5,0.8s0.8,0.5,1.5,0.7c0.4,0.1,0.7,0.3,0.9,0.4c0.2,0.1,0.5,0.2,0.8,0.4
					c0.3,0.2,0.5,0.4,0.7,0.6c0.2,0.2,0.3,0.4,0.4,0.8s0.2,0.6,0.2,1c0,1-0.3,1.8-1,2.4c-0.7,0.7-1.6,1-2.7,1c-1,0-1.9-0.3-2.6-0.9
					c-0.7-0.6-1.2-1.3-1.6-2l1.9-1c0.6,1.3,1.4,2,2.4,2c1,0,1.5-0.5,1.5-1.4c0-0.2,0-0.3-0.1-0.5s-0.2-0.3-0.4-0.4
					c-0.2-0.1-0.4-0.2-0.5-0.3c-0.2-0.1-0.4-0.2-0.7-0.3c-0.3-0.1-0.6-0.2-0.7-0.3c-1.5-0.6-2.3-1.6-2.3-3c0-0.9,0.3-1.6,0.9-2.2
					C669,76.7,669.8,76.4,670.8,76.4z"/>
				<path class="st5" d="M692.8,82c0,1.8-0.4,3.1-1.2,4.1c-0.8,1-2,1.5-3.6,1.5c-0.7,0-1.3-0.1-1.8-0.4c-0.6-0.3-0.9-0.6-1.1-1v1.2
					h-2.2V72.2h2.2v5.6c0.3-0.4,0.7-0.7,1.2-1c0.6-0.3,1.1-0.4,1.7-0.4c1.6,0,2.8,0.5,3.6,1.5C692.4,78.9,692.8,80.3,692.8,82z
					 M689.7,84.6c0.5-0.7,0.8-1.5,0.8-2.6s-0.3-2-0.8-2.6s-1.2-1-2-1c-0.8,0-1.5,0.3-2,1s-0.8,1.5-0.8,2.6s0.3,2,0.8,2.6
					c0.5,0.7,1.2,1,2,1C688.5,85.6,689.2,85.3,689.7,84.6z"/>
				<path class="st5" d="M705,81.6v1h-7.7c0,0.8,0.2,1.6,0.7,2.1c0.5,0.6,1.1,0.9,2,0.9c0.6,0,1.2-0.2,1.7-0.5
					c0.5-0.3,0.9-0.8,1.2-1.3l1.9,0.8c-0.5,1.1-1.2,1.8-1.9,2.3c-0.7,0.5-1.7,0.7-2.9,0.7c-0.9,0-1.6-0.2-2.3-0.5s-1.2-0.8-1.6-1.3
					c-0.4-0.6-0.7-1.1-0.9-1.8c-0.2-0.6-0.3-1.3-0.3-2c0-0.7,0.1-1.3,0.3-2c0.2-0.6,0.5-1.2,0.9-1.8c0.4-0.6,0.9-1,1.6-1.3
					c0.7-0.3,1.4-0.5,2.3-0.5c0.8,0,1.6,0.2,2.2,0.5c0.7,0.3,1.2,0.7,1.6,1.2s0.7,1.1,0.9,1.7C704.9,80.4,705,81,705,81.6z
					 M700,78.4c-0.7,0-1.3,0.2-1.8,0.7s-0.8,1-0.9,1.7h5.3c-0.1-0.7-0.4-1.2-0.8-1.7C701.4,78.6,700.8,78.4,700,78.4z"/>
				<path class="st5" d="M717,81.6v1h-7.7c0,0.8,0.2,1.6,0.7,2.1c0.5,0.6,1.1,0.9,2,0.9c0.6,0,1.2-0.2,1.7-0.5
					c0.5-0.3,0.9-0.8,1.2-1.3l1.9,0.8c-0.5,1.1-1.2,1.8-1.9,2.3c-0.7,0.5-1.7,0.7-2.9,0.7c-0.9,0-1.6-0.2-2.3-0.5s-1.2-0.8-1.6-1.3
					c-0.4-0.6-0.7-1.1-0.9-1.8c-0.2-0.6-0.3-1.3-0.3-2c0-0.7,0.1-1.3,0.3-2c0.2-0.6,0.5-1.2,0.9-1.8c0.4-0.6,0.9-1,1.6-1.3
					c0.7-0.3,1.4-0.5,2.3-0.5c0.8,0,1.6,0.2,2.2,0.5c0.7,0.3,1.2,0.7,1.6,1.2s0.7,1.1,0.9,1.7C716.9,80.4,717,81,717,81.6z
					 M712,78.4c-0.7,0-1.3,0.2-1.8,0.7s-0.8,1-0.9,1.7h5.3c-0.1-0.7-0.4-1.2-0.8-1.7C713.4,78.6,712.8,78.4,712,78.4z"/>
				<path class="st5" d="M719.8,76.6h2.2v1.8c0.4-0.6,0.9-1.1,1.5-1.5c0.6-0.4,1.3-0.5,2-0.5c1,0,1.7,0.3,2.3,0.8
					c0.6,0.6,0.9,1.4,0.9,2.4v7.8h-2.2v-7c0-1.3-0.6-2-1.7-2c-0.7,0-1.4,0.4-1.9,1.3c-0.6,0.8-0.8,2-0.8,3.4v4.4h-2.2V76.6z"/>
				<path class="st5" d="M747.8,82c0,1.7-0.4,3.1-1.2,4.1c-0.8,1-2,1.5-3.6,1.5c-0.6,0-1.2-0.1-1.7-0.4s-0.9-0.6-1.2-1v5.6h-2.2
					V76.6h2.2v1.2c0.2-0.4,0.6-0.7,1.1-1c0.6-0.3,1.2-0.4,1.8-0.4c1.6,0,2.8,0.5,3.6,1.5C747.4,78.9,747.8,80.2,747.8,82z
					 M744.6,84.6c0.5-0.7,0.8-1.5,0.8-2.6s-0.3-2-0.8-2.6s-1.2-1-2-1c-0.8,0-1.5,0.3-2,1s-0.8,1.5-0.8,2.6s0.3,2,0.8,2.6
					c0.5,0.7,1.2,1,2,1C743.4,85.6,744.1,85.3,744.6,84.6z"/>
				<path class="st5" d="M759.9,81.6v1h-7.7c0,0.8,0.2,1.6,0.7,2.1c0.5,0.6,1.1,0.9,2,0.9c0.6,0,1.2-0.2,1.7-0.5
					c0.5-0.3,0.9-0.8,1.2-1.3l1.9,0.8c-0.5,1.1-1.2,1.8-1.9,2.3c-0.7,0.5-1.7,0.7-2.9,0.7c-0.9,0-1.6-0.2-2.3-0.5s-1.2-0.8-1.6-1.3
					c-0.4-0.6-0.7-1.1-0.9-1.8c-0.2-0.6-0.3-1.3-0.3-2c0-0.7,0.1-1.3,0.3-2c0.2-0.6,0.5-1.2,0.9-1.8c0.4-0.6,0.9-1,1.6-1.3
					c0.7-0.3,1.4-0.5,2.3-0.5c0.8,0,1.6,0.2,2.2,0.5c0.7,0.3,1.2,0.7,1.6,1.2s0.7,1.1,0.9,1.7C759.8,80.4,759.9,81,759.9,81.6z
					 M754.9,78.4c-0.7,0-1.3,0.2-1.8,0.7s-0.8,1-0.9,1.7h5.3c-0.1-0.7-0.4-1.2-0.8-1.7C756.3,78.6,755.7,78.4,754.9,78.4z"/>
				<path class="st5" d="M764.9,87.4h-2.2V76.6h2.2v1.8c0.4-0.6,0.8-1.1,1.4-1.5c0.6-0.3,1.2-0.5,1.8-0.5c0.5,0,0.9,0.1,1.4,0.3
					l-0.4,2c-0.3-0.2-0.8-0.3-1.3-0.3c-0.8,0-1.5,0.4-2.1,1.3s-0.9,2.1-0.9,3.7V87.4z"/>
				<path class="st5" d="M771.6,76.6h2.2v1.8c0.9-1.3,2-2,3.3-2c0.7,0,1.4,0.2,1.9,0.6c0.6,0.4,0.9,0.9,1.1,1.6
					c0.4-0.7,0.9-1.3,1.4-1.7c0.6-0.4,1.2-0.6,1.9-0.6c1,0,1.7,0.3,2.3,0.9c0.5,0.6,0.8,1.4,0.8,2.4v7.8h-2.2v-7.3
					c0-0.6-0.1-1-0.4-1.3s-0.7-0.5-1.2-0.5c-0.7,0-1.3,0.4-1.8,1.3s-0.7,2-0.7,3.4v4.3H778v-7.3c0-0.6-0.1-1-0.4-1.3
					c-0.3-0.3-0.7-0.5-1.2-0.5c-0.7,0-1.3,0.4-1.8,1.3c-0.5,0.9-0.7,2.1-0.7,3.6v4.1h-2.2V76.6z"/>
				<path class="st5" d="M790,74.6c-0.3-0.3-0.4-0.7-0.4-1.1s0.2-0.8,0.5-1.1c0.3-0.3,0.7-0.5,1.1-0.5c0.4,0,0.8,0.2,1.1,0.5
					c0.3,0.3,0.5,0.7,0.5,1.1s-0.1,0.8-0.4,1.1c-0.3,0.3-0.7,0.4-1.1,0.4C790.7,75.1,790.3,74.9,790,74.6z M790,76.6h2.2v10.8H790
					V76.6z"/>
				<path class="st5" d="M794.4,78.6v-2h1.8v-3l2.2-1.4v4.4h2.8v2h-2.8v5.3c0,1.2,0.5,1.8,1.4,1.8c0.4,0,0.7-0.1,1-0.3l0.6,1.9
					c-0.5,0.3-1.1,0.4-1.7,0.4c-1.1,0-1.9-0.3-2.6-1c-0.6-0.7-1-1.6-1-2.9v-5.2H794.4z"/>
				<path class="st5" d="M802.7,78.6v-2h1.8v-3l2.2-1.4v4.4h2.8v2h-2.8v5.3c0,1.2,0.5,1.8,1.4,1.8c0.4,0,0.7-0.1,1-0.3l0.6,1.9
					c-0.5,0.3-1.1,0.4-1.7,0.4c-1.1,0-1.9-0.3-2.6-1c-0.6-0.7-1-1.6-1-2.9v-5.2H802.7z"/>
				<path class="st5" d="M821.6,81.6v1h-7.7c0,0.8,0.2,1.6,0.7,2.1c0.5,0.6,1.1,0.9,2,0.9c0.6,0,1.2-0.2,1.7-0.5
					c0.5-0.3,0.9-0.8,1.2-1.3l1.9,0.8c-0.5,1.1-1.2,1.8-1.9,2.3c-0.7,0.5-1.7,0.7-2.9,0.7c-0.9,0-1.6-0.2-2.3-0.5s-1.2-0.8-1.6-1.3
					c-0.4-0.6-0.7-1.1-0.9-1.8c-0.2-0.6-0.3-1.3-0.3-2c0-0.7,0.1-1.3,0.3-2c0.2-0.6,0.5-1.2,0.9-1.8c0.4-0.6,0.9-1,1.6-1.3
					c0.7-0.3,1.4-0.5,2.3-0.5c0.8,0,1.6,0.2,2.2,0.5c0.7,0.3,1.2,0.7,1.6,1.2s0.7,1.1,0.9,1.7C821.5,80.4,821.6,81,821.6,81.6z
					 M816.6,78.4c-0.7,0-1.3,0.2-1.8,0.7s-0.8,1-0.9,1.7h5.3c-0.1-0.7-0.4-1.2-0.8-1.7C818,78.6,817.4,78.4,816.6,78.4z"/>
				<path class="st5" d="M823.6,82c0-1.7,0.4-3.1,1.2-4.1c0.8-1,2-1.5,3.6-1.5c0.5,0,1.1,0.1,1.7,0.4c0.6,0.3,1,0.6,1.2,1v-5.6h2.2
					v15.2h-2.2v-1.2c-0.2,0.4-0.6,0.7-1.1,1c-0.6,0.3-1.2,0.4-1.8,0.4c-1.6,0-2.8-0.5-3.6-1.5C824,85.1,823.6,83.8,823.6,82z
					 M826.7,79.4c-0.5,0.7-0.8,1.5-0.8,2.6s0.3,2,0.8,2.6c0.5,0.7,1.2,1,2,1s1.5-0.3,2-1c0.5-0.7,0.8-1.5,0.8-2.6s-0.3-2-0.8-2.6
					s-1.2-1-2-1S827.2,78.7,826.7,79.4z"/>
				<path class="st5" d="M846,76.4c0.7,0,1.3,0.2,1.8,0.5c0.6,0.3,1,0.7,1.4,1.3l-1.4,1.2c-0.5-0.7-1.1-1-1.9-1
					c-0.3,0-0.6,0.1-0.8,0.3s-0.3,0.5-0.3,0.8s0.2,0.6,0.5,0.8s0.8,0.5,1.5,0.7c0.4,0.1,0.7,0.3,0.9,0.4c0.2,0.1,0.5,0.2,0.8,0.4
					c0.3,0.2,0.5,0.4,0.7,0.6c0.2,0.2,0.3,0.4,0.4,0.8s0.2,0.6,0.2,1c0,1-0.3,1.8-1,2.4c-0.7,0.7-1.6,1-2.7,1c-1,0-1.9-0.3-2.6-0.9
					c-0.7-0.6-1.2-1.3-1.6-2l1.9-1c0.6,1.3,1.4,2,2.4,2c1,0,1.5-0.5,1.5-1.4c0-0.2,0-0.3-0.1-0.5s-0.2-0.3-0.4-0.4
					c-0.2-0.1-0.4-0.2-0.5-0.3c-0.2-0.1-0.4-0.2-0.7-0.3c-0.3-0.1-0.6-0.2-0.7-0.3c-1.5-0.6-2.3-1.6-2.3-3c0-0.9,0.3-1.6,0.9-2.2
					C844.3,76.7,845.1,76.4,846,76.4z"/>
				<path class="st5" d="M853.2,86c-1-1.1-1.4-2.4-1.4-4s0.5-2.9,1.4-4c1-1.1,2.3-1.6,3.9-1.6c1.6,0,2.9,0.5,3.9,1.6s1.5,2.4,1.5,4
					s-0.5,2.9-1.5,4c-1,1.1-2.3,1.6-3.9,1.6C855.4,87.6,854.1,87,853.2,86z M854.9,79.4c-0.5,0.7-0.8,1.6-0.8,2.5s0.3,1.8,0.8,2.5
					c0.5,0.7,1.2,1.1,2.2,1.1c0.9,0,1.7-0.4,2.2-1.1c0.5-0.7,0.8-1.6,0.8-2.5s-0.3-1.8-0.8-2.5c-0.5-0.7-1.2-1.1-2.2-1.1
					C856.1,78.4,855.4,78.7,854.9,79.4z"/>
				<path class="st5" d="M605.2,102.4h2.4l2.6,7.3l2.5-7.3h2.4l-5.5,15.2h-2.2l1.8-4.9L605.2,102.4z"/>
				<path class="st5" d="M617.6,111.7c-1-1.1-1.4-2.4-1.4-4s0.5-2.9,1.4-4c1-1.1,2.3-1.6,3.9-1.6c1.6,0,2.9,0.5,3.9,1.6
					s1.5,2.4,1.5,4s-0.5,2.9-1.5,4c-1,1.1-2.3,1.6-3.9,1.6C619.9,113.4,618.6,112.8,617.6,111.7z M619.3,105.2
					c-0.5,0.7-0.8,1.6-0.8,2.5s0.3,1.8,0.8,2.5c0.5,0.7,1.2,1.1,2.2,1.1c0.9,0,1.7-0.4,2.2-1.1c0.5-0.7,0.8-1.6,0.8-2.5
					s-0.3-1.8-0.8-2.5c-0.5-0.7-1.2-1.1-2.2-1.1C620.5,104.2,619.8,104.5,619.3,105.2z"/>
				<path class="st5" d="M638.5,113.2h-2.2v-1.8c-0.4,0.6-0.9,1.1-1.5,1.5c-0.6,0.4-1.3,0.5-2,0.5c-1,0-1.7-0.3-2.3-0.8
					c-0.6-0.6-0.9-1.4-0.9-2.4v-7.8h2.2v7c0,1.3,0.6,2,1.7,2c0.7,0,1.4-0.4,1.9-1.3c0.6-0.8,0.8-2,0.8-3.4v-4.4h2.2V113.2z"/>
				<path class="st5" d="M654.7,109.5l2,0.9c-0.9,2-2.4,3-4.7,3c-1.6,0-2.9-0.5-3.8-1.6c-0.9-1.1-1.3-2.4-1.3-4s0.4-2.9,1.3-4
					c0.9-1.1,2.1-1.6,3.8-1.6c2.2,0,3.8,1,4.7,3l-2,0.9c-0.6-1.2-1.5-1.9-2.7-1.9c-0.9,0-1.6,0.3-2.1,1c-0.5,0.7-0.7,1.5-0.7,2.6
					c0,1.1,0.2,2,0.7,2.6c0.5,0.7,1.1,1,2.1,1C653.2,111.4,654.1,110.8,654.7,109.5z"/>
				<path class="st5" d="M658.4,110.1c0-1.1,0.4-2,1.3-2.6c0.9-0.6,2-0.9,3.4-0.9h1.9v-0.5c0-0.6-0.2-1.1-0.6-1.4
					c-0.4-0.3-0.9-0.5-1.5-0.5c-1,0-1.7,0.5-2,1.4l-2-0.4c0.2-0.9,0.7-1.6,1.4-2.2c0.7-0.5,1.6-0.8,2.6-0.8c2.9,0,4.3,1.4,4.3,4.3
					v6.7h-1.9l-0.2-1.4c-0.8,1.1-1.9,1.6-3.4,1.6c-1,0-1.8-0.3-2.4-0.8C658.8,112,658.4,111.1,658.4,110.1z M660.8,110.1
					c0,0.4,0.1,0.7,0.3,0.9c0.2,0.2,0.6,0.4,1,0.4c0.8,0,1.4-0.2,2-0.7c0.6-0.5,0.8-1.2,0.8-2v-0.2h-2c-0.7,0-1.2,0.2-1.6,0.5
					C661,109.1,660.8,109.6,660.8,110.1z"/>
				<path class="st5" d="M670.4,102.4h2.2v1.8c0.4-0.6,0.9-1.1,1.5-1.5c0.6-0.4,1.3-0.5,2-0.5c1,0,1.7,0.3,2.3,0.8
					c0.6,0.6,0.9,1.4,0.9,2.4v7.8h-2.2v-7c0-1.3-0.6-2-1.7-2c-0.7,0-1.4,0.4-1.9,1.3c-0.6,0.8-0.8,2-0.8,3.4v4.4h-2.2V102.4z"/>
				<path class="st5" d="M697.1,113.2h-2.2v-1.8c-0.4,0.6-0.9,1.1-1.5,1.5c-0.6,0.4-1.3,0.5-2,0.5c-1,0-1.7-0.3-2.3-0.8
					c-0.6-0.6-0.9-1.4-0.9-2.4v-7.8h2.2v7c0,1.3,0.6,2,1.7,2c0.7,0,1.4-0.4,1.9-1.3c0.6-0.8,0.8-2,0.8-3.4v-4.4h2.2V113.2z"/>
				<path class="st5" d="M704,102.2c0.7,0,1.3,0.2,1.8,0.5c0.6,0.3,1,0.7,1.4,1.3l-1.4,1.2c-0.5-0.7-1.1-1-1.9-1
					c-0.3,0-0.6,0.1-0.8,0.3s-0.3,0.5-0.3,0.8s0.2,0.6,0.5,0.8s0.8,0.5,1.5,0.7c0.4,0.1,0.7,0.3,0.9,0.4c0.2,0.1,0.5,0.2,0.8,0.4
					c0.3,0.2,0.5,0.4,0.7,0.6c0.2,0.2,0.3,0.4,0.4,0.8s0.2,0.6,0.2,1c0,1-0.3,1.8-1,2.4c-0.7,0.7-1.6,1-2.7,1c-1,0-1.9-0.3-2.6-0.9
					c-0.7-0.6-1.2-1.3-1.6-2l1.9-1c0.6,1.3,1.4,2,2.4,2c1,0,1.5-0.5,1.5-1.4c0-0.2,0-0.3-0.1-0.5s-0.2-0.3-0.4-0.4
					c-0.2-0.1-0.4-0.2-0.5-0.3c-0.2-0.1-0.4-0.2-0.7-0.3c-0.3-0.1-0.6-0.2-0.7-0.3c-1.5-0.6-2.3-1.6-2.3-3c0-0.9,0.3-1.6,0.9-2.2
					C702.3,102.5,703.1,102.2,704,102.2z"/>
				<path class="st5" d="M719.7,107.4v1h-7.7c0,0.8,0.2,1.6,0.7,2.1c0.5,0.6,1.1,0.9,2,0.9c0.6,0,1.2-0.2,1.7-0.5
					c0.5-0.3,0.9-0.8,1.2-1.3l1.9,0.8c-0.5,1.1-1.2,1.8-1.9,2.3c-0.7,0.5-1.7,0.7-2.9,0.7c-0.9,0-1.6-0.2-2.3-0.5s-1.2-0.8-1.6-1.3
					c-0.4-0.6-0.7-1.1-0.9-1.8c-0.2-0.6-0.3-1.3-0.3-2c0-0.7,0.1-1.3,0.3-2c0.2-0.6,0.5-1.2,0.9-1.8c0.4-0.6,0.9-1,1.6-1.3
					c0.7-0.3,1.4-0.5,2.3-0.5c0.8,0,1.6,0.2,2.2,0.5c0.7,0.3,1.2,0.7,1.6,1.2s0.7,1.1,0.9,1.7C719.6,106.2,719.7,106.8,719.7,107.4z
					 M714.8,104.2c-0.7,0-1.3,0.2-1.8,0.7s-0.8,1-0.9,1.7h5.3c-0.1-0.7-0.4-1.2-0.8-1.7C716.1,104.4,715.5,104.2,714.8,104.2z"/>
				<path class="st5" d="M728,100.4c-0.3-0.3-0.4-0.7-0.4-1.1s0.2-0.8,0.5-1.1c0.3-0.3,0.7-0.5,1.1-0.5c0.4,0,0.8,0.2,1.1,0.5
					c0.3,0.3,0.5,0.7,0.5,1.1s-0.1,0.8-0.4,1.1c-0.3,0.3-0.7,0.4-1.1,0.4C728.6,100.8,728.3,100.7,728,100.4z M728,102.4h2.2v10.8
					H728V102.4z"/>
				<path class="st5" d="M732.4,104.3v-2h1.8v-3l2.2-1.4v4.4h2.8v2h-2.8v5.3c0,1.2,0.5,1.8,1.4,1.8c0.4,0,0.7-0.1,1-0.3l0.6,1.9
					c-0.5,0.3-1.1,0.4-1.7,0.4c-1.1,0-1.9-0.3-2.6-1c-0.6-0.7-1-1.6-1-2.9v-5.2H732.4z"/>
				<path class="st5" d="M746.7,110.1c0-1.1,0.4-2,1.3-2.6c0.9-0.6,2-0.9,3.4-0.9h1.9v-0.5c0-0.6-0.2-1.1-0.6-1.4
					c-0.4-0.3-0.9-0.5-1.5-0.5c-1,0-1.7,0.5-2,1.4l-2-0.4c0.2-0.9,0.7-1.6,1.4-2.2c0.7-0.5,1.6-0.8,2.6-0.8c2.9,0,4.3,1.4,4.3,4.3
					v6.7h-1.9l-0.2-1.4c-0.8,1.1-1.9,1.6-3.4,1.6c-1,0-1.8-0.3-2.4-0.8C747,112,746.7,111.1,746.7,110.1z M749,110.1
					c0,0.4,0.1,0.7,0.3,0.9c0.2,0.2,0.6,0.4,1,0.4c0.8,0,1.4-0.2,2-0.7c0.6-0.5,0.8-1.2,0.8-2v-0.2h-2c-0.7,0-1.2,0.2-1.6,0.5
					C749.2,109.1,749,109.6,749,110.1z"/>
				<path class="st5" d="M758.6,102.4h2.2v1.8c0.4-0.6,0.9-1.1,1.5-1.5c0.6-0.4,1.3-0.5,2-0.5c1,0,1.7,0.3,2.3,0.8
					c0.6,0.6,0.9,1.4,0.9,2.4v7.8h-2.2v-7c0-1.3-0.6-2-1.7-2c-0.7,0-1.4,0.4-1.9,1.3c-0.6,0.8-0.8,2-0.8,3.4v4.4h-2.2V102.4z"/>
				<path class="st5" d="M769.4,102.4h2.4l2.6,7.3l2.5-7.3h2.4l-5.5,15.2h-2.2l1.8-4.9L769.4,102.4z"/>
				<path class="st5" d="M798,102.4h2.4l-3.4,10.8h-2l-2-7.6l-2,7.6h-2l-3.4-10.8h2.4l2.1,7.9l1.9-7.9h2.1l1.9,7.9L798,102.4z"/>
				<path class="st5" d="M802,110.1c0-1.1,0.4-2,1.3-2.6c0.9-0.6,2-0.9,3.4-0.9h1.9v-0.5c0-0.6-0.2-1.1-0.6-1.4
					c-0.4-0.3-0.9-0.5-1.5-0.5c-1,0-1.7,0.5-2,1.4l-2-0.4c0.2-0.9,0.7-1.6,1.4-2.2c0.7-0.5,1.6-0.8,2.6-0.8c2.9,0,4.3,1.4,4.3,4.3
					v6.7h-1.9l-0.2-1.4c-0.8,1.1-1.9,1.6-3.4,1.6c-1,0-1.8-0.3-2.4-0.8C802.3,112,802,111.1,802,110.1z M804.4,110.1
					c0,0.4,0.1,0.7,0.3,0.9c0.2,0.2,0.6,0.4,1,0.4c0.8,0,1.4-0.2,2-0.7c0.6-0.5,0.8-1.2,0.8-2v-0.2h-2c-0.7,0-1.2,0.2-1.6,0.5
					C804.6,109.1,804.4,109.6,804.4,110.1z"/>
				<path class="st5" d="M812.3,102.4h2.4l2.6,7.3l2.5-7.3h2.4l-5.5,15.2h-2.2l1.8-4.9L812.3,102.4z"/>
				<path class="st5" d="M827.9,102.4h2.4l2.6,7.3l2.5-7.3h2.4l-5.5,15.2h-2.2l1.8-4.9L827.9,102.4z"/>
				<path class="st5" d="M840.3,111.7c-1-1.1-1.4-2.4-1.4-4s0.5-2.9,1.4-4c1-1.1,2.3-1.6,3.9-1.6c1.6,0,2.9,0.5,3.9,1.6
					s1.5,2.4,1.5,4s-0.5,2.9-1.5,4c-1,1.1-2.3,1.6-3.9,1.6C842.5,113.4,841.2,112.8,840.3,111.7z M842,105.2
					c-0.5,0.7-0.8,1.6-0.8,2.5s0.3,1.8,0.8,2.5c0.5,0.7,1.2,1.1,2.2,1.1c0.9,0,1.7-0.4,2.2-1.1c0.5-0.7,0.8-1.6,0.8-2.5
					s-0.3-1.8-0.8-2.5c-0.5-0.7-1.2-1.1-2.2-1.1C843.2,104.2,842.5,104.5,842,105.2z"/>
				<path class="st5" d="M861.1,113.2h-2.2v-1.8c-0.4,0.6-0.9,1.1-1.5,1.5c-0.6,0.4-1.3,0.5-2,0.5c-1,0-1.7-0.3-2.3-0.8
					c-0.6-0.6-0.9-1.4-0.9-2.4v-7.8h2.2v7c0,1.3,0.6,2,1.7,2c0.7,0,1.4-0.4,1.9-1.3c0.6-0.8,0.8-2,0.8-3.4v-4.4h2.2V113.2z"/>
				<path class="st5" d="M870.3,98h2.2v15.2h-2.2V98z"/>
				<path class="st5" d="M876.1,100.4c-0.3-0.3-0.4-0.7-0.4-1.1s0.2-0.8,0.5-1.1c0.3-0.3,0.7-0.5,1.1-0.5c0.4,0,0.8,0.2,1.1,0.5
					c0.3,0.3,0.5,0.7,0.5,1.1s-0.1,0.8-0.4,1.1c-0.3,0.3-0.7,0.4-1.1,0.4C876.8,100.8,876.4,100.7,876.1,100.4z M876.1,102.4h2.2
					v10.8h-2.2V102.4z"/>
				<path class="st5" d="M881.9,98h2.2v8.7l3.9-4.3h2.8l-4.5,5l4.8,5.8h-2.8l-4.2-5.2v5.2h-2.2V98z"/>
				<path class="st5" d="M902.4,107.4v1h-7.7c0,0.8,0.2,1.6,0.7,2.1c0.5,0.6,1.1,0.9,2,0.9c0.6,0,1.2-0.2,1.7-0.5
					c0.5-0.3,0.9-0.8,1.2-1.3l1.9,0.8c-0.5,1.1-1.2,1.8-1.9,2.3c-0.7,0.5-1.7,0.7-2.9,0.7c-0.9,0-1.6-0.2-2.3-0.5s-1.2-0.8-1.6-1.3
					c-0.4-0.6-0.7-1.1-0.9-1.8c-0.2-0.6-0.3-1.3-0.3-2c0-0.7,0.1-1.3,0.3-2c0.2-0.6,0.5-1.2,0.9-1.8c0.4-0.6,0.9-1,1.6-1.3
					c0.7-0.3,1.4-0.5,2.3-0.5c0.8,0,1.6,0.2,2.2,0.5c0.7,0.3,1.2,0.7,1.6,1.2s0.7,1.1,0.9,1.7C902.3,106.2,902.4,106.8,902.4,107.4z
					 M897.4,104.2c-0.7,0-1.3,0.2-1.8,0.7s-0.8,1-0.9,1.7h5.3c-0.1-0.7-0.4-1.2-0.8-1.7C898.8,104.4,898.2,104.2,897.4,104.2z"/>
			</g>
		</g>
	</g>
	<g>
		<g>
			<g>
				<g>
					<path class="st5" d="M977,106c-0.1,0.1-0.5,0.4-0.6,0.5c-0.7,0.5-2,0.3-2.6,0.2c-4.2-0.8-7-4.5-6.8-8.9
						c0.3-4.1,3.7-7.4,7.8-7.6c1.4-0.1,1.8-0.7,1.2-1.9c-1.3-2.7-1.7-5.5-1.2-8.4c0.7-3.5,2.7-6.1,5.5-8.3c3.1,3.5,2.7,9-0.1,12.3
						c-0.7-1.4-0.8-2.7-0.3-5.2c0.2-0.8,0-1.3-0.8-1.5c-0.8-0.2-1.3,0.3-1.4,1c-0.1,1.5-0.3,3-0.2,4.5c0.1,1.5,0.7,2.8,1.9,3.8
						c0.8,0.6,1.4,0.6,1.9-0.2c0.8-1.3,1.7-2.6,2.3-4c1.9-4.4,1.2-8.6-1.8-12.3c-1-1.2-1.4-1.3-2.6-0.3c-1.1,0.9-2.2,1.8-3.1,2.9
						c-2.9,3.2-4.2,7-3.6,11.4c0.2,1.4,0.6,2.8,0.8,4.2c-0.3,0.1-0.5,0.2-0.8,0.2c-4.9,1.3-8.2,5.9-7.8,11.1c0.3,4.9,4.5,9,9.4,9.5
						c0.9,0.1,2.1-0.3,2.7-0.9C977.1,107.1,977.2,106.7,977,106z"/>
				</g>
				<g>
					<path class="st5" d="M993.9,71.8c-2.6,0.6-5.1,1.4-7,3.4c-0.5,0.6-1.1,0.8-1.7,0.2c-0.6-0.6-0.4-1.2,0.1-1.7
						c1.8-1.9,4.2-2.9,6.7-3.6c0.7-0.2,1.4-0.3,2.1-0.4c1-0.2,1.5,0.2,1.7,1.1c1.9,7.5-0.5,14.4-8.2,17.8c-1.2,0.5-2.6,1-3.9,1.4
						c-0.7,0.2-1.5,0.2-1.7-0.7c-0.2-0.9,0.4-1.2,1.2-1.4c2.6-0.7,5-1.7,7-3.5C994.1,81,994.9,76.7,993.9,71.8z"/>
				</g>
				<g>
					<path class="st5" d="M974.7,96.3c0,0.9-0.7,1.6-1.6,1.6c-0.9,0-1.7-0.7-1.7-1.6c0-0.9,0.8-1.7,1.7-1.7
						C974,94.6,974.7,95.4,974.7,96.3z"/>
				</g>
				<g>
					<g>
						<path class="st5" d="M1024.4,117.1c-1,0-2-0.4-2.7-1.1c-0.8-0.7-1.2-1.7-1.2-2.8c0-2.1,1.7-4,3.8-4.1l0,0
							c2.1-0.1,4,1.7,4.1,3.8c0.1,2.2-1.5,4-3.7,4.1C1024.5,117.1,1024.4,117.1,1024.4,117.1z M1024.3,111c-1.1,0-2.1,1.1-2,2.2
							c0,0.6,0.2,1.1,0.7,1.5c0.4,0.4,1,0.6,1.6,0.6c1.2-0.1,2-1,2-2.2C1026.4,111.9,1025.4,110.9,1024.3,111L1024.3,111z"/>
					</g>
				</g>
				<g>
					<g>
						<path class="st5" d="M999,123.7c-5.6,0-10.9-1.5-14.9-4.3c-4.1-2.9-6.4-6.7-6.4-10.8c0-4.1,2.3-7.9,6.4-10.8
							c4-2.8,9.3-4.3,14.9-4.3c5.6,0,10.9,1.5,14.9,4.3c4.1,2.9,6.4,6.7,6.4,10.8c0,4.1-2.3,7.9-6.4,10.8
							C1009.9,122.1,1004.6,123.7,999,123.7z M999,95.7c-10.5,0-19,5.8-19,12.8s8.5,12.8,19,12.8c10.5,0,19-5.8,19-12.8
							S1009.4,95.7,999,95.7z"/>
					</g>
				</g>
			</g>
			<g>
				<g>
					<path class="st5" d="M1012.1,144.3l-0.3-1c6.9-2.3,13.1-5.9,18.2-10.6c2.5-2.5,4.6-5.1,6.9-8l0.5-0.6c1.9-2.8,3.4-5.6,4.7-8.2
						c0-0.1,0-0.2,0-0.3c0-0.2,0-0.4,0.2-0.7c6.4-14.5,5.3-31.1-2.9-44.5c-0.3-0.5-0.6-1-0.9-1.4c-1.1-1.7-2.1-3.4-3.4-5.1
						c-4-4.8-8.7-8.7-14.1-11.7l0.5-0.9c5.4,3,10.3,7.1,14.3,12l0,0c1.3,1.8,2.3,3.5,3.4,5.2c0.3,0.5,0.6,0.9,0.9,1.4
						c4.2,6.8,6.6,14.6,7.1,22.5c0.5,7.8-1,15.7-4.2,22.9l0,0c0,0.1,0,0.2,0,0.3c0,0.2,0,0.4-0.2,0.7c-1.3,2.6-2.8,5.5-4.8,8.3l0,0
						l-0.5,0.6c-2.3,2.9-4.4,5.6-7,8.1C1025.5,138.3,1019.2,142,1012.1,144.3z"/>
				</g>
			</g>
			<g>
				<g>
					<path class="st5" d="M980.3,144.3c-0.9-0.3-1.8-0.6-2.7-0.9c-7-2.6-13.5-7-18.8-12.5c-5.3-5.6-9.3-12.4-11.6-19.8
						c-2.3-7.3-2.9-15.2-1.8-22.9c1.1-7.5,3.9-14.7,8.1-20.9c4.1-6.1,9.8-11.4,16.4-15.4l0.5,0.9c-6.5,4-12.1,9.2-16.1,15.1
						c-4.1,6.1-6.9,13.2-7.9,20.5c-1.1,7.5-0.5,15.3,1.8,22.4c2.3,7.2,6.2,13.9,11.3,19.4c5.2,5.5,11.5,9.7,18.4,12.3
						c0.9,0.3,1.8,0.6,2.7,0.9L980.3,144.3z"/>
				</g>
			</g>
			<g>
				<g>
					<path class="st5" d="M973.3,50.1c-0.8-1.9,0.1-3.8,2.1-4.6c1.1-0.5,2.3-0.4,3.2,0.3l-0.7,0.9c-0.7-0.5-1.4-0.5-2.1-0.2
						c-1.3,0.5-1.9,1.8-1.3,3.1c0.5,1.4,1.8,1.9,3.1,1.4c0.7-0.3,1.2-0.8,1.4-1.6l1.1,0.2c-0.2,1.1-0.9,2-2.1,2.4
						C976,52.9,974.1,52.1,973.3,50.1z"/>
				</g>
				<g>
					<path class="st5" d="M983.7,43l0.3,1.2c-0.1,0-0.2,0-0.3,0.1c-1.3,0.3-1.9,1.3-1.5,2.8l0.9,3.3l-1.2,0.3l-1.7-6.7l1.2-0.3
						l0.3,1.1C981.8,43.9,982.5,43.3,983.7,43z"/>
				</g>
				<g>
					<path class="st5" d="M992.3,41.8l0.8,6.8l-1.2,0.1l-0.1-1c-0.4,0.8-1.2,1.3-2.2,1.4c-1.8,0.2-3.1-0.6-3.3-2.6l-0.5-3.9l1.2-0.1
						l0.5,3.8c0.2,1.3,0.9,1.9,2.1,1.8c1.3-0.2,2-1.1,1.8-2.5l-0.4-3.5L992.3,41.8z"/>
				</g>
				<g>
					<path class="st5" d="M1001.5,45.8l-5.6-0.2c0.1,1.2,1.1,2.1,2.4,2.1c0.8,0,1.5-0.2,2-0.8l0.7,0.8c-0.7,0.7-1.6,1.1-2.8,1
						c-2.2-0.1-3.6-1.6-3.6-3.7c0.1-2,1.6-3.5,3.6-3.4c2,0.1,3.3,1.6,3.3,3.7C1001.5,45.6,1001.5,45.7,1001.5,45.8z M995.9,44.7
						l4.4,0.2c-0.1-1.2-0.9-2-2.1-2.1C997,42.8,996.1,43.6,995.9,44.7z"/>
				</g>
				<g>
					<path class="st5" d="M1004.3,39.6l1.2,0.2l-1.4,9.5l-1.2-0.2L1004.3,39.6z"/>
				</g>
				<g>
					<path class="st5" d="M1010.3,50.2c-0.4,0.2-1,0.2-1.6,0.1c-1.4-0.3-1.9-1.3-1.6-2.6l0.9-3.7l-1.1-0.3l0.2-1l1.1,0.3l0.4-1.5
						l1.2,0.3l-0.4,1.5l1.9,0.5l-0.2,1l-1.9-0.5l-0.9,3.6c-0.2,0.7,0.1,1.2,0.8,1.4c0.4,0.1,0.7,0.1,1-0.1L1010.3,50.2z"/>
				</g>
				<g>
					<path class="st5" d="M1019.4,46.6l-5.8,5.9c-1.1,1.2-2,1.3-3,0.9c-0.6-0.2-1.2-0.7-1.4-1.2l0.8-0.7c0.2,0.4,0.5,0.7,1,0.9
						c0.6,0.2,1,0.1,1.6-0.5l0.4-0.4l-0.5-7.5l1.2,0.4l0.3,6l4.1-4.3L1019.4,46.6z"/>
				</g>
			</g>
			<g>
				<g>
					<path class="st5" d="M985.9,140.7l-0.1,0.6l1.9,0.5l-0.2,1l-1.9-0.5l-1.4,5.7l-1.2-0.3l1.4-5.7l-1.1-0.3l0.2-1l1.1,0.3l0.1-0.6
						c0.3-1.3,1.3-2,2.7-1.6c0.5,0.1,1,0.4,1.3,0.7l-0.6,0.8c-0.2-0.3-0.5-0.5-0.9-0.5C986.5,139.6,986.1,139.9,985.9,140.7z"/>
				</g>
				<g>
					<path class="st5" d="M993.4,142.4l-0.1,1.2c-0.1,0-0.2,0-0.3,0c-1.3-0.1-2.2,0.6-2.4,2.1l-0.4,3.4l-1.2-0.1l0.8-6.8l1.2,0.1
						l-0.1,1.1C991.3,142.6,992.2,142.3,993.4,142.4z"/>
				</g>
				<g>
					<path class="st5" d="M1001,146.2l-5.6,0.2c0.2,1.2,1.2,2,2.6,1.9c0.8,0,1.5-0.3,2-0.9l0.7,0.8c-0.6,0.7-1.5,1.2-2.7,1.2
						c-2.2,0.1-3.7-1.4-3.8-3.4c-0.1-2,1.4-3.6,3.3-3.6c2-0.1,3.4,1.3,3.5,3.4C1001,146,1001,146.1,1001,146.2z M995.3,145.5
						l4.4-0.1c-0.2-1.2-1.1-1.9-2.3-1.9C996.3,143.5,995.4,144.3,995.3,145.5z"/>
				</g>
				<g>
					<path class="st5" d="M1009.2,144.7l-5.5,1.1c0.4,1.2,1.5,1.7,2.9,1.5c0.8-0.2,1.4-0.6,1.8-1.2l0.8,0.6
						c-0.5,0.8-1.3,1.4-2.4,1.6c-2.2,0.5-3.9-0.7-4.3-2.7c-0.4-2,0.7-3.7,2.7-4.1c1.9-0.4,3.6,0.7,4.1,2.8
						C1009.2,144.4,1009.2,144.5,1009.2,144.7z M1003.5,144.9l4.3-0.9c-0.4-1.1-1.4-1.7-2.6-1.5
						C1004.1,142.8,1003.4,143.7,1003.5,144.9z"/>
				</g>
			</g>
		</g>
		<g>
			<g>
				<path class="st5" d="M1064.6,76.6h2.2v1.8c0.4-0.6,0.9-1.1,1.5-1.5c0.6-0.4,1.3-0.5,2-0.5c1,0,1.7,0.3,2.3,0.8
					c0.6,0.6,0.9,1.4,0.9,2.4v7.8h-2.2v-7c0-1.3-0.6-2-1.7-2c-0.7,0-1.4,0.4-1.9,1.3c-0.6,0.8-0.8,2-0.8,3.4v4.4h-2.2V76.6z"/>
				<path class="st5" d="M1086.3,81.6v1h-7.7c0,0.8,0.2,1.6,0.7,2.1c0.5,0.6,1.1,0.9,2,0.9c0.6,0,1.2-0.2,1.7-0.5
					c0.5-0.3,0.9-0.8,1.2-1.3l1.9,0.8c-0.5,1.1-1.2,1.8-1.9,2.3c-0.7,0.5-1.7,0.7-2.9,0.7c-0.9,0-1.6-0.2-2.3-0.5s-1.2-0.8-1.6-1.3
					c-0.4-0.6-0.7-1.1-0.9-1.8c-0.2-0.6-0.3-1.3-0.3-2c0-0.7,0.1-1.3,0.3-2c0.2-0.6,0.5-1.2,0.9-1.8c0.4-0.6,0.9-1,1.6-1.3
					c0.7-0.3,1.4-0.5,2.3-0.5c0.8,0,1.6,0.2,2.2,0.5c0.7,0.3,1.2,0.7,1.6,1.2s0.7,1.1,0.9,1.7C1086.2,80.4,1086.3,81,1086.3,81.6z
					 M1081.3,78.4c-0.7,0-1.3,0.2-1.8,0.7s-0.8,1-0.9,1.7h5.3c-0.1-0.7-0.4-1.2-0.8-1.7C1082.7,78.6,1082.1,78.4,1081.3,78.4z"/>
				<path class="st5" d="M1087.5,76.6h2.3l2.4,7.8l2.4-7.8h2.3l-3.6,10.8h-2.1L1087.5,76.6z"/>
				<path class="st5" d="M1108.1,81.6v1h-7.7c0,0.8,0.2,1.6,0.7,2.1c0.5,0.6,1.1,0.9,2,0.9c0.6,0,1.2-0.2,1.7-0.5
					c0.5-0.3,0.9-0.8,1.2-1.3l1.9,0.8c-0.5,1.1-1.2,1.8-1.9,2.3c-0.7,0.5-1.7,0.7-2.9,0.7c-0.9,0-1.6-0.2-2.3-0.5s-1.2-0.8-1.6-1.3
					c-0.4-0.6-0.7-1.1-0.9-1.8c-0.2-0.6-0.3-1.3-0.3-2c0-0.7,0.1-1.3,0.3-2c0.2-0.6,0.5-1.2,0.9-1.8c0.4-0.6,0.9-1,1.6-1.3
					c0.7-0.3,1.4-0.5,2.3-0.5c0.8,0,1.6,0.2,2.2,0.5c0.7,0.3,1.2,0.7,1.6,1.2s0.7,1.1,0.9,1.7C1108,80.4,1108.1,81,1108.1,81.6z
					 M1103.1,78.4c-0.7,0-1.3,0.2-1.8,0.7s-0.8,1-0.9,1.7h5.3c-0.1-0.7-0.4-1.2-0.8-1.7C1104.5,78.6,1103.9,78.4,1103.1,78.4z"/>
				<path class="st5" d="M1113.1,87.4h-2.2V76.6h2.2v1.8c0.4-0.6,0.8-1.1,1.4-1.5c0.6-0.3,1.2-0.5,1.8-0.5c0.5,0,0.9,0.1,1.4,0.3
					l-0.4,2c-0.3-0.2-0.8-0.3-1.3-0.3c-0.8,0-1.5,0.4-2.1,1.3s-0.9,2.1-0.9,3.7V87.4z"/>
				<path class="st5" d="M1124,78.6v-2h1.8v-3l2.2-1.4v4.4h2.8v2h-2.8v5.3c0,1.2,0.5,1.8,1.4,1.8c0.4,0,0.7-0.1,1-0.3l0.6,1.9
					c-0.5,0.3-1.1,0.4-1.7,0.4c-1.1,0-1.9-0.3-2.6-1c-0.6-0.7-1-1.6-1-2.9v-5.2H1124z"/>
				<path class="st5" d="M1142.9,81.6v1h-7.7c0,0.8,0.2,1.6,0.7,2.1c0.5,0.6,1.1,0.9,2,0.9c0.6,0,1.2-0.2,1.7-0.5
					c0.5-0.3,0.9-0.8,1.2-1.3l1.9,0.8c-0.5,1.1-1.2,1.8-1.9,2.3c-0.7,0.5-1.7,0.7-2.9,0.7c-0.9,0-1.6-0.2-2.3-0.5s-1.2-0.8-1.6-1.3
					c-0.4-0.6-0.7-1.1-0.9-1.8c-0.2-0.6-0.3-1.3-0.3-2c0-0.7,0.1-1.3,0.3-2c0.2-0.6,0.5-1.2,0.9-1.8c0.4-0.6,0.9-1,1.6-1.3
					c0.7-0.3,1.4-0.5,2.3-0.5c0.8,0,1.6,0.2,2.2,0.5c0.7,0.3,1.2,0.7,1.6,1.2s0.7,1.1,0.9,1.7C1142.8,80.4,1142.9,81,1142.9,81.6z
					 M1137.9,78.4c-0.7,0-1.3,0.2-1.8,0.7s-0.8,1-0.9,1.7h5.3c-0.1-0.7-0.4-1.2-0.8-1.7C1139.2,78.6,1138.6,78.4,1137.9,78.4z"/>
				<path class="st5" d="M1148.8,76.4c0.7,0,1.3,0.2,1.8,0.5c0.6,0.3,1,0.7,1.4,1.3l-1.4,1.2c-0.5-0.7-1.1-1-1.9-1
					c-0.3,0-0.6,0.1-0.8,0.3s-0.3,0.5-0.3,0.8s0.2,0.6,0.5,0.8s0.8,0.5,1.5,0.7c0.4,0.1,0.7,0.3,0.9,0.4c0.2,0.1,0.5,0.2,0.8,0.4
					c0.3,0.2,0.5,0.4,0.7,0.6c0.2,0.2,0.3,0.4,0.4,0.8s0.2,0.6,0.2,1c0,1-0.3,1.8-1,2.4c-0.7,0.7-1.6,1-2.7,1c-1,0-1.9-0.3-2.6-0.9
					c-0.7-0.6-1.2-1.3-1.6-2l1.9-1c0.6,1.3,1.4,2,2.4,2c1,0,1.5-0.5,1.5-1.4c0-0.2,0-0.3-0.1-0.5s-0.2-0.3-0.4-0.4
					c-0.2-0.1-0.4-0.2-0.5-0.3c-0.2-0.1-0.4-0.2-0.7-0.3c-0.3-0.1-0.6-0.2-0.7-0.3c-1.5-0.6-2.3-1.6-2.3-3c0-0.9,0.3-1.6,0.9-2.2
					C1147.1,76.7,1147.8,76.4,1148.8,76.4z"/>
				<path class="st5" d="M1153.9,78.6v-2h1.8v-3l2.2-1.4v4.4h2.8v2h-2.8v5.3c0,1.2,0.5,1.8,1.4,1.8c0.4,0,0.7-0.1,1-0.3l0.6,1.9
					c-0.5,0.3-1.1,0.4-1.7,0.4c-1.1,0-1.9-0.3-2.6-1c-0.6-0.7-1-1.6-1-2.9v-5.2H1153.9z"/>
				<path class="st5" d="M1172.8,81.6v1h-7.7c0,0.8,0.2,1.6,0.7,2.1c0.5,0.6,1.1,0.9,2,0.9c0.6,0,1.2-0.2,1.7-0.5
					c0.5-0.3,0.9-0.8,1.2-1.3l1.9,0.8c-0.5,1.1-1.2,1.8-1.9,2.3c-0.7,0.5-1.7,0.7-2.9,0.7c-0.9,0-1.6-0.2-2.3-0.5s-1.2-0.8-1.6-1.3
					c-0.4-0.6-0.7-1.1-0.9-1.8c-0.2-0.6-0.3-1.3-0.3-2c0-0.7,0.1-1.3,0.3-2c0.2-0.6,0.5-1.2,0.9-1.8c0.4-0.6,0.9-1,1.6-1.3
					c0.7-0.3,1.4-0.5,2.3-0.5c0.8,0,1.6,0.2,2.2,0.5c0.7,0.3,1.2,0.7,1.6,1.2s0.7,1.1,0.9,1.7C1172.7,80.4,1172.8,81,1172.8,81.6z
					 M1167.8,78.4c-0.7,0-1.3,0.2-1.8,0.7s-0.8,1-0.9,1.7h5.3c-0.1-0.7-0.4-1.2-0.8-1.7C1169.2,78.6,1168.6,78.4,1167.8,78.4z"/>
				<path class="st5" d="M1174.8,82c0-1.7,0.4-3.1,1.2-4.1c0.8-1,2-1.5,3.6-1.5c0.5,0,1.1,0.1,1.7,0.4c0.6,0.3,1,0.6,1.2,1v-5.6h2.2
					v15.2h-2.2v-1.2c-0.2,0.4-0.6,0.7-1.1,1c-0.6,0.3-1.2,0.4-1.8,0.4c-1.6,0-2.8-0.5-3.6-1.5C1175.2,85.1,1174.8,83.8,1174.8,82z
					 M1177.9,79.4c-0.5,0.7-0.8,1.5-0.8,2.6s0.3,2,0.8,2.6c0.5,0.7,1.2,1,2,1s1.5-0.3,2-1c0.5-0.7,0.8-1.5,0.8-2.6s-0.3-2-0.8-2.6
					s-1.2-1-2-1S1178.4,78.7,1177.9,79.4z"/>
				<path class="st5" d="M1194.7,86c-1-1.1-1.4-2.4-1.4-4s0.5-2.9,1.4-4c1-1.1,2.3-1.6,3.9-1.6c1.6,0,2.9,0.5,3.9,1.6s1.5,2.4,1.5,4
					s-0.5,2.9-1.5,4c-1,1.1-2.3,1.6-3.9,1.6C1196.9,87.6,1195.6,87,1194.7,86z M1196.4,79.4c-0.5,0.7-0.8,1.6-0.8,2.5
					s0.3,1.8,0.8,2.5c0.5,0.7,1.2,1.1,2.2,1.1c0.9,0,1.7-0.4,2.2-1.1c0.5-0.7,0.8-1.6,0.8-2.5s-0.3-1.8-0.8-2.5
					c-0.5-0.7-1.2-1.1-2.2-1.1C1197.6,78.4,1196.9,78.7,1196.4,79.4z"/>
				<path class="st5" d="M1206.8,76.6h2.2v1.8c0.4-0.6,0.9-1.1,1.5-1.5c0.6-0.4,1.3-0.5,2-0.5c1,0,1.7,0.3,2.3,0.8
					c0.6,0.6,0.9,1.4,0.9,2.4v7.8h-2.2v-7c0-1.3-0.6-2-1.7-2c-0.7,0-1.4,0.4-1.9,1.3c-0.6,0.8-0.8,2-0.8,3.4v4.4h-2.2V76.6z"/>
				<path class="st5" d="M1223.9,84.3c0-1.1,0.4-2,1.3-2.6c0.9-0.6,2-0.9,3.4-0.9h1.9v-0.5c0-0.6-0.2-1.1-0.6-1.4
					c-0.4-0.3-0.9-0.5-1.5-0.5c-1,0-1.7,0.5-2,1.4l-2-0.4c0.2-0.9,0.7-1.6,1.4-2.2c0.7-0.5,1.6-0.8,2.6-0.8c2.9,0,4.3,1.4,4.3,4.3
					v6.7h-1.9l-0.2-1.4c-0.8,1.1-1.9,1.6-3.4,1.6c-1,0-1.8-0.3-2.4-0.8C1224.2,86.2,1223.9,85.4,1223.9,84.3z M1226.2,84.3
					c0,0.4,0.1,0.7,0.3,0.9c0.2,0.2,0.6,0.4,1,0.4c0.8,0,1.4-0.2,2-0.7c0.6-0.5,0.8-1.2,0.8-2v-0.2h-2c-0.7,0-1.2,0.2-1.6,0.5
					C1226.4,83.4,1226.2,83.8,1226.2,84.3z"/>
				<path class="st5" d="M1235.8,76.6h2.2v1.8c0.4-0.6,0.9-1.1,1.5-1.5c0.6-0.4,1.3-0.5,2-0.5c1,0,1.7,0.3,2.3,0.8
					c0.6,0.6,0.9,1.4,0.9,2.4v7.8h-2.2v-7c0-1.3-0.6-2-1.7-2c-0.7,0-1.4,0.4-1.9,1.3c-0.6,0.8-0.8,2-0.8,3.4v4.4h-2.2V76.6z"/>
				<path class="st5" d="M1248.2,74.6c-0.3-0.3-0.4-0.7-0.4-1.1s0.2-0.8,0.5-1.1c0.3-0.3,0.7-0.5,1.1-0.5c0.4,0,0.8,0.2,1.1,0.5
					c0.3,0.3,0.5,0.7,0.5,1.1s-0.1,0.8-0.4,1.1c-0.3,0.3-0.7,0.4-1.1,0.4C1248.8,75.1,1248.5,74.9,1248.2,74.6z M1248.2,76.6h2.2
					v10.8h-2.2V76.6z"/>
				<path class="st5" d="M1254,76.6h2.2v1.8c0.9-1.3,2-2,3.3-2c0.7,0,1.4,0.2,1.9,0.6c0.6,0.4,0.9,0.9,1.1,1.6
					c0.4-0.7,0.9-1.3,1.4-1.7c0.6-0.4,1.2-0.6,1.9-0.6c1,0,1.7,0.3,2.3,0.9c0.5,0.6,0.8,1.4,0.8,2.4v7.8h-2.2v-7.3
					c0-0.6-0.1-1-0.4-1.3s-0.7-0.5-1.2-0.5c-0.7,0-1.3,0.4-1.8,1.3s-0.7,2-0.7,3.4v4.3h-2.2v-7.3c0-0.6-0.1-1-0.4-1.3
					c-0.3-0.3-0.7-0.5-1.2-0.5c-0.7,0-1.3,0.4-1.8,1.3c-0.5,0.9-0.7,2.1-0.7,3.6v4.1h-2.2V76.6z"/>
				<path class="st5" d="M1271.6,84.3c0-1.1,0.4-2,1.3-2.6c0.9-0.6,2-0.9,3.4-0.9h1.9v-0.5c0-0.6-0.2-1.1-0.6-1.4
					c-0.4-0.3-0.9-0.5-1.5-0.5c-1,0-1.7,0.5-2,1.4l-2-0.4c0.2-0.9,0.7-1.6,1.4-2.2c0.7-0.5,1.6-0.8,2.6-0.8c2.9,0,4.3,1.4,4.3,4.3
					v6.7h-1.9l-0.2-1.4c-0.8,1.1-1.9,1.6-3.4,1.6c-1,0-1.8-0.3-2.4-0.8C1271.9,86.2,1271.6,85.4,1271.6,84.3z M1273.9,84.3
					c0,0.4,0.1,0.7,0.3,0.9c0.2,0.2,0.6,0.4,1,0.4c0.8,0,1.4-0.2,2-0.7c0.6-0.5,0.8-1.2,0.8-2v-0.2h-2c-0.7,0-1.2,0.2-1.6,0.5
					C1274.1,83.4,1273.9,83.8,1273.9,84.3z"/>
				<path class="st5" d="M1283.5,72.2h2.2v15.2h-2.2V72.2z"/>
				<path class="st5" d="M1292.5,76.4c0.7,0,1.3,0.2,1.8,0.5c0.6,0.3,1,0.7,1.4,1.3l-1.4,1.2c-0.5-0.7-1.1-1-1.9-1
					c-0.3,0-0.6,0.1-0.8,0.3s-0.3,0.5-0.3,0.8s0.2,0.6,0.5,0.8s0.8,0.5,1.5,0.7c0.4,0.1,0.7,0.3,0.9,0.4c0.2,0.1,0.5,0.2,0.8,0.4
					c0.3,0.2,0.5,0.4,0.7,0.6c0.2,0.2,0.3,0.4,0.4,0.8s0.2,0.6,0.2,1c0,1-0.3,1.8-1,2.4c-0.7,0.7-1.6,1-2.7,1c-1,0-1.9-0.3-2.6-0.9
					c-0.7-0.6-1.2-1.3-1.6-2l1.9-1c0.6,1.3,1.4,2,2.4,2c1,0,1.5-0.5,1.5-1.4c0-0.2,0-0.3-0.1-0.5s-0.2-0.3-0.4-0.4
					c-0.2-0.1-0.4-0.2-0.5-0.3c-0.2-0.1-0.4-0.2-0.7-0.3c-0.3-0.1-0.6-0.2-0.7-0.3c-1.5-0.6-2.3-1.6-2.3-3c0-0.9,0.3-1.6,0.9-2.2
					C1290.8,76.7,1291.6,76.4,1292.5,76.4z"/>
				<path class="st5" d="M1303.7,84.3c0-1.1,0.4-2,1.3-2.6c0.9-0.6,2-0.9,3.4-0.9h1.9v-0.5c0-0.6-0.2-1.1-0.6-1.4
					c-0.4-0.3-0.9-0.5-1.5-0.5c-1,0-1.7,0.5-2,1.4l-2-0.4c0.2-0.9,0.7-1.6,1.4-2.2c0.7-0.5,1.6-0.8,2.6-0.8c2.9,0,4.3,1.4,4.3,4.3
					v6.7h-1.9l-0.2-1.4c-0.8,1.1-1.9,1.6-3.4,1.6c-1,0-1.8-0.3-2.4-0.8C1304,86.2,1303.7,85.4,1303.7,84.3z M1306,84.3
					c0,0.4,0.1,0.7,0.3,0.9c0.2,0.2,0.6,0.4,1,0.4c0.8,0,1.4-0.2,2-0.7c0.6-0.5,0.8-1.2,0.8-2v-0.2h-2c-0.7,0-1.2,0.2-1.6,0.5
					C1306.2,83.4,1306,83.8,1306,84.3z"/>
				<path class="st5" d="M1318.8,76.4c0.7,0,1.3,0.2,1.8,0.5c0.6,0.3,1,0.7,1.4,1.3l-1.4,1.2c-0.5-0.7-1.1-1-1.9-1
					c-0.3,0-0.6,0.1-0.8,0.3s-0.3,0.5-0.3,0.8s0.2,0.6,0.5,0.8s0.8,0.5,1.5,0.7c0.4,0.1,0.7,0.3,0.9,0.4c0.2,0.1,0.5,0.2,0.8,0.4
					c0.3,0.2,0.5,0.4,0.7,0.6c0.2,0.2,0.3,0.4,0.4,0.8s0.2,0.6,0.2,1c0,1-0.3,1.8-1,2.4c-0.7,0.7-1.6,1-2.7,1c-1,0-1.9-0.3-2.6-0.9
					c-0.7-0.6-1.2-1.3-1.6-2l1.9-1c0.6,1.3,1.4,2,2.4,2c1,0,1.5-0.5,1.5-1.4c0-0.2,0-0.3-0.1-0.5s-0.2-0.3-0.4-0.4
					c-0.2-0.1-0.4-0.2-0.5-0.3c-0.2-0.1-0.4-0.2-0.7-0.3c-0.3-0.1-0.6-0.2-0.7-0.3c-1.5-0.6-2.3-1.6-2.3-3c0-0.9,0.3-1.6,0.9-2.2
					C1317,76.7,1317.8,76.4,1318.8,76.4z"/>
				<path class="st5" d="M1090.7,102.4h2.4l-3.4,10.8h-2l-2-7.6l-2,7.6h-2l-3.4-10.8h2.4l2.1,7.9l1.9-7.9h2.1l1.9,7.9L1090.7,102.4z
					"/>
				<path class="st5" d="M1104.8,107.4v1h-7.7c0,0.8,0.2,1.6,0.7,2.1c0.5,0.6,1.1,0.9,2,0.9c0.6,0,1.2-0.2,1.7-0.5
					c0.5-0.3,0.9-0.8,1.2-1.3l1.9,0.8c-0.5,1.1-1.2,1.8-1.9,2.3c-0.7,0.5-1.7,0.7-2.9,0.7c-0.9,0-1.6-0.2-2.3-0.5s-1.2-0.8-1.6-1.3
					c-0.4-0.6-0.7-1.1-0.9-1.8c-0.2-0.6-0.3-1.3-0.3-2c0-0.7,0.1-1.3,0.3-2c0.2-0.6,0.5-1.2,0.9-1.8c0.4-0.6,0.9-1,1.6-1.3
					c0.7-0.3,1.4-0.5,2.3-0.5c0.8,0,1.6,0.2,2.2,0.5c0.7,0.3,1.2,0.7,1.6,1.2s0.7,1.1,0.9,1.7
					C1104.7,106.2,1104.8,106.8,1104.8,107.4z M1099.8,104.2c-0.7,0-1.3,0.2-1.8,0.7s-0.8,1-0.9,1.7h5.3c-0.1-0.7-0.4-1.2-0.8-1.7
					C1101.2,104.4,1100.5,104.2,1099.8,104.2z"/>
				<path class="st5" d="M1113,98h2.2v15.2h-2.2V98z"/>
				<path class="st5" d="M1119.6,111.7c-1-1.1-1.4-2.4-1.4-4s0.5-2.9,1.4-4c1-1.1,2.3-1.6,3.9-1.6c1.6,0,2.9,0.5,3.9,1.6
					s1.5,2.4,1.5,4s-0.5,2.9-1.5,4c-1,1.1-2.3,1.6-3.9,1.6C1121.8,113.4,1120.5,112.8,1119.6,111.7z M1121.3,105.2
					c-0.5,0.7-0.8,1.6-0.8,2.5s0.3,1.8,0.8,2.5c0.5,0.7,1.2,1.1,2.2,1.1c0.9,0,1.7-0.4,2.2-1.1c0.5-0.7,0.8-1.6,0.8-2.5
					s-0.3-1.8-0.8-2.5c-0.5-0.7-1.2-1.1-2.2-1.1C1122.5,104.2,1121.8,104.5,1121.3,105.2z"/>
				<path class="st5" d="M1130.1,102.4h2.3l2.4,7.8l2.4-7.8h2.3l-3.6,10.8h-2.1L1130.1,102.4z"/>
				<path class="st5" d="M1150.7,107.4v1h-7.7c0,0.8,0.2,1.6,0.7,2.1c0.5,0.6,1.1,0.9,2,0.9c0.6,0,1.2-0.2,1.7-0.5
					c0.5-0.3,0.9-0.8,1.2-1.3l1.9,0.8c-0.5,1.1-1.2,1.8-1.9,2.3c-0.7,0.5-1.7,0.7-2.9,0.7c-0.9,0-1.6-0.2-2.3-0.5s-1.2-0.8-1.6-1.3
					c-0.4-0.6-0.7-1.1-0.9-1.8c-0.2-0.6-0.3-1.3-0.3-2c0-0.7,0.1-1.3,0.3-2c0.2-0.6,0.5-1.2,0.9-1.8c0.4-0.6,0.9-1,1.6-1.3
					c0.7-0.3,1.4-0.5,2.3-0.5c0.8,0,1.6,0.2,2.2,0.5c0.7,0.3,1.2,0.7,1.6,1.2s0.7,1.1,0.9,1.7
					C1150.6,106.2,1150.7,106.8,1150.7,107.4z M1145.7,104.2c-0.7,0-1.3,0.2-1.8,0.7s-0.8,1-0.9,1.7h5.3c-0.1-0.7-0.4-1.2-0.8-1.7
					C1147.1,104.4,1146.5,104.2,1145.7,104.2z"/>
				<path class="st5" d="M1157.6,104.3v-2h1.8v-3l2.2-1.4v4.4h2.8v2h-2.8v5.3c0,1.2,0.5,1.8,1.4,1.8c0.4,0,0.7-0.1,1-0.3l0.6,1.9
					c-0.5,0.3-1.1,0.4-1.7,0.4c-1.1,0-1.9-0.3-2.6-1c-0.6-0.7-1-1.6-1-2.9v-5.2H1157.6z"/>
				<path class="st5" d="M1167.3,98h2.2v6.2c0.9-1.3,2.1-2,3.7-2c1,0,1.8,0.3,2.4,0.8s0.8,1.4,0.8,2.5v7.6h-2.2v-7
					c0-0.8-0.1-1.3-0.4-1.6c-0.3-0.3-0.7-0.4-1.3-0.4c-0.7,0-1.3,0.4-2,1.2c-0.6,0.8-0.9,1.9-0.9,3.2v4.6h-2.2V98z"/>
				<path class="st5" d="M1189.1,107.4v1h-7.7c0,0.8,0.2,1.6,0.7,2.1c0.5,0.6,1.1,0.9,2,0.9c0.6,0,1.2-0.2,1.7-0.5
					c0.5-0.3,0.9-0.8,1.2-1.3l1.9,0.8c-0.5,1.1-1.2,1.8-1.9,2.3c-0.7,0.5-1.7,0.7-2.9,0.7c-0.9,0-1.6-0.2-2.3-0.5s-1.2-0.8-1.6-1.3
					c-0.4-0.6-0.7-1.1-0.9-1.8c-0.2-0.6-0.3-1.3-0.3-2c0-0.7,0.1-1.3,0.3-2c0.2-0.6,0.5-1.2,0.9-1.8c0.4-0.6,0.9-1,1.6-1.3
					c0.7-0.3,1.4-0.5,2.3-0.5c0.8,0,1.6,0.2,2.2,0.5c0.7,0.3,1.2,0.7,1.6,1.2s0.7,1.1,0.9,1.7C1189,106.2,1189.1,106.8,1189.1,107.4
					z M1184.2,104.2c-0.7,0-1.3,0.2-1.8,0.7s-0.8,1-0.9,1.7h5.3c-0.1-0.7-0.4-1.2-0.8-1.7C1185.5,104.4,1184.9,104.2,1184.2,104.2z"
					/>
				<path class="st5" d="M1191.9,102.4h2.2v1.8c0.9-1.3,2-2,3.3-2c0.7,0,1.4,0.2,1.9,0.6c0.6,0.4,0.9,0.9,1.1,1.6
					c0.4-0.7,0.9-1.3,1.4-1.7c0.6-0.4,1.2-0.6,1.9-0.6c1,0,1.7,0.3,2.3,0.9c0.5,0.6,0.8,1.4,0.8,2.4v7.8h-2.2v-7.3
					c0-0.6-0.1-1-0.4-1.3s-0.7-0.5-1.2-0.5c-0.7,0-1.3,0.4-1.8,1.3s-0.7,2-0.7,3.4v4.3h-2.2v-7.3c0-0.6-0.1-1-0.4-1.3
					c-0.3-0.3-0.7-0.5-1.2-0.5c-0.7,0-1.3,0.4-1.8,1.3c-0.5,0.9-0.7,2.1-0.7,3.6v4.1h-2.2V102.4z"/>
				<path class="st5" d="M1214.6,104.3v-2h1.8v-3l2.2-1.4v4.4h2.8v2h-2.8v5.3c0,1.2,0.5,1.8,1.4,1.8c0.4,0,0.7-0.1,1-0.3l0.6,1.9
					c-0.5,0.3-1.1,0.4-1.7,0.4c-1.1,0-1.9-0.3-2.6-1c-0.6-0.7-1-1.6-1-2.9v-5.2H1214.6z"/>
				<path class="st5" d="M1224.9,111.7c-1-1.1-1.4-2.4-1.4-4s0.5-2.9,1.4-4c1-1.1,2.3-1.6,3.9-1.6c1.6,0,2.9,0.5,3.9,1.6
					s1.5,2.4,1.5,4s-0.5,2.9-1.5,4c-1,1.1-2.3,1.6-3.9,1.6C1227.1,113.4,1225.8,112.8,1224.9,111.7z M1226.6,105.2
					c-0.5,0.7-0.8,1.6-0.8,2.5s0.3,1.8,0.8,2.5c0.5,0.7,1.2,1.1,2.2,1.1c0.9,0,1.7-0.4,2.2-1.1c0.5-0.7,0.8-1.6,0.8-2.5
					s-0.3-1.8-0.8-2.5c-0.5-0.7-1.2-1.1-2.2-1.1C1227.8,104.2,1227.1,104.5,1226.6,105.2z"/>
				<path class="st5" d="M1237.6,111.7c-1-1.1-1.4-2.4-1.4-4s0.5-2.9,1.4-4c1-1.1,2.3-1.6,3.9-1.6c1.6,0,2.9,0.5,3.9,1.6
					s1.5,2.4,1.5,4s-0.5,2.9-1.5,4c-1,1.1-2.3,1.6-3.9,1.6C1239.9,113.4,1238.6,112.8,1237.6,111.7z M1239.3,105.2
					c-0.5,0.7-0.8,1.6-0.8,2.5s0.3,1.8,0.8,2.5c0.5,0.7,1.2,1.1,2.2,1.1c0.9,0,1.7-0.4,2.2-1.1c0.5-0.7,0.8-1.6,0.8-2.5
					s-0.3-1.8-0.8-2.5c-0.5-0.7-1.2-1.1-2.2-1.1C1240.6,104.2,1239.9,104.5,1239.3,105.2z"/>
				<path class="st5" d="M1255.3,102.4h2.2v1.8c0.9-1.3,2-2,3.3-2c0.7,0,1.4,0.2,1.9,0.6c0.6,0.4,0.9,0.9,1.1,1.6
					c0.4-0.7,0.9-1.3,1.4-1.7c0.6-0.4,1.2-0.6,1.9-0.6c1,0,1.7,0.3,2.3,0.9c0.5,0.6,0.8,1.4,0.8,2.4v7.8h-2.2v-7.3
					c0-0.6-0.1-1-0.4-1.3s-0.7-0.5-1.2-0.5c-0.7,0-1.3,0.4-1.8,1.3s-0.7,2-0.7,3.4v4.3h-2.2v-7.3c0-0.6-0.1-1-0.4-1.3
					c-0.3-0.3-0.7-0.5-1.2-0.5c-0.7,0-1.3,0.4-1.8,1.3c-0.5,0.9-0.7,2.1-0.7,3.6v4.1h-2.2V102.4z"/>
				<path class="st5" d="M1282.5,113.2h-2.2v-1.8c-0.4,0.6-0.9,1.1-1.5,1.5c-0.6,0.4-1.3,0.5-2,0.5c-1,0-1.7-0.3-2.3-0.8
					c-0.6-0.6-0.9-1.4-0.9-2.4v-7.8h2.2v7c0,1.3,0.6,2,1.7,2c0.7,0,1.4-0.4,1.9-1.3c0.6-0.8,0.8-2,0.8-3.4v-4.4h2.2V113.2z"/>
				<path class="st5" d="M1293.2,109.5l2,0.9c-0.9,2-2.4,3-4.7,3c-1.6,0-2.9-0.5-3.8-1.6c-0.9-1.1-1.3-2.4-1.3-4s0.4-2.9,1.3-4
					c0.9-1.1,2.1-1.6,3.8-1.6c2.2,0,3.8,1,4.7,3l-2,0.9c-0.6-1.2-1.5-1.9-2.7-1.9c-0.9,0-1.6,0.3-2.1,1c-0.5,0.7-0.7,1.5-0.7,2.6
					c0,1.1,0.2,2,0.7,2.6c0.5,0.7,1.1,1,2.1,1C1291.8,111.4,1292.7,110.8,1293.2,109.5z"/>
				<path class="st5" d="M1297.9,98h2.2v6.2c0.9-1.3,2.1-2,3.7-2c1,0,1.8,0.3,2.4,0.8s0.8,1.4,0.8,2.5v7.6h-2.2v-7
					c0-0.8-0.1-1.3-0.4-1.6c-0.3-0.3-0.7-0.4-1.3-0.4c-0.7,0-1.3,0.4-2,1.2c-0.6,0.8-0.9,1.9-0.9,3.2v4.6h-2.2V98z"/>
			</g>
		</g>
	</g>
	<g>
		<g>
			<g>
				<path class="st5" d="M166.6,84.3c0-1.1,0.4-2,1.3-2.6c0.9-0.6,2-0.9,3.4-0.9h1.9v-0.5c0-0.6-0.2-1.1-0.6-1.4
					c-0.4-0.3-0.9-0.5-1.5-0.5c-1,0-1.7,0.5-2,1.4l-2-0.4c0.2-0.9,0.7-1.6,1.4-2.2c0.7-0.5,1.6-0.8,2.6-0.8c2.9,0,4.3,1.4,4.3,4.3
					v6.7h-1.9l-0.2-1.4c-0.8,1.1-1.9,1.6-3.4,1.6c-1,0-1.8-0.3-2.4-0.8C166.9,86.2,166.6,85.4,166.6,84.3z M169,84.3
					c0,0.4,0.1,0.7,0.3,0.9c0.2,0.2,0.6,0.4,1,0.4c0.8,0,1.4-0.2,2-0.7c0.6-0.5,0.8-1.2,0.8-2v-0.2h-2c-0.7,0-1.2,0.2-1.6,0.5
					C169.2,83.4,169,83.8,169,84.3z"/>
				<path class="st5" d="M178.5,72.2h2.2v15.2h-2.2V72.2z"/>
				<path class="st5" d="M184.4,72.2h2.2v15.2h-2.2V72.2z"/>
				<path class="st5" d="M196.4,86c-1-1.1-1.4-2.4-1.4-4s0.5-2.9,1.4-4c1-1.1,2.3-1.6,3.9-1.6c1.6,0,2.9,0.5,3.9,1.6s1.5,2.4,1.5,4
					s-0.5,2.9-1.5,4c-1,1.1-2.3,1.6-3.9,1.6C198.7,87.6,197.4,87,196.4,86z M198.1,79.4c-0.5,0.7-0.8,1.6-0.8,2.5s0.3,1.8,0.8,2.5
					c0.5,0.7,1.2,1.1,2.2,1.1c0.9,0,1.7-0.4,2.2-1.1c0.5-0.7,0.8-1.6,0.8-2.5s-0.3-1.8-0.8-2.5c-0.5-0.7-1.2-1.1-2.2-1.1
					C199.4,78.4,198.6,78.7,198.1,79.4z"/>
				<path class="st5" d="M207.5,78.6v-2h1.4V76c0-1.3,0.3-2.2,1-2.9c0.6-0.6,1.5-1,2.7-1c0.7,0,1.3,0.1,1.8,0.4l-0.5,1.9
					c-0.4-0.2-0.8-0.3-1.3-0.3c-1,0-1.5,0.6-1.5,1.7v0.7h2.4v2h-2.4v8.8h-2.2v-8.8H207.5z"/>
				<path class="st5" d="M220.4,78.6v-2h1.8v-3l2.2-1.4v4.4h2.8v2h-2.8v5.3c0,1.2,0.5,1.8,1.4,1.8c0.4,0,0.7-0.1,1-0.3l0.6,1.9
					c-0.5,0.3-1.1,0.4-1.7,0.4c-1.1,0-1.9-0.3-2.6-1c-0.6-0.7-1-1.6-1-2.9v-5.2H220.4z"/>
				<path class="st5" d="M230.1,72.2h2.2v6.2c0.9-1.3,2.1-2,3.7-2c1,0,1.8,0.3,2.4,0.8s0.8,1.4,0.8,2.5v7.6H237v-7
					c0-0.8-0.1-1.3-0.4-1.6c-0.3-0.3-0.7-0.4-1.3-0.4c-0.7,0-1.3,0.4-2,1.2c-0.6,0.8-0.9,1.9-0.9,3.2v4.6h-2.2V72.2z"/>
				<path class="st5" d="M252,81.6v1h-7.7c0,0.8,0.2,1.6,0.7,2.1c0.5,0.6,1.1,0.9,2,0.9c0.6,0,1.2-0.2,1.7-0.5
					c0.5-0.3,0.9-0.8,1.2-1.3l1.9,0.8c-0.5,1.1-1.2,1.8-1.9,2.3c-0.7,0.5-1.7,0.7-2.9,0.7c-0.9,0-1.6-0.2-2.3-0.5s-1.2-0.8-1.6-1.3
					c-0.4-0.6-0.7-1.1-0.9-1.8c-0.2-0.6-0.3-1.3-0.3-2c0-0.7,0.1-1.3,0.3-2c0.2-0.6,0.5-1.2,0.9-1.8c0.4-0.6,0.9-1,1.6-1.3
					c0.7-0.3,1.4-0.5,2.3-0.5c0.8,0,1.6,0.2,2.2,0.5c0.7,0.3,1.2,0.7,1.6,1.2s0.7,1.1,0.9,1.7C251.9,80.4,252,81,252,81.6z
					 M247,78.4c-0.7,0-1.3,0.2-1.8,0.7s-0.8,1-0.9,1.7h5.3c-0.1-0.7-0.4-1.2-0.8-1.7C248.3,78.6,247.7,78.4,247,78.4z"/>
				<path class="st5" d="M260.2,74.6c-0.3-0.3-0.4-0.7-0.4-1.1s0.2-0.8,0.5-1.1c0.3-0.3,0.7-0.5,1.1-0.5c0.4,0,0.8,0.2,1.1,0.5
					c0.3,0.3,0.5,0.7,0.5,1.1s-0.1,0.8-0.4,1.1c-0.3,0.3-0.7,0.4-1.1,0.4C260.8,75.1,260.5,74.9,260.2,74.6z M260.2,76.6h2.2v10.8
					h-2.2V76.6z"/>
				<path class="st5" d="M266,76.6h2.2v1.8c0.4-0.6,0.9-1.1,1.5-1.5c0.6-0.4,1.3-0.5,2-0.5c1,0,1.7,0.3,2.3,0.8
					c0.6,0.6,0.9,1.4,0.9,2.4v7.8h-2.2v-7c0-1.3-0.6-2-1.7-2c-0.7,0-1.4,0.4-1.9,1.3c-0.6,0.8-0.8,2-0.8,3.4v4.4H266V76.6z"/>
				<path class="st5" d="M278.5,80c0-1.1,0.4-2,1.1-2.6c0.7-0.7,1.7-1,2.8-1c0.7,0,1.4,0.2,2,0.5l2-1.1l0.9,1.6l-1.5,0.8
					c0.3,0.5,0.5,1.1,0.5,1.8c0,1.1-0.4,2-1.1,2.7s-1.7,1-2.8,1c-0.6,0-1.2-0.1-1.7-0.3c-0.4,0.2-0.6,0.5-0.6,0.9
					c0,0.6,0.4,0.8,1.1,0.8h2.4c1.1,0,2,0.3,2.6,0.8c0.7,0.5,1,1.3,1,2.3c0,1.3-0.5,2.2-1.4,2.8c-0.9,0.6-2,0.9-3.4,0.9
					c-1.4,0-2.6-0.3-3.4-0.9c-0.9-0.6-1.3-1.5-1.3-2.6c0-0.9,0.3-1.6,0.9-2.2c-0.4-0.4-0.6-1-0.6-1.7c0-1,0.4-1.7,1.3-2.2
					C278.7,81.7,278.5,81,278.5,80z M283.1,87h-1.7c-0.4,0-0.8,0-1.1-0.1c-0.3,0.3-0.5,0.8-0.5,1.3c0,0.5,0.2,1,0.7,1.3
					c0.5,0.3,1.1,0.5,1.9,0.5c0.8,0,1.4-0.1,1.8-0.4c0.4-0.3,0.7-0.7,0.7-1.2C284.8,87.5,284.2,87,283.1,87z M281.1,78.8
					c-0.3,0.3-0.5,0.7-0.5,1.3c0,0.5,0.2,1,0.5,1.3c0.3,0.3,0.7,0.5,1.2,0.5c0.5,0,0.9-0.2,1.2-0.5c0.3-0.3,0.5-0.7,0.5-1.3
					c0-0.5-0.2-1-0.5-1.3c-0.3-0.3-0.7-0.5-1.2-0.5C281.8,78.3,281.4,78.4,281.1,78.8z"/>
				<path class="st5" d="M291.7,87.4h-2.2V76.6h2.2v1.8c0.4-0.6,0.8-1.1,1.4-1.5c0.6-0.3,1.2-0.5,1.8-0.5c0.5,0,0.9,0.1,1.4,0.3
					l-0.4,2c-0.3-0.2-0.8-0.3-1.3-0.3c-0.8,0-1.5,0.4-2.1,1.3s-0.9,2.1-0.9,3.7V87.4z"/>
				<path class="st5" d="M307.6,81.6v1H300c0,0.8,0.2,1.6,0.7,2.1c0.5,0.6,1.1,0.9,2,0.9c0.6,0,1.2-0.2,1.7-0.5
					c0.5-0.3,0.9-0.8,1.2-1.3l1.9,0.8c-0.5,1.1-1.2,1.8-1.9,2.3c-0.7,0.5-1.7,0.7-2.9,0.7c-0.9,0-1.6-0.2-2.3-0.5s-1.2-0.8-1.6-1.3
					c-0.4-0.6-0.7-1.1-0.9-1.8c-0.2-0.6-0.3-1.3-0.3-2c0-0.7,0.1-1.3,0.3-2c0.2-0.6,0.5-1.2,0.9-1.8c0.4-0.6,0.9-1,1.6-1.3
					c0.7-0.3,1.4-0.5,2.3-0.5c0.8,0,1.6,0.2,2.2,0.5c0.7,0.3,1.2,0.7,1.6,1.2s0.7,1.1,0.9,1.7C307.5,80.4,307.6,81,307.6,81.6z
					 M302.6,78.4c-0.7,0-1.3,0.2-1.8,0.7s-0.8,1-0.9,1.7h5.3c-0.1-0.7-0.4-1.2-0.8-1.7C304,78.6,303.4,78.4,302.6,78.4z"/>
				<path class="st5" d="M309.6,82c0-1.7,0.4-3.1,1.2-4.1c0.8-1,2-1.5,3.6-1.5c0.5,0,1.1,0.1,1.7,0.4c0.6,0.3,1,0.6,1.2,1v-5.6h2.2
					v15.2h-2.2v-1.2c-0.2,0.4-0.6,0.7-1.1,1c-0.6,0.3-1.2,0.4-1.8,0.4c-1.6,0-2.8-0.5-3.6-1.5C310,85.1,309.6,83.8,309.6,82z
					 M312.7,79.4c-0.5,0.7-0.8,1.5-0.8,2.6s0.3,2,0.8,2.6c0.5,0.7,1.2,1,2,1s1.5-0.3,2-1c0.5-0.7,0.8-1.5,0.8-2.6s-0.3-2-0.8-2.6
					s-1.2-1-2-1S313.3,78.7,312.7,79.4z"/>
				<path class="st5" d="M323.2,74.6c-0.3-0.3-0.4-0.7-0.4-1.1s0.2-0.8,0.5-1.1c0.3-0.3,0.7-0.5,1.1-0.5c0.4,0,0.8,0.2,1.1,0.5
					c0.3,0.3,0.5,0.7,0.5,1.1s-0.1,0.8-0.4,1.1c-0.3,0.3-0.7,0.4-1.1,0.4C323.9,75.1,323.5,74.9,323.2,74.6z M323.2,76.6h2.2v10.8
					h-2.2V76.6z"/>
				<path class="st5" d="M338.3,81.6v1h-7.7c0,0.8,0.2,1.6,0.7,2.1c0.5,0.6,1.1,0.9,2,0.9c0.6,0,1.2-0.2,1.7-0.5
					c0.5-0.3,0.9-0.8,1.2-1.3l1.9,0.8c-0.5,1.1-1.2,1.8-1.9,2.3c-0.7,0.5-1.7,0.7-2.9,0.7c-0.9,0-1.6-0.2-2.3-0.5s-1.2-0.8-1.6-1.3
					c-0.4-0.6-0.7-1.1-0.9-1.8c-0.2-0.6-0.3-1.3-0.3-2c0-0.7,0.1-1.3,0.3-2c0.2-0.6,0.5-1.2,0.9-1.8c0.4-0.6,0.9-1,1.6-1.3
					c0.7-0.3,1.4-0.5,2.3-0.5c0.8,0,1.6,0.2,2.2,0.5c0.7,0.3,1.2,0.7,1.6,1.2s0.7,1.1,0.9,1.7C338.2,80.4,338.3,81,338.3,81.6z
					 M333.3,78.4c-0.7,0-1.3,0.2-1.8,0.7s-0.8,1-0.9,1.7h5.3c-0.1-0.7-0.4-1.2-0.8-1.7C334.6,78.6,334,78.4,333.3,78.4z"/>
				<path class="st5" d="M341,76.6h2.2v1.8c0.4-0.6,0.9-1.1,1.5-1.5c0.6-0.4,1.3-0.5,2-0.5c1,0,1.7,0.3,2.3,0.8
					c0.6,0.6,0.9,1.4,0.9,2.4v7.8h-2.2v-7c0-1.3-0.6-2-1.7-2c-0.7,0-1.4,0.4-1.9,1.3c-0.6,0.8-0.8,2-0.8,3.4v4.4H341V76.6z"/>
				<path class="st5" d="M352.1,78.6v-2h1.8v-3l2.2-1.4v4.4h2.8v2h-2.8v5.3c0,1.2,0.5,1.8,1.4,1.8c0.4,0,0.7-0.1,1-0.3l0.6,1.9
					c-0.5,0.3-1.1,0.4-1.7,0.4c-1.1,0-1.9-0.3-2.6-1c-0.6-0.7-1-1.6-1-2.9v-5.2H352.1z"/>
				<path class="st5" d="M364.9,76.4c0.7,0,1.3,0.2,1.8,0.5c0.6,0.3,1,0.7,1.4,1.3l-1.4,1.2c-0.5-0.7-1.1-1-1.9-1
					c-0.3,0-0.6,0.1-0.8,0.3s-0.3,0.5-0.3,0.8s0.2,0.6,0.5,0.8s0.8,0.5,1.5,0.7c0.4,0.1,0.7,0.3,0.9,0.4c0.2,0.1,0.5,0.2,0.8,0.4
					c0.3,0.2,0.5,0.4,0.7,0.6c0.2,0.2,0.3,0.4,0.4,0.8s0.2,0.6,0.2,1c0,1-0.3,1.8-1,2.4c-0.7,0.7-1.6,1-2.7,1c-1,0-1.9-0.3-2.6-0.9
					c-0.7-0.6-1.2-1.3-1.6-2l1.9-1c0.6,1.3,1.4,2,2.4,2c1,0,1.5-0.5,1.5-1.4c0-0.2,0-0.3-0.1-0.5s-0.2-0.3-0.4-0.4
					c-0.2-0.1-0.4-0.2-0.5-0.3c-0.2-0.1-0.4-0.2-0.7-0.3c-0.3-0.1-0.6-0.2-0.7-0.3c-1.5-0.6-2.3-1.6-2.3-3c0-0.9,0.3-1.6,0.9-2.2
					C363.2,76.7,364,76.4,364.9,76.4z"/>
				<path class="st5" d="M388.3,76.6h2.4l-3.4,10.8h-2l-2-7.6l-2,7.6h-2l-3.4-10.8h2.4l2.1,7.9l1.9-7.9h2.1l1.9,7.9L388.3,76.6z"/>
				<path class="st5" d="M402.4,81.6v1h-7.7c0,0.8,0.2,1.6,0.7,2.1c0.5,0.6,1.1,0.9,2,0.9c0.6,0,1.2-0.2,1.7-0.5
					c0.5-0.3,0.9-0.8,1.2-1.3l1.9,0.8c-0.5,1.1-1.2,1.8-1.9,2.3c-0.7,0.5-1.7,0.7-2.9,0.7c-0.9,0-1.6-0.2-2.3-0.5s-1.2-0.8-1.6-1.3
					c-0.4-0.6-0.7-1.1-0.9-1.8c-0.2-0.6-0.3-1.3-0.3-2c0-0.7,0.1-1.3,0.3-2c0.2-0.6,0.5-1.2,0.9-1.8c0.4-0.6,0.9-1,1.6-1.3
					c0.7-0.3,1.4-0.5,2.3-0.5c0.8,0,1.6,0.2,2.2,0.5c0.7,0.3,1.2,0.7,1.6,1.2s0.7,1.1,0.9,1.7C402.3,80.4,402.4,81,402.4,81.6z
					 M397.4,78.4c-0.7,0-1.3,0.2-1.8,0.7s-0.8,1-0.9,1.7h5.3c-0.1-0.7-0.4-1.2-0.8-1.7C398.8,78.6,398.2,78.4,397.4,78.4z"/>
				<path class="st5" d="M419.5,87.4h-2.2v-1.8c-0.4,0.6-0.9,1.1-1.5,1.5c-0.6,0.4-1.3,0.5-2,0.5c-1,0-1.7-0.3-2.3-0.8
					c-0.6-0.6-0.9-1.4-0.9-2.4v-7.8h2.2v7c0,1.3,0.6,2,1.7,2c0.7,0,1.4-0.4,1.9-1.3c0.6-0.8,0.8-2,0.8-3.4v-4.4h2.2V87.4z"/>
				<path class="st5" d="M426.3,76.4c0.7,0,1.3,0.2,1.8,0.5c0.6,0.3,1,0.7,1.4,1.3l-1.4,1.2c-0.5-0.7-1.1-1-1.9-1
					c-0.3,0-0.6,0.1-0.8,0.3s-0.3,0.5-0.3,0.8s0.2,0.6,0.5,0.8s0.8,0.5,1.5,0.7c0.4,0.1,0.7,0.3,0.9,0.4c0.2,0.1,0.5,0.2,0.8,0.4
					c0.3,0.2,0.5,0.4,0.7,0.6c0.2,0.2,0.3,0.4,0.4,0.8s0.2,0.6,0.2,1c0,1-0.3,1.8-1,2.4c-0.7,0.7-1.6,1-2.7,1c-1,0-1.9-0.3-2.6-0.9
					c-0.7-0.6-1.2-1.3-1.6-2l1.9-1c0.6,1.3,1.4,2,2.4,2c1,0,1.5-0.5,1.5-1.4c0-0.2,0-0.3-0.1-0.5s-0.2-0.3-0.4-0.4
					c-0.2-0.1-0.4-0.2-0.5-0.3c-0.2-0.1-0.4-0.2-0.7-0.3c-0.3-0.1-0.6-0.2-0.7-0.3c-1.5-0.6-2.3-1.6-2.3-3c0-0.9,0.3-1.6,0.9-2.2
					C424.6,76.7,425.4,76.4,426.3,76.4z"/>
				<path class="st5" d="M442.1,81.6v1h-7.7c0,0.8,0.2,1.6,0.7,2.1c0.5,0.6,1.1,0.9,2,0.9c0.6,0,1.2-0.2,1.7-0.5
					c0.5-0.3,0.9-0.8,1.2-1.3l1.9,0.8c-0.5,1.1-1.2,1.8-1.9,2.3c-0.7,0.5-1.7,0.7-2.9,0.7c-0.9,0-1.6-0.2-2.3-0.5s-1.2-0.8-1.6-1.3
					c-0.4-0.6-0.7-1.1-0.9-1.8c-0.2-0.6-0.3-1.3-0.3-2c0-0.7,0.1-1.3,0.3-2c0.2-0.6,0.5-1.2,0.9-1.8c0.4-0.6,0.9-1,1.6-1.3
					c0.7-0.3,1.4-0.5,2.3-0.5c0.8,0,1.6,0.2,2.2,0.5c0.7,0.3,1.2,0.7,1.6,1.2s0.7,1.1,0.9,1.7C442,80.4,442.1,81,442.1,81.6z
					 M437.1,78.4c-0.7,0-1.3,0.2-1.8,0.7s-0.8,1-0.9,1.7h5.3c-0.1-0.7-0.4-1.2-0.8-1.7C438.4,78.6,437.8,78.4,437.1,78.4z"/>
				<path class="st5" d="M164.2,110.1c0-1.1,0.4-2,1.3-2.6c0.9-0.6,2-0.9,3.4-0.9h1.9v-0.5c0-0.6-0.2-1.1-0.6-1.4
					c-0.4-0.3-0.9-0.5-1.5-0.5c-1,0-1.7,0.5-2,1.4l-2-0.4c0.2-0.9,0.7-1.6,1.4-2.2c0.7-0.5,1.6-0.8,2.6-0.8c2.9,0,4.3,1.4,4.3,4.3
					v6.7h-1.9l-0.2-1.4c-0.8,1.1-1.9,1.6-3.4,1.6c-1,0-1.8-0.3-2.4-0.8C164.5,112,164.2,111.1,164.2,110.1z M166.5,110.1
					c0,0.4,0.1,0.7,0.3,0.9c0.2,0.2,0.6,0.4,1,0.4c0.8,0,1.4-0.2,2-0.7c0.6-0.5,0.8-1.2,0.8-2v-0.2h-2c-0.7,0-1.2,0.2-1.6,0.5
					C166.7,109.1,166.5,109.6,166.5,110.1z"/>
				<path class="st5" d="M178.4,113.2h-2.2v-10.8h2.2v1.8c0.4-0.6,0.8-1.1,1.4-1.5c0.6-0.3,1.2-0.5,1.8-0.5c0.5,0,0.9,0.1,1.4,0.3
					l-0.4,2c-0.3-0.2-0.8-0.3-1.3-0.3c-0.8,0-1.5,0.4-2.1,1.3s-0.9,2.1-0.9,3.7V113.2z"/>
				<path class="st5" d="M194.3,107.4v1h-7.7c0,0.8,0.2,1.6,0.7,2.1c0.5,0.6,1.1,0.9,2,0.9c0.6,0,1.2-0.2,1.7-0.5
					c0.5-0.3,0.9-0.8,1.2-1.3l1.9,0.8c-0.5,1.1-1.2,1.8-1.9,2.3c-0.7,0.5-1.7,0.7-2.9,0.7c-0.9,0-1.6-0.2-2.3-0.5s-1.2-0.8-1.6-1.3
					c-0.4-0.6-0.7-1.1-0.9-1.8c-0.2-0.6-0.3-1.3-0.3-2c0-0.7,0.1-1.3,0.3-2c0.2-0.6,0.5-1.2,0.9-1.8c0.4-0.6,0.9-1,1.6-1.3
					c0.7-0.3,1.4-0.5,2.3-0.5c0.8,0,1.6,0.2,2.2,0.5c0.7,0.3,1.2,0.7,1.6,1.2s0.7,1.1,0.9,1.7C194.2,106.2,194.3,106.8,194.3,107.4z
					 M189.3,104.2c-0.7,0-1.3,0.2-1.8,0.7s-0.8,1-0.9,1.7h5.3c-0.1-0.7-0.4-1.2-0.8-1.7C190.7,104.4,190.1,104.2,189.3,104.2z"/>
				<path class="st5" d="M201.7,110.1c0-1.1,0.4-2,1.3-2.6c0.9-0.6,2-0.9,3.4-0.9h1.9v-0.5c0-0.6-0.2-1.1-0.6-1.4
					c-0.4-0.3-0.9-0.5-1.5-0.5c-1,0-1.7,0.5-2,1.4l-2-0.4c0.2-0.9,0.7-1.6,1.4-2.2c0.7-0.5,1.6-0.8,2.6-0.8c2.9,0,4.3,1.4,4.3,4.3
					v6.7h-1.9l-0.2-1.4c-0.8,1.1-1.9,1.6-3.4,1.6c-1,0-1.8-0.3-2.4-0.8C202,112,201.7,111.1,201.7,110.1z M204.1,110.1
					c0,0.4,0.1,0.7,0.3,0.9c0.2,0.2,0.6,0.4,1,0.4c0.8,0,1.4-0.2,2-0.7c0.6-0.5,0.8-1.2,0.8-2v-0.2h-2c-0.7,0-1.2,0.2-1.6,0.5
					C204.3,109.1,204.1,109.6,204.1,110.1z"/>
				<path class="st5" d="M213.6,98h2.2v15.2h-2.2V98z"/>
				<path class="st5" d="M221.7,113.2h-2.2v-10.8h2.2v1.8c0.4-0.6,0.8-1.1,1.4-1.5c0.6-0.3,1.2-0.5,1.8-0.5c0.5,0,0.9,0.1,1.4,0.3
					l-0.4,2c-0.3-0.2-0.8-0.3-1.3-0.3c-0.8,0-1.5,0.4-2.1,1.3s-0.9,2.1-0.9,3.7V113.2z"/>
				<path class="st5" d="M237.7,107.4v1H230c0,0.8,0.2,1.6,0.7,2.1c0.5,0.6,1.1,0.9,2,0.9c0.6,0,1.2-0.2,1.7-0.5
					c0.5-0.3,0.9-0.8,1.2-1.3l1.9,0.8c-0.5,1.1-1.2,1.8-1.9,2.3c-0.7,0.5-1.7,0.7-2.9,0.7c-0.9,0-1.6-0.2-2.3-0.5s-1.2-0.8-1.6-1.3
					c-0.4-0.6-0.7-1.1-0.9-1.8c-0.2-0.6-0.3-1.3-0.3-2c0-0.7,0.1-1.3,0.3-2c0.2-0.6,0.5-1.2,0.9-1.8c0.4-0.6,0.9-1,1.6-1.3
					c0.7-0.3,1.4-0.5,2.3-0.5c0.8,0,1.6,0.2,2.2,0.5c0.7,0.3,1.2,0.7,1.6,1.2s0.7,1.1,0.9,1.7C237.6,106.2,237.7,106.8,237.7,107.4z
					 M232.7,104.2c-0.7,0-1.3,0.2-1.8,0.7s-0.8,1-0.9,1.7h5.3c-0.1-0.7-0.4-1.2-0.8-1.7C234.1,104.4,233.5,104.2,232.7,104.2z"/>
				<path class="st5" d="M239.6,110.1c0-1.1,0.4-2,1.3-2.6c0.9-0.6,2-0.9,3.4-0.9h1.9v-0.5c0-0.6-0.2-1.1-0.6-1.4
					c-0.4-0.3-0.9-0.5-1.5-0.5c-1,0-1.7,0.5-2,1.4l-2-0.4c0.2-0.9,0.7-1.6,1.4-2.2c0.7-0.5,1.6-0.8,2.6-0.8c2.9,0,4.3,1.4,4.3,4.3
					v6.7h-1.9l-0.2-1.4c-0.8,1.1-1.9,1.6-3.4,1.6c-1,0-1.8-0.3-2.4-0.8C239.9,112,239.6,111.1,239.6,110.1z M241.9,110.1
					c0,0.4,0.1,0.7,0.3,0.9c0.2,0.2,0.6,0.4,1,0.4c0.8,0,1.4-0.2,2-0.7c0.6-0.5,0.8-1.2,0.8-2v-0.2h-2c-0.7,0-1.2,0.2-1.6,0.5
					C242.1,109.1,241.9,109.6,241.9,110.1z"/>
				<path class="st5" d="M250.7,107.8c0-1.7,0.4-3.1,1.2-4.1c0.8-1,2-1.5,3.6-1.5c0.5,0,1.1,0.1,1.7,0.4c0.6,0.3,1,0.6,1.2,1V98h2.2
					v15.2h-2.2v-1.2c-0.2,0.4-0.6,0.7-1.1,1c-0.6,0.3-1.2,0.4-1.8,0.4c-1.6,0-2.8-0.5-3.6-1.5C251.1,110.9,250.7,109.5,250.7,107.8z
					 M253.8,105.1c-0.5,0.7-0.8,1.5-0.8,2.6s0.3,2,0.8,2.6c0.5,0.7,1.2,1,2,1s1.5-0.3,2-1c0.5-0.7,0.8-1.5,0.8-2.6s-0.3-2-0.8-2.6
					s-1.2-1-2-1S254.4,104.5,253.8,105.1z"/>
				<path class="st5" d="M262.7,102.4h2.4l2.6,7.3l2.5-7.3h2.4l-5.5,15.2h-2.2l1.8-4.9L262.7,102.4z"/>
				<path class="st5" d="M287,109.5l2,0.9c-0.9,2-2.4,3-4.7,3c-1.6,0-2.9-0.5-3.8-1.6c-0.9-1.1-1.3-2.4-1.3-4s0.4-2.9,1.3-4
					c0.9-1.1,2.1-1.6,3.8-1.6c2.2,0,3.8,1,4.7,3l-2,0.9c-0.6-1.2-1.5-1.9-2.7-1.9c-0.9,0-1.6,0.3-2.1,1c-0.5,0.7-0.7,1.5-0.7,2.6
					c0,1.1,0.2,2,0.7,2.6c0.5,0.7,1.1,1,2.1,1C285.6,111.4,286.4,110.8,287,109.5z"/>
				<path class="st5" d="M300.9,107.4v1h-7.7c0,0.8,0.2,1.6,0.7,2.1c0.5,0.6,1.1,0.9,2,0.9c0.6,0,1.2-0.2,1.7-0.5
					c0.5-0.3,0.9-0.8,1.2-1.3l1.9,0.8c-0.5,1.1-1.2,1.8-1.9,2.3c-0.7,0.5-1.7,0.7-2.9,0.7c-0.9,0-1.6-0.2-2.3-0.5s-1.2-0.8-1.6-1.3
					c-0.4-0.6-0.7-1.1-0.9-1.8c-0.2-0.6-0.3-1.3-0.3-2c0-0.7,0.1-1.3,0.3-2c0.2-0.6,0.5-1.2,0.9-1.8c0.4-0.6,0.9-1,1.6-1.3
					c0.7-0.3,1.4-0.5,2.3-0.5c0.8,0,1.6,0.2,2.2,0.5c0.7,0.3,1.2,0.7,1.6,1.2s0.7,1.1,0.9,1.7C300.8,106.2,300.9,106.8,300.9,107.4z
					 M295.9,104.2c-0.7,0-1.3,0.2-1.8,0.7s-0.8,1-0.9,1.7h5.3c-0.1-0.7-0.4-1.2-0.8-1.7C297.3,104.4,296.7,104.2,295.9,104.2z"/>
				<path class="st5" d="M305.9,113.2h-2.2v-10.8h2.2v1.8c0.4-0.6,0.8-1.1,1.4-1.5c0.6-0.3,1.2-0.5,1.8-0.5c0.5,0,0.9,0.1,1.4,0.3
					l-0.4,2c-0.3-0.2-0.8-0.3-1.3-0.3c-0.8,0-1.5,0.4-2.1,1.3s-0.9,2.1-0.9,3.7V113.2z"/>
				<path class="st5" d="M311.2,104.3v-2h1.8v-3l2.2-1.4v4.4h2.8v2h-2.8v5.3c0,1.2,0.5,1.8,1.4,1.8c0.4,0,0.7-0.1,1-0.3l0.6,1.9
					c-0.5,0.3-1.1,0.4-1.7,0.4c-1.1,0-1.9-0.3-2.6-1c-0.6-0.7-1-1.6-1-2.9v-5.2H311.2z"/>
				<path class="st5" d="M320.8,100.4c-0.3-0.3-0.4-0.7-0.4-1.1s0.2-0.8,0.5-1.1c0.3-0.3,0.7-0.5,1.1-0.5c0.4,0,0.8,0.2,1.1,0.5
					c0.3,0.3,0.5,0.7,0.5,1.1s-0.1,0.8-0.4,1.1c-0.3,0.3-0.7,0.4-1.1,0.4C321.5,100.8,321.1,100.7,320.8,100.4z M320.8,102.4h2.2
					v10.8h-2.2V102.4z"/>
				<path class="st5" d="M325.6,104.3v-2h1.4v-0.6c0-1.3,0.3-2.2,1-2.9c0.6-0.6,1.5-1,2.7-1c0.7,0,1.3,0.1,1.8,0.4l-0.5,1.9
					c-0.4-0.2-0.8-0.3-1.3-0.3c-1,0-1.5,0.6-1.5,1.7v0.7h2.4v2h-2.4v8.8H327v-8.8H325.6z"/>
				<path class="st5" d="M343.6,107.4v1H336c0,0.8,0.2,1.6,0.7,2.1c0.5,0.6,1.1,0.9,2,0.9c0.6,0,1.2-0.2,1.7-0.5
					c0.5-0.3,0.9-0.8,1.2-1.3l1.9,0.8c-0.5,1.1-1.2,1.8-1.9,2.3c-0.7,0.5-1.7,0.7-2.9,0.7c-0.9,0-1.6-0.2-2.3-0.5s-1.2-0.8-1.6-1.3
					c-0.4-0.6-0.7-1.1-0.9-1.8c-0.2-0.6-0.3-1.3-0.3-2c0-0.7,0.1-1.3,0.3-2c0.2-0.6,0.5-1.2,0.9-1.8c0.4-0.6,0.9-1,1.6-1.3
					c0.7-0.3,1.4-0.5,2.3-0.5c0.8,0,1.6,0.2,2.2,0.5c0.7,0.3,1.2,0.7,1.6,1.2s0.7,1.1,0.9,1.7C343.5,106.2,343.6,106.8,343.6,107.4z
					 M338.6,104.2c-0.7,0-1.3,0.2-1.8,0.7s-0.8,1-0.9,1.7h5.3c-0.1-0.7-0.4-1.2-0.8-1.7C340,104.4,339.4,104.2,338.6,104.2z"/>
				<path class="st5" d="M345.6,107.8c0-1.7,0.4-3.1,1.2-4.1c0.8-1,2-1.5,3.6-1.5c0.5,0,1.1,0.1,1.7,0.4c0.6,0.3,1,0.6,1.2,1V98h2.2
					v15.2h-2.2v-1.2c-0.2,0.4-0.6,0.7-1.1,1c-0.6,0.3-1.2,0.4-1.8,0.4c-1.6,0-2.8-0.5-3.6-1.5C346,110.9,345.6,109.5,345.6,107.8z
					 M348.7,105.1c-0.5,0.7-0.8,1.5-0.8,2.6s0.3,2,0.8,2.6c0.5,0.7,1.2,1,2,1s1.5-0.3,2-1c0.5-0.7,0.8-1.5,0.8-2.6s-0.3-2-0.8-2.6
					s-1.2-1-2-1S349.3,104.5,348.7,105.1z"/>
				<path class="st5" d="M363.9,110.1c0-1.1,0.4-2,1.3-2.6c0.9-0.6,2-0.9,3.4-0.9h1.9v-0.5c0-0.6-0.2-1.1-0.6-1.4
					c-0.4-0.3-0.9-0.5-1.5-0.5c-1,0-1.7,0.5-2,1.4l-2-0.4c0.2-0.9,0.7-1.6,1.4-2.2c0.7-0.5,1.6-0.8,2.6-0.8c2.9,0,4.3,1.4,4.3,4.3
					v6.7h-1.9l-0.2-1.4c-0.8,1.1-1.9,1.6-3.4,1.6c-1,0-1.8-0.3-2.4-0.8C364.3,112,363.9,111.1,363.9,110.1z M366.3,110.1
					c0,0.4,0.1,0.7,0.3,0.9c0.2,0.2,0.6,0.4,1,0.4c0.8,0,1.4-0.2,2-0.7c0.6-0.5,0.8-1.2,0.8-2v-0.2h-2c-0.7,0-1.2,0.2-1.6,0.5
					C366.5,109.1,366.3,109.6,366.3,110.1z"/>
				<path class="st5" d="M375.9,102.4h2.2v1.8c0.4-0.6,0.9-1.1,1.5-1.5c0.6-0.4,1.3-0.5,2-0.5c1,0,1.7,0.3,2.3,0.8
					c0.6,0.6,0.9,1.4,0.9,2.4v7.8h-2.2v-7c0-1.3-0.6-2-1.7-2c-0.7,0-1.4,0.4-1.9,1.3c-0.6,0.8-0.8,2-0.8,3.4v4.4h-2.2V102.4z"/>
				<path class="st5" d="M387.6,107.8c0-1.7,0.4-3.1,1.2-4.1c0.8-1,2-1.5,3.6-1.5c0.5,0,1.1,0.1,1.7,0.4c0.6,0.3,1,0.6,1.2,1V98h2.2
					v15.2h-2.2v-1.2c-0.2,0.4-0.6,0.7-1.1,1c-0.6,0.3-1.2,0.4-1.8,0.4c-1.6,0-2.8-0.5-3.6-1.5C388,110.9,387.6,109.5,387.6,107.8z
					 M390.7,105.1c-0.5,0.7-0.8,1.5-0.8,2.6s0.3,2,0.8,2.6c0.5,0.7,1.2,1,2,1s1.5-0.3,2-1c0.5-0.7,0.8-1.5,0.8-2.6s-0.3-2-0.8-2.6
					s-1.2-1-2-1S391.2,104.5,390.7,105.1z"/>
				<path class="st5" d="M410,102.2c0.7,0,1.3,0.2,1.8,0.5c0.6,0.3,1,0.7,1.4,1.3l-1.4,1.2c-0.5-0.7-1.1-1-1.9-1
					c-0.3,0-0.6,0.1-0.8,0.3s-0.3,0.5-0.3,0.8s0.2,0.6,0.5,0.8s0.8,0.5,1.5,0.7c0.4,0.1,0.7,0.3,0.9,0.4c0.2,0.1,0.5,0.2,0.8,0.4
					c0.3,0.2,0.5,0.4,0.7,0.6c0.2,0.2,0.3,0.4,0.4,0.8s0.2,0.6,0.2,1c0,1-0.3,1.8-1,2.4c-0.7,0.7-1.6,1-2.7,1c-1,0-1.9-0.3-2.6-0.9
					c-0.7-0.6-1.2-1.3-1.6-2l1.9-1c0.6,1.3,1.4,2,2.4,2c1,0,1.5-0.5,1.5-1.4c0-0.2,0-0.3-0.1-0.5s-0.2-0.3-0.4-0.4
					c-0.2-0.1-0.4-0.2-0.5-0.3c-0.2-0.1-0.4-0.2-0.7-0.3c-0.3-0.1-0.6-0.2-0.7-0.3c-1.5-0.6-2.3-1.6-2.3-3c0-0.9,0.3-1.6,0.9-2.2
					C408.2,102.5,409,102.2,410,102.2z"/>
				<path class="st5" d="M415.6,110.1c0-1.1,0.4-2,1.3-2.6c0.9-0.6,2-0.9,3.4-0.9h1.9v-0.5c0-0.6-0.2-1.1-0.6-1.4
					c-0.4-0.3-0.9-0.5-1.5-0.5c-1,0-1.7,0.5-2,1.4l-2-0.4c0.2-0.9,0.7-1.6,1.4-2.2c0.7-0.5,1.6-0.8,2.6-0.8c2.9,0,4.3,1.4,4.3,4.3
					v6.7h-1.9l-0.2-1.4c-0.8,1.1-1.9,1.6-3.4,1.6c-1,0-1.8-0.3-2.4-0.8C415.9,112,415.6,111.1,415.6,110.1z M417.9,110.1
					c0,0.4,0.1,0.7,0.3,0.9c0.2,0.2,0.6,0.4,1,0.4c0.8,0,1.4-0.2,2-0.7c0.6-0.5,0.8-1.2,0.8-2v-0.2h-2c-0.7,0-1.2,0.2-1.6,0.5
					C418.1,109.1,417.9,109.6,417.9,110.1z"/>
				<path class="st5" d="M426.5,104.3v-2h1.4v-0.6c0-1.3,0.3-2.2,1-2.9c0.6-0.6,1.5-1,2.7-1c0.7,0,1.3,0.1,1.8,0.4l-0.5,1.9
					c-0.4-0.2-0.8-0.3-1.3-0.3c-1,0-1.5,0.6-1.5,1.7v0.7h2.4v2h-2.4v8.8h-2.2v-8.8H426.5z"/>
				<path class="st5" d="M444.5,107.4v1h-7.7c0,0.8,0.2,1.6,0.7,2.1c0.5,0.6,1.1,0.9,2,0.9c0.6,0,1.2-0.2,1.7-0.5
					c0.5-0.3,0.9-0.8,1.2-1.3l1.9,0.8c-0.5,1.1-1.2,1.8-1.9,2.3c-0.7,0.5-1.7,0.7-2.9,0.7c-0.9,0-1.6-0.2-2.3-0.5s-1.2-0.8-1.6-1.3
					c-0.4-0.6-0.7-1.1-0.9-1.8c-0.2-0.6-0.3-1.3-0.3-2c0-0.7,0.1-1.3,0.3-2c0.2-0.6,0.5-1.2,0.9-1.8c0.4-0.6,0.9-1,1.6-1.3
					c0.7-0.3,1.4-0.5,2.3-0.5c0.8,0,1.6,0.2,2.2,0.5c0.7,0.3,1.2,0.7,1.6,1.2s0.7,1.1,0.9,1.7C444.4,106.2,444.5,106.8,444.5,107.4z
					 M439.5,104.2c-0.7,0-1.3,0.2-1.8,0.7s-0.8,1-0.9,1.7h5.3c-0.1-0.7-0.4-1.2-0.8-1.7C440.9,104.4,440.3,104.2,439.5,104.2z"/>
			</g>
		</g>
		<g>
			<g>
				<g>
					<path class="st5" d="M126.7,136.9l-0.6-0.9c5.5-3.7,9.2-8.7,12.3-13.5c4.5-6.3,7.1-13.6,8-22.4c0.9-10.9-1.6-21.3-6.9-29.3
						l0-0.1c-3.9-7.7-10.3-14.1-18.3-18.5l0.5-0.9c8.2,4.5,14.6,11,18.7,18.9c5.5,8.2,8,18.8,7.1,30c-0.9,9-3.6,16.5-8.1,22.9
						C136.3,127.8,132.4,133.1,126.7,136.9z"/>
				</g>
			</g>
			<g>
				<g>
					<path class="st5" d="M65.6,136.8c-0.6-0.5-1.3-1-1.9-1.4c-4.9-4-9-8.9-12.2-14.5c-3.3-5.9-5.4-12.3-6.2-19
						C44.6,95,45.2,88,47.1,81.5c1.8-6.3,4.9-12.2,8.9-17.3c3.8-4.8,8.6-9,14.1-12.3l0.5,0.9c-5.4,3.3-10.1,7.4-13.8,12.1
						c-3.9,4.9-6.9,10.8-8.7,16.9c-1.8,6.3-2.4,13.2-1.6,19.9c0.8,6.6,2.8,12.8,6,18.6c3.1,5.5,7.1,10.3,11.9,14.2
						c0.6,0.5,1.2,1,1.8,1.4L65.6,136.8z"/>
				</g>
			</g>
			<g>
				<g>
					<path class="st5" d="M83.5,47.6c0.5,1.5-0.3,2.7-2.5,3.4l-4.1,1.4L74,43.8l3.9-1.3c2-0.7,3.4-0.2,3.8,1.2
						c0.3,0.9,0,1.7-0.5,2.3C82.2,46,83.1,46.5,83.5,47.6z M75.6,44.4l0.9,2.8l2.5-0.8c1.3-0.4,1.8-1.1,1.5-2
						c-0.3-0.9-1.2-1.1-2.4-0.7L75.6,44.4z M82.2,47.9c-0.3-1-1.2-1.2-2.6-0.7l-2.8,0.9l1,2.9l2.8-0.9C82,49.6,82.6,48.9,82.2,47.9z
						"/>
				</g>
				<g>
					<path class="st5" d="M92.3,42.8c0.3,2-1,3.3-3.3,3.7l-2.2,0.3l0.4,2.7l-1.3,0.2l-1.3-9l3.5-0.5C90.5,39.9,92.1,40.8,92.3,42.8z
						 M91,43c-0.2-1.3-1.1-1.9-2.8-1.7l-2.2,0.3l0.6,4l2.2-0.3C90.5,45.1,91.2,44.3,91,43z"/>
				</g>
				<g>
					<path class="st5" d="M94.3,44c0.1-2.7,2.3-4.5,5.1-4.4c2.8,0.1,4.7,2.2,4.6,4.9c-0.1,2.7-2.3,4.5-5.1,4.4
						C96.1,48.8,94.1,46.7,94.3,44z M102.6,44.4c0.1-2-1.3-3.6-3.3-3.7c-2-0.1-3.6,1.3-3.7,3.3c-0.1,2,1.3,3.6,3.4,3.7
						C101,47.9,102.5,46.5,102.6,44.4z"/>
				</g>
				<g>
					<path class="st5" d="M113.3,51.6l1.8-6.4l-4.6,4.4l-0.6-0.2l-1.7-6.2l-1.8,6.3l-1.2-0.3l2.4-8.8l1,0.3l1.9,7.2l5.3-5.1l1,0.3
						l-2.4,8.8L113.3,51.6z"/>
				</g>
			</g>
			<g>
				<g>
					<path class="st5" d="M69.3,137.7c1.1-1.8,3.1-2.2,4.9-1.1c1.1,0.6,1.7,1.6,1.6,2.7l-1.1,0c0-0.8-0.4-1.4-1.1-1.8
						c-1.2-0.7-2.5-0.4-3.3,0.9c-0.8,1.3-0.4,2.6,0.8,3.3c0.6,0.4,1.4,0.5,2.1,0.1l0.5,1c-1,0.5-2.1,0.5-3.2-0.2
						C68.8,141.4,68.2,139.4,69.3,137.7z"/>
				</g>
				<g>
					<path class="st5" d="M82.2,144.4l-5.2-2c-0.3,1.2,0.3,2.3,1.6,2.8c0.8,0.3,1.5,0.3,2.2-0.1l0.3,1c-0.8,0.5-1.9,0.5-2.9,0.1
						c-2.1-0.8-2.9-2.7-2.2-4.6c0.7-1.9,2.6-2.7,4.5-2c1.9,0.7,2.7,2.6,1.9,4.5C82.3,144.2,82.2,144.3,82.2,144.4z M77.3,141.5
						l4.1,1.6c0.3-1.1-0.2-2.2-1.3-2.6C78.9,140.1,77.8,140.5,77.3,141.5z"/>
				</g>
				<g>
					<path class="st5" d="M88.7,141.9l-0.3,1.2c-0.1,0-0.2-0.1-0.3-0.1c-1.3-0.3-2.3,0.3-2.6,1.8l-0.8,3.3l-1.2-0.3l1.5-6.7l1.2,0.3
						l-0.3,1.1C86.6,141.8,87.6,141.6,88.7,141.9z"/>
				</g>
				<g>
					<path class="st5" d="M93.6,149c-0.4,0.3-1,0.4-1.5,0.3c-1.4-0.1-2.1-1-2-2.4l0.4-3.8l-1.2-0.1l0.1-1l1.2,0.1l0.1-1.5l1.2,0.1
						l-0.1,1.5l2,0.2l-0.1,1l-2-0.2l-0.4,3.7c-0.1,0.7,0.3,1.2,1,1.3c0.4,0,0.7,0,1-0.2L93.6,149z"/>
				</g>
				<g>
					<path class="st5" d="M95.5,140.4c0-0.5,0.4-0.8,0.9-0.8c0.5,0,0.8,0.4,0.8,0.8c0,0.5-0.4,0.8-0.9,0.8
						C95.9,141.2,95.5,140.8,95.5,140.4z M95.7,142.5l1.2,0l-0.1,6.9l-1.2,0L95.7,142.5z"/>
				</g>
				<g>
					<path class="st5" d="M101.1,139.4c0.5-0.1,1.1,0,1.4,0.2l-0.2,1c-0.3-0.2-0.6-0.2-1-0.2c-0.7,0.1-1,0.6-0.9,1.4l0.1,0.6l2-0.3
						l0.1,1l-2,0.3l0.8,5.8l-1.2,0.2l-0.8-5.8l-1.2,0.2l-0.1-1l1.2-0.2l-0.1-0.6C99,140.6,99.7,139.6,101.1,139.4z M104.1,139.7
						c-0.1-0.4,0.2-0.9,0.7-0.9c0.5-0.1,0.9,0.2,0.9,0.7c0.1,0.5-0.2,0.9-0.7,0.9C104.6,140.4,104.2,140.1,104.1,139.7z
						 M104.7,141.8l1.2-0.2l1,6.8l-1.2,0.2L104.7,141.8z"/>
				</g>
				<g>
					<path class="st5" d="M115.1,142.6l-5.3,1.8c0.5,1.1,1.7,1.5,3,1.1c0.8-0.3,1.3-0.7,1.6-1.4l0.9,0.5c-0.3,0.9-1.1,1.6-2.2,1.9
						c-2.1,0.7-4-0.2-4.7-2.1c-0.7-1.9,0.2-3.8,2.1-4.4c1.9-0.7,3.7,0.2,4.4,2.2C115,142.4,115.1,142.5,115.1,142.6z M109.5,143.6
						l4.2-1.5c-0.5-1-1.6-1.5-2.7-1.1C109.8,141.4,109.3,142.5,109.5,143.6z"/>
				</g>
				<g>
					<path class="st5" d="M119.5,132.7l4.8,8.3l-1,0.6l-0.5-0.9c-0.1,1-0.7,1.7-1.5,2.2c-1.7,1-3.7,0.5-4.8-1.3
						c-1.1-1.8-0.5-3.8,1.3-4.8c0.8-0.5,1.8-0.6,2.6-0.2l-1.9-3.3L119.5,132.7z M121.5,138.7c-0.7-1.3-2.1-1.6-3.2-0.9
						c-1.1,0.7-1.5,2-0.8,3.3c0.7,1.3,2.1,1.6,3.2,0.9C121.8,141.3,122.2,139.9,121.5,138.7z"/>
				</g>
			</g>
			<g>
				<g>
					<path class="st6" d="M111.1,73.8c-0.7,34.8-15.4,45.8-15.4,45.8c16.3-13.3,19.3-43,19.8-48.8L111.1,73.8z"/>
				</g>
				<g>
					<path class="st6" d="M109.8,74.7l-5.8,4c-1.9,7.8-7.1,23.5-17.5,25.9c-5.3,1.2-9.6-2.4-12.1-5.4c0.2,0.8,2.9,12.4,16.5,23.3
						c0,0,0,0,0,0c0,0,0.2-0.1,0.4-0.2c1.1-0.6,2.2-1.3,3.2-2C97.1,118.1,109.2,105.4,109.8,74.7z"/>
				</g>
				<g>
					<path class="st6" d="M117,69.7c-0.5,5.7-3.3,35.4-21.2,49.8C116.9,103.7,118,69,118,69L117,69.7z"/>
				</g>
			</g>
		</g>
	</g>
</g>
</svg>
