<?xml version="1.0" encoding="utf-8"?>
<!-- Generator: Adobe Illustrator 23.0.6, SVG Export Plug-In . SVG Version: 6.00 Build 0)  -->
<svg version="1.1" id="Layer_1" xmlns="http://www.w3.org/2000/svg" xmlns:xlink="http://www.w3.org/1999/xlink" x="0px" y="0px"
	 viewBox="0 0 407.3 40.1" style="enable-background:new 0 0 407.3 40.1;" xml:space="preserve">
<style type="text/css">
	.st0{fill:#AA1F24;}
	.st1{enable-background:new    ;}
	.st2{fill:#231F20;}
</style>
<g>
	<g>
		<path class="st0" d="M168.9,7.1c2.3,1.9,3.6,4.8,3.4,7.7h-9.4c0.1-1-0.3-2-1-2.7c-0.8-0.7-1.9-1-2.9-0.9c-0.9,0-1.8,0.2-2.6,0.7
			c-0.6,0.4-1,1.1-0.9,1.8c0,0.5,0.2,1.1,0.5,1.5c0.5,0.5,1.1,0.8,1.7,1c0.8,0.3,2,0.6,3.6,1c2.1,0.5,4.2,1.2,6.3,2
			c1.6,0.7,3,1.7,4,3.1c1.1,1.6,1.6,3.4,1.5,5.3c0,2-0.5,3.9-1.6,5.5c-1.2,1.6-2.8,2.9-4.7,3.6c-2.3,0.9-4.8,1.3-7.3,1.2
			c-4.3,0-7.7-1-10.1-2.9c-2.5-2-3.8-5-3.6-8.2h9.7c0,2.7,1.5,4.1,4.4,4.1c1,0.1,2-0.2,2.8-0.7c0.7-0.5,1-1.2,1-2
			c0-0.6-0.2-1.1-0.5-1.6c-0.5-0.4-1-0.8-1.6-1c-0.7-0.3-1.9-0.6-3.5-1c-2.1-0.5-4.2-1.2-6.3-2.1c-1.5-0.6-2.9-1.6-3.9-2.9
			c-1.1-1.5-1.6-3.3-1.5-5.2c0-1.9,0.5-3.7,1.6-5.3c1.1-1.6,2.7-2.8,4.5-3.5c2.2-0.9,4.6-1.3,7-1.2C163.4,4.4,166.6,5.3,168.9,7.1"
			/>
		<polygon class="st0" points="185.4,12.5 185.4,17.3 198.6,17.3 198.6,24.6 185.4,24.6 185.4,29.7 199.8,29.7 199.8,37.1 
			176.5,37.1 176.5,5.1 199.6,5.1 199.6,12.5 		"/>
		<path class="st0" d="M224.6,5.9c2.1,0.9,3.8,2.5,5,4.4c1.3,2,1.9,4.4,2,6.8h-9.4c-0.1-1.4-0.6-2.7-1.6-3.7
			c-2.2-1.9-5.4-1.7-7.4,0.4c-0.2,0.2-0.4,0.4-0.5,0.7c-1.2,2-1.7,4.3-1.6,6.6c-0.1,2.3,0.4,4.6,1.6,6.6c1.5,2.4,4.6,3.2,7,1.7
			c0.3-0.2,0.7-0.4,0.9-0.7c1-1,1.6-2.4,1.6-3.8h9.6c-0.3,4.1-1.8,7.3-4.4,9.5c-2.6,2.2-6.1,3.3-10.4,3.3c-2.8,0.1-5.7-0.6-8.1-2
			c-2.3-1.4-4.1-3.4-5.3-5.8c-1.3-2.8-1.9-5.8-1.8-8.9c-0.1-3.1,0.6-6.1,1.8-8.9c1.1-2.4,3-4.4,5.3-5.8c2.5-1.4,5.3-2.1,8.1-2
			C219.7,4.3,222.3,4.9,224.6,5.9"/>
		<path class="st0" d="M258.2,6.4c2.4,1.4,4.3,3.4,5.5,5.8c1.3,2.7,2,5.8,1.9,8.8c0.1,3.1-0.6,6.1-1.9,8.8c-1.2,2.4-3.1,4.5-5.5,5.8
			c-5.3,2.7-11.5,2.7-16.8,0c-2.4-1.4-4.3-3.4-5.5-5.8c-1.3-2.7-2-5.8-1.9-8.8c-0.1-3.1,0.6-6.1,1.9-8.8c1.2-2.4,3.1-4.5,5.5-5.8
			C246.7,3.7,253,3.7,258.2,6.4 M245.1,14.4c-1.2,2-1.8,4.4-1.7,6.7c-0.1,2.4,0.4,4.7,1.7,6.7c2,2.6,5.7,3.1,8.3,1.2
			c0.4-0.3,0.8-0.7,1.2-1.2c1.2-2,1.8-4.4,1.7-6.7c0.1-2.4-0.4-4.7-1.7-6.7c-2-2.6-5.7-3.1-8.3-1.1C245.8,13.6,245.4,14,245.1,14.4"
			/>
		<path class="st0" d="M326.3,31.3l-1.6,5.8h-9.5l10.7-32h11.5l10.7,32h-9.5l-1.6-5.8H326.3z M334.5,22.1c-0.9-3.3-1.8-6.8-2.7-10.8
			h-0.1c-1,4.1-1.9,7.7-2.8,10.8l-0.6,2.2h6.9L334.5,22.1z"/>
		<polygon class="st0" points="362.3,12.7 362.3,37.1 353.3,37.1 353.3,12.7 343.8,12.7 343.8,5.1 371.8,5.1 371.8,12.7 		"/>
		<polygon class="st0" points="384.1,12.5 384.1,17.3 397.3,17.3 397.3,24.6 384.1,24.6 384.1,29.7 398.5,29.7 398.5,37.1 
			375.1,37.1 375.1,5.1 398.3,5.1 398.3,12.5 		"/>
		<path class="st0" d="M311.8,9.3c-3-2.8-7.2-4.2-12.7-4.2h-7.1v7.5h6.8c2.2-0.2,4.4,0.6,6,2.2c1.5,1.7,2.2,4,2.1,6.3
			c0.2,2.3-0.6,4.5-2.1,6.3c-1.6,1.5-3.8,2.3-6,2.2h-2.5v7.5h2.8c5.5,0,9.7-1.4,12.7-4.2s4.5-6.7,4.5-11.8S314.8,12.1,311.8,9.3"/>
		<path class="st0" d="M293.8,29.5L282.3,5.1h-13.1v32h8.5V25.5c0-4.9-0.1-9.2-0.4-13.1h0.1c1.3,4,11.7,24.7,11.7,24.7h4.6
			L293.8,29.5z"/>
		<g class="st1">
			<path class="st2" d="M47.1,19.7V36h-8.2V22c0-3.1-1.7-4.9-4.4-4.9c-3.1,0.1-5,2.6-5,6.1V36h-8.3V22c0-3.1-1.7-4.9-4.4-4.9
				c-3.2,0.1-5.1,2.6-5.1,6.1V36H3.5V10.2h8.2v4.3c1.8-3.1,4.7-4.6,8.5-4.6c4.2,0,7.3,2.2,8.6,5.8c1.7-3.8,4.8-5.8,9.1-5.8
				C43.5,9.8,47.1,13.7,47.1,19.7z"/>
		</g>
		<g class="st1">
			<path class="st2" d="M78.1,25.3H60c0.8,3.1,3,4.8,6.1,4.8c2.2,0,4.4-0.9,6.2-2.6l4.3,4.3c-2.6,2.9-6.5,4.5-11.2,4.5
				c-8.4,0-13.7-5.3-13.7-13.1c0-8,5.4-13.2,13.4-13.2C74.2,9.9,78.7,15.9,78.1,25.3z M70.2,20.9c0-3.2-2-5.2-5-5.2
				c-2.9,0-4.8,2.1-5.4,5.2H70.2z"/>
			<path class="st2" d="M106.9,25.3H88.8c0.8,3.1,3,4.8,6.1,4.8c2.2,0,4.4-0.9,6.2-2.6l4.3,4.3c-2.6,2.9-6.5,4.5-11.2,4.5
				c-8.4,0-13.7-5.3-13.7-13.1c0-8,5.4-13.2,13.4-13.2C103,9.9,107.5,15.9,106.9,25.3z M99,20.9c0-3.2-2-5.2-5-5.2
				c-2.9,0-4.8,2.1-5.4,5.2H99z"/>
			<path class="st2" d="M128,34.6c-1.9,1.1-4.4,1.8-6.9,1.8c-5,0-8.6-2.8-8.6-8.2V16.8H109v-5.4h3.6V4.3h8.2v7.1h6.7v5.4h-6.7v10.1
				c0,2,0.9,2.9,2.4,2.8c0.9,0,2-0.3,3.2-0.9L128,34.6z"/>
		</g>
	</g>
</g>
</svg>
