<?xml version="1.0" encoding="utf-8"?>
<!-- Generator: Adobe Illustrator 23.0.6, SVG Export Plug-In . SVG Version: 6.00 Build 0)  -->
<svg version="1.1" id="Layer_1" xmlns="http://www.w3.org/2000/svg" xmlns:xlink="http://www.w3.org/1999/xlink" x="0px" y="0px"
	 viewBox="0 0 1432 171.2" style="enable-background:new 0 0 1432 171.2;" xml:space="preserve">
<style type="text/css">
	.st0{fill:#FFFFFF;}
	.st1{fill:#FFFFFF;stroke:#FFFFFF;stroke-width:0.5;stroke-miterlimit:10;}
	.st2{fill:none;stroke:#FFFFFF;stroke-width:2;stroke-linecap:round;stroke-linejoin:round;}
</style>
<path class="st0" d="M320.9,87.4c0-22.5,13.1-42.9,33.5-52.4c-0.1-0.8-0.2-1.5-0.3-2.3c-30.1,13.5-43.6,48.9-30.1,79.1
	c3.8,8.5,9.5,16,16.7,21.8c0.3-0.7,0.5-1.4,0.9-2.1C328.4,120.6,320.9,104.4,320.9,87.4z"/>
<path class="st0" d="M402.5,32.5c0,0.8-0.1,1.5-0.2,2.3c29,13.1,41.9,47.2,28.8,76.3c-3.6,8.1-9.1,15.2-15.9,20.8
	c0.3,0.7,0.6,1.4,0.9,2c25.7-20.8,29.7-58.4,9-84.1C419.1,42.3,411.3,36.4,402.5,32.5z"/>
<path class="st0" d="M359,31.8c-0.4-1.1-0.3-2.2,0.1-3.3c0.5-0.9,1.3-1.6,2.4-1.8c0.5-0.1,1-0.2,1.4,0c0.4,0.1,0.7,0.2,1,0.5
	l-0.2-0.9l1.6-0.5l3.1,11.2l-1.6,0.5l-1.1-4.1c-0.1,0.4-0.4,0.7-0.7,1c-0.3,0.3-0.7,0.5-1.1,0.6c-1,0.4-2.1,0.2-3-0.4
	C359.8,33.9,359.2,32.9,359,31.8z M360.8,29.3c-0.2,0.7-0.2,1.4,0,2.1c0.2,0.7,0.5,1.3,1.1,1.8c0.9,0.6,2.1,0.5,2.7-0.4
	c0.1-0.1,0.2-0.3,0.2-0.4c0.2-0.7,0.2-1.4,0-2.1c-0.2-0.7-0.5-1.3-1.1-1.8c-0.9-0.6-2.1-0.5-2.7,0.4C360.9,29,360.8,29.1,360.8,29.3
	z"/>
<path class="st0" d="M376.1,32.7l-1.7,0.2l-0.1-1.4c-0.2,0.5-0.6,0.9-1,1.3c-0.4,0.3-0.9,0.5-1.5,0.6c-1.2,0.2-2.4-0.6-2.6-1.8
	c0-0.1,0-0.3,0-0.4l-0.6-5.9l1.7-0.2l0.5,5.3c0.1,1,0.6,1.5,1.4,1.4c0.6-0.1,1.1-0.5,1.4-1.1c0.4-0.8,0.5-1.8,0.3-2.7l-0.3-3.3
	l1.7-0.2L376.1,32.7z"/>
<path class="st0" d="M378.2,23c-0.2-0.2-0.3-0.5-0.3-0.8c0-0.3,0.1-0.6,0.4-0.8c0.2-0.2,0.5-0.3,0.9-0.3c0.7,0,1.2,0.6,1.1,1.3
	c0,0.3-0.1,0.5-0.3,0.7c-0.2,0.2-0.5,0.3-0.9,0.3C378.7,23.3,378.4,23.2,378.2,23z M378.2,24.5h1.7l-0.1,8.2h-1.7L378.2,24.5z"/>
<path class="st0" d="M387.5,30.6l1.4,0.8c-0.7,1.4-2.3,2.1-3.8,1.8c-1.1-0.1-2.1-0.6-2.7-1.5c-0.6-0.9-0.8-2-0.6-3.1
	c0.1-1.1,0.6-2.1,1.4-2.9c0.8-0.7,1.9-1.1,3-0.9c1.6,0.1,2.9,1.2,3.3,2.7l-1.6,0.5c-0.2-0.9-1-1.6-1.9-1.6c-0.6-0.1-1.2,0.1-1.6,0.6
	c-0.4,0.6-0.7,1.2-0.7,1.9c-0.1,0.7,0,1.4,0.3,2c0.3,0.5,0.9,0.9,1.5,0.9C386.2,31.9,387.1,31.4,387.5,30.6z"/>
<path class="st0" d="M393.1,22.7l1.6,0.4l-1.7,6.4l3.7-2.4l2.1,0.6l-4.3,2.8l2.4,5.3l-2.1-0.6l-2-4.6l-1,3.8l-1.6-0.4L393.1,22.7z"
	/>
<path class="st0" d="M344.9,135.5c0.5-1,1.4-1.8,2.4-2.2c1-0.3,2.1-0.2,3,0.5c0.4,0.2,0.7,0.6,0.9,0.9c0.2,0.3,0.4,0.7,0.4,1.1
	l2.2-3.6l1.5,0.9l-6,9.9l-1.5-0.9l0.5-0.8c-0.3,0.2-0.7,0.2-1.1,0.2c-0.5,0-0.9-0.2-1.4-0.4c-0.9-0.5-1.6-1.4-1.8-2.4
	C344,137.5,344.3,136.4,344.9,135.5z M348,135c-0.7,0.3-1.2,0.8-1.5,1.4c-0.4,0.6-0.6,1.3-0.5,2c0.1,1.1,1.1,1.8,2.1,1.7
	c0.2,0,0.3-0.1,0.5-0.1c1.3-0.6,2.1-2,2.1-3.4c-0.1-1.1-1.1-1.8-2.1-1.7C348.3,134.9,348.1,134.9,348,135z"/>
<path class="st0" d="M360.7,143.1l-0.3,0.7l-5.4-2.2c-0.2,0.5-0.3,1.1-0.1,1.7c0.2,0.5,0.6,1,1.2,1.2c0.4,0.2,0.9,0.2,1.3,0.1
	c0.5-0.1,0.9-0.3,1.2-0.6l1.1,1.1c-0.6,0.5-1.3,0.9-2,1.1c-0.8,0.1-1.5,0-2.2-0.3c-0.6-0.2-1.1-0.6-1.5-1c-0.4-0.4-0.6-0.9-0.7-1.4
	c-0.1-0.5-0.2-1-0.1-1.5c0.1-1,0.5-2,1.1-2.8c0.3-0.4,0.7-0.7,1.1-1c0.4-0.3,1-0.5,1.5-0.5c0.6,0,1.2,0.1,1.8,0.3
	c0.6,0.2,1.1,0.6,1.5,1c0.4,0.4,0.6,0.8,0.8,1.3c0.1,0.5,0.2,0.9,0.1,1.4C361,142.2,360.9,142.7,360.7,143.1z M358.1,139.4
	c-0.5-0.2-1-0.2-1.4,0c-0.5,0.2-0.9,0.6-1.1,1l3.7,1.5c0.1-0.5,0.1-1-0.1-1.4C359,140,358.6,139.6,358.1,139.4z"/>
<path class="st0" d="M364.7,136.6l1.6,0.4l-3,11.2l-1.6-0.4L364.7,136.6z"/>
<path class="st0" d="M367.5,140.8l1.7,0.3l-1.6,8.1l-1.7-0.3L367.5,140.8z M367.8,139.3c-0.4-0.5-0.2-1.3,0.3-1.6c0,0,0,0,0,0
	c0.5-0.4,1.3-0.2,1.6,0.3c0,0,0,0,0,0c0.2,0.3,0.2,0.6,0.2,0.9c-0.1,0.6-0.8,1.1-1.4,0.9C368.2,139.7,367.9,139.5,367.8,139.3z"/>
<path class="st0" d="M370.3,141.4l1.7,0.1l1.3,6.1l2.3-5.8l1.7,0.1l-3.4,8l-1.6-0.1L370.3,141.4z"/>
<path class="st0" d="M385.6,145.5v0.7l-5.8,0.3c0,0.6,0.2,1.1,0.6,1.6c0.4,0.4,1,0.6,1.5,0.6c0.4,0,0.9-0.2,1.2-0.4
	c0.4-0.3,0.7-0.6,0.8-1.1l1.5,0.5c-0.3,0.7-0.7,1.3-1.3,1.8c-0.6,0.4-1.4,0.7-2.1,0.7c-0.6,0-1.2-0.1-1.8-0.3
	c-0.5-0.2-0.9-0.6-1.3-1c-0.3-0.4-0.6-0.8-0.8-1.3c-0.2-0.5-0.3-1-0.3-1.5c0-0.5,0-1,0.1-1.5c0.1-0.5,0.3-1,0.6-1.4
	c0.3-0.4,0.7-0.8,1.1-1.1c0.5-0.3,1.1-0.5,1.7-0.5c0.6,0,1.2,0,1.7,0.3c0.5,0.2,0.9,0.5,1.2,0.9c0.3,0.4,0.6,0.8,0.7,1.2
	C385.5,144.5,385.6,145,385.6,145.5z M381.7,143.2c-0.5,0-1,0.2-1.3,0.6c-0.3,0.4-0.5,0.8-0.6,1.3l4-0.2c-0.1-0.5-0.3-0.9-0.7-1.2
	C382.7,143.3,382.2,143.1,381.7,143.2L381.7,143.2z"/>
<path class="st0" d="M390.2,149.1l-1.7,0.3l-1.6-8.1l1.7-0.3l0.3,1.4c0.2-0.5,0.5-0.9,0.9-1.3c0.4-0.3,0.8-0.5,1.3-0.6
	c0.3-0.1,0.7-0.1,1.1,0v1.6c-0.3-0.1-0.7-0.1-1-0.1c-0.6,0.2-1.2,0.6-1.4,1.3c-0.3,0.9-0.4,1.9-0.1,2.9L390.2,149.1z"/>
<path class="st0" d="M392.9,138.4c-0.6-0.3-0.8-1-0.5-1.6c0.1-0.3,0.4-0.5,0.7-0.6c0.3-0.1,0.6-0.1,0.9,0.1c0.3,0.2,0.5,0.4,0.6,0.7
	c0.1,0.3,0.1,0.6-0.1,0.9c-0.1,0.3-0.4,0.5-0.7,0.6C393.5,138.6,393.2,138.6,392.9,138.4z M393.4,139.8l1.6-0.5l2.4,7.9l-1.6,0.5
	L393.4,139.8z"/>
<path class="st0" d="M405.2,139.4l0.3,0.7l-5.4,2.3c0.2,0.5,0.6,1,1.1,1.3c0.5,0.3,1.1,0.3,1.6,0c0.9-0.4,1.4-1.2,1.4-2.1l1.6-0.1
	c0,0.8-0.2,1.5-0.6,2.2c-0.8,1.1-2.1,1.7-3.5,1.7c-0.5,0-1.1-0.2-1.5-0.4c-0.4-0.3-0.8-0.6-1.1-1c-0.3-0.4-0.6-0.8-0.8-1.3
	c-0.2-0.5-0.3-1-0.4-1.5c-0.1-0.5,0-1,0.1-1.5c0.1-0.5,0.4-1,0.7-1.4c0.4-0.5,0.9-0.8,1.4-1.1c0.5-0.2,1.1-0.4,1.7-0.4
	c0.5,0,1,0.1,1.5,0.4C404.1,137.8,404.8,138.5,405.2,139.4L405.2,139.4z M400.7,138.7c-0.5,0.2-0.8,0.5-1,1c-0.2,0.5-0.2,1-0.1,1.5
	l3.7-1.6c-0.2-0.4-0.6-0.7-1.1-0.9C401.7,138.4,401.2,138.4,400.7,138.7L400.7,138.7z"/>
<path class="st0" d="M407.3,133.5c0.8-0.5,1.9-0.6,2.8-0.2l-0.4,1.4c-0.5-0.2-1.1-0.2-1.6,0.1c-0.2,0.1-0.3,0.3-0.4,0.5
	c-0.1,0.2,0,0.5,0.1,0.6c0.1,0.2,0.4,0.4,0.6,0.4c0.4,0,0.8,0,1.2-0.1l0.7-0.1c0.2,0,0.5,0,0.7,0c0.2,0,0.5,0,0.7,0.1
	c0.2,0.1,0.4,0.2,0.6,0.3c0.2,0.2,0.4,0.4,0.5,0.6c0.4,0.6,0.5,1.3,0.3,2c-0.2,0.7-0.7,1.4-1.4,1.8c-0.6,0.4-1.3,0.6-2,0.5
	c-0.7-0.1-1.3-0.3-1.8-0.7l0.8-1.4c0.6,0.6,1.6,0.7,2.3,0.3c0.5-0.2,0.7-0.8,0.5-1.3c0-0.1-0.1-0.1-0.1-0.2
	c-0.1-0.1-0.2-0.2-0.3-0.3c-0.1-0.1-0.3-0.1-0.4-0.1c-0.2,0-0.3,0-0.5,0l-0.6,0.1l-0.6,0.1c-1,0.3-2.1-0.1-2.7-1
	c-0.3-0.5-0.4-1.2-0.3-1.8C406.3,134.4,406.7,133.8,407.3,133.5z"/>
<path class="st0" d="M360.7,89.8L360.7,89.8c1.3,2,3.6,3.2,5.8,4c4.2,1.5,8.6,2.2,13,2.2c3.4,0,7.5-0.2,10.4-2.3c2.6-2,3.6-6,4-9.2
	s0.6-6.7-0.7-9.5c0-0.1,0-0.2,0-0.3c-0.2-0.5-0.6-1.1-0.9-1.5c-2.6-2.9-7-4-10.7-4.8c-4.5-1-9.2-1.1-13.8-0.2
	c-2.1,0.3-4.1,1.4-5.5,3c-0.1,0.1-0.1,0.2-0.1,0.3c-1.2,1.9-2,4-2.4,6.2c-0.7,3.5-0.9,7.5,0.3,10.9C360.3,89,360.5,89.4,360.7,89.8z
	 M370,93.7c-2.7-0.7-5.9-1.7-7.8-3.8c-0.1-0.1-0.2-0.3-0.3-0.4c2.4-3.7,5.1-7.2,8.2-10.3c0.5,0.2,1,0.5,1.4,0.7c0,0,0,0.1,0,0.1
	c0.7,1.5,1.7,2.8,3,3.8c0.8,0.9,1.7,1.6,2.7,2.1c0.1,0.1,0.3,0.1,0.4,0.1l0,0c0.1,0,0.2,0,0.3-0.1c0.9-0.6,1.7-1.3,2.4-2.2
	c0.8-0.8,1.6-1.7,2.2-2.7l1.3-0.3c2.3,3.8,4.2,7.7,5.7,11.9l-0.3,0.2c-2.3,1.7-5.7,1.9-8.4,2C377.2,94.9,373.5,94.5,370,93.7
	L370,93.7z M363.5,71.7c1.9-2,5.3-2.4,7.9-2.6c3.5-0.2,7.1,0.1,10.6,0.8c3,0.6,6.3,1.5,8.7,3.5c0.5,0.4,1,1,1.4,1.5
	c-2.2,2.4-5.6,4-8.8,4.8c0.1-0.2,0.1-0.3,0.1-0.5c0.4-1.6-0.3-3.5-2.1-3.7s-3,1.3-3.8,2.8c-1-1.4-2.5-3-4.3-2.4
	c-1.1,0.4-1.8,1.4-1.7,2.6C368.3,77,365.2,74.7,363.5,71.7L363.5,71.7z M381.5,80.4c0,0.1,0,0.2,0,0.2c-0.2,0.3-0.4,0.6-0.6,0.9
	c-0.5,0.6-1.1,1.3-1.6,1.8c-0.5,0.6-1,1.1-1.6,1.5c-0.6-0.4-1.2-0.8-1.7-1.4c-0.7-0.5-1.3-1.1-1.9-1.8c-0.6-0.6-1.1-1.3-1.4-2.1
	c0-0.1,0-0.2,0-0.4h-0.1c-0.2-0.5-0.2-1.1,0.1-1.6c0.5-1.2,1.9-0.8,2.7-0.1c0.7,0.6,1.2,1.4,1.6,2.2c0.2,0.4,0.8,0.2,1-0.1
	c0.6-1.1,2.1-4,3.8-2.7C382.7,77.7,382.3,79.2,381.5,80.4L381.5,80.4z M393,82.8c-0.2,2.8-0.8,6.5-2.6,8.9
	c-1.5-3.9-3.3-7.7-5.5-11.3c2.8-0.8,5.4-2.3,7.6-4.4C393.1,78.2,393.3,80.5,393,82.8z M360.4,80.9c0.2-2.7,0.8-5.9,2.3-8.2
	c1.6,2.5,3.8,4.5,6.4,5.9c-2.9,3-5.6,6.3-7.9,9.8C360.2,86.1,360.3,83.2,360.4,80.9L360.4,80.9z"/>
<path class="st0" d="M406.9,79.7c-1.2-0.6-2.6-0.8-3.9-0.6c-0.7,0.1-1.3,0.7-1.3,1.4v4.3c0,0.7,0.5,1.2,1.2,1.2c0,0,0,0,0,0h4.7
	c0.7,0,1.2-0.5,1.2-1.2c0,0,0,0,0,0v-1.9C408.8,81.6,408.1,80.3,406.9,79.7z M407.8,84.8c0,0.1-0.1,0.3-0.3,0.3l0,0h-4.7
	c-0.1,0-0.3-0.1-0.2-0.3v-4.3c0-0.3,0.2-0.5,0.5-0.5c0.3,0,0.7-0.1,1-0.1c0.8,0,1.6,0.2,2.4,0.6c0.9,0.5,1.4,1.4,1.4,2.4L407.8,84.8
	z"/>
<path class="st0" d="M411.2,75.3c-3.2-2.3-7.4-3.1-12.4-2.3c-1.9,0.3-3.3,2.3-3.3,4.6v17.3c0,0.8,0.2,1.6,0.7,2.3h-29.5
	c-1.9-3.1-5.9-4.1-8.9-2.2c-0.9,0.5-1.7,1.3-2.2,2.2h-3.4c-0.3,0-0.6,0.3-0.6,0.6c0,0.3,0.3,0.6,0.6,0.6h2.8
	c-0.3,0.7-0.4,1.4-0.4,2.2c-0.1,3.6,2.7,6.7,6.3,6.8s6.7-2.7,6.8-6.3c0-0.2,0-0.3,0-0.5c0-0.7-0.1-1.5-0.4-2.2H400
	c-0.3,0.7-0.4,1.4-0.4,2.2c0,3.6,2.9,6.5,6.5,6.5s6.5-2.9,6.5-6.5c0,0,0,0,0,0c0-0.7-0.1-1.5-0.4-2.2h1.5c1.6,0,2.9-1.6,2.9-3.5
	v-7.6C416.8,82.3,414.6,77.7,411.2,75.3z M361.2,106c-2.9,0-5.3-2.4-5.3-5.3c0-0.8,0.2-1.5,0.5-2.2c0.2-0.4,0.4-0.8,0.8-1.2
	c1.9-2.3,5.2-2.6,7.5-0.7c0.3,0.2,0.5,0.5,0.7,0.7c0.8,1,1.2,2.2,1.2,3.4C366.6,103.6,364.2,106,361.2,106
	C361.2,106,361.2,106,361.2,106L361.2,106z M411.5,100.6c0.1,2.9-2.2,5.4-5.1,5.6s-5.4-2.2-5.6-5.1c0-0.2,0-0.3,0-0.5
	c0-0.8,0.2-1.5,0.5-2.2c0.2-0.4,0.4-0.8,0.8-1.2c1.9-2.3,5.2-2.6,7.5-0.7c0.3,0.2,0.5,0.5,0.7,0.7c0.3,0.3,0.5,0.7,0.7,1.1
	c0,0,0,0.1,0,0.1l0,0C411.3,99.1,411.5,99.9,411.5,100.6L411.5,100.6z M415.8,94.9c0.1,1.2-0.7,2.2-1.9,2.3h-2.1
	c-1.9-3.1-5.9-4.1-9-2.2c-0.9,0.5-1.7,1.3-2.2,2.2h-2.2c-1.2-0.1-2-1.2-1.9-2.3V77.6c-0.1-1.6,0.9-3,2.5-3.4
	c1.1-0.2,2.3-0.3,3.4-0.3c3-0.1,5.9,0.8,8.3,2.4c3.1,2.2,5.1,6.4,5.1,11L415.8,94.9z"/>
<path class="st0" d="M355.9,80.2h-7c-0.3,0-0.6-0.2-0.6-0.5c0-0.3,0.2-0.6,0.5-0.6c0,0,0.1,0,0.1,0h7c0.3,0,0.6,0.2,0.6,0.5
	c0,0.3-0.2,0.6-0.5,0.6C356,80.2,355.9,80.2,355.9,80.2z"/>
<path class="st0" d="M347,80.2h-2.9c-0.3,0-0.5-0.3-0.5-0.6c0-0.2,0.2-0.4,0.5-0.5h2.9c0.3,0,0.6,0.2,0.6,0.5c0,0.3-0.2,0.6-0.5,0.6
	C347.1,80.2,347,80.2,347,80.2z"/>
<path class="st0" d="M341.1,80.2h-0.9c-0.3,0-0.5-0.3-0.5-0.6c0-0.2,0.2-0.4,0.5-0.5h0.9c0.3,0,0.5,0.3,0.5,0.6
	C341.6,80,341.4,80.2,341.1,80.2z"/>
<path class="st0" d="M345.6,92h-4.8c-0.3,0-0.5-0.2-0.5-0.6c0-0.3,0.3-0.5,0.5-0.5h4.8c0.3,0,0.5,0.2,0.5,0.5v0
	C346.1,91.7,345.9,92,345.6,92z"/>
<path class="st0" d="M338.8,92h-1c-0.3,0-0.5-0.3-0.5-0.6c0-0.3,0.2-0.5,0.5-0.5l0,0h1c0.3,0,0.5,0.2,0.5,0.5
	C339.3,91.8,339.1,92,338.8,92z"/>
<path class="st0" d="M335.9,92h-0.4c-0.3,0-0.5-0.3-0.5-0.6c0-0.3,0.2-0.5,0.5-0.5l0,0h0.4c0.3,0,0.5,0.2,0.5,0.5
	C336.4,91.8,336.2,92,335.9,92z"/>
<path class="st0" d="M350.4,86.1h-2.9c-0.3,0-0.5-0.2-0.5-0.6c0-0.3,0.2-0.5,0.5-0.5h2.9c0.3,0,0.6,0.2,0.6,0.5
	C350.9,85.9,350.7,86.1,350.4,86.1C350.4,86.1,350.4,86.1,350.4,86.1z"/>
<path class="st0" d="M344.7,86.1h-0.5c-0.3,0-0.5-0.2-0.5-0.6c0-0.3,0.2-0.5,0.5-0.5h0.5c0.3,0,0.6,0.2,0.6,0.5
	C345.2,85.9,345,86.1,344.7,86.1C344.7,86.1,344.7,86.1,344.7,86.1z"/>
<path class="st0" d="M792.6,130.2c-24.9-19.8-29.1-56-9.3-80.9c4.2-5.3,9.4-9.9,15.2-13.4c-0.2-0.7-0.4-1.5-0.5-2.2
	c-28.4,16.9-37.7,53.6-20.9,82c3.9,6.5,8.9,12.2,14.9,16.8C792.1,131.6,792.3,130.9,792.6,130.2z"/>
<path class="st0" d="M858.9,33.5c-0.2,0.7-0.4,1.5-0.6,2.2c27.3,16.4,36,51.8,19.6,79.1c-3.4,5.6-7.7,10.7-12.8,14.8
	c0.2,0.8,0.4,1.5,0.6,2.3c25.9-20.5,30.3-58.1,9.8-84C870.8,42.1,865.2,37.3,858.9,33.5L858.9,33.5z"/>
<path class="st0" d="M805.6,25.8c0.5-0.2,0.9-0.2,1.4-0.2c0.5,0.1,0.9,0.2,1.3,0.5l-0.7,1.3c-0.5-0.3-1.1-0.4-1.6-0.2
	c-0.2,0.1-0.4,0.2-0.5,0.4c-0.1,0.2-0.1,0.4,0,0.6c0.1,0.2,0.3,0.4,0.6,0.5c0.4,0.1,0.8,0.1,1.2,0.1h0.7c0.2,0,0.5,0,0.7,0.1
	c0.2,0,0.5,0.1,0.7,0.2c0.2,0.1,0.4,0.2,0.5,0.4c0.2,0.2,0.3,0.4,0.4,0.7c0.3,0.6,0.2,1.4-0.1,2c-0.3,0.7-0.9,1.2-1.7,1.5
	c-0.7,0.3-1.4,0.3-2.1,0.1c-0.6-0.2-1.2-0.5-1.7-1l1-1.3c0.5,0.7,1.4,1,2.2,0.7c0.5-0.1,0.9-0.7,0.7-1.2c0-0.1,0-0.1-0.1-0.2
	c0-0.1-0.1-0.2-0.2-0.3c-0.1-0.1-0.3-0.1-0.4-0.2c-0.2,0-0.3,0-0.5,0s-0.3,0-0.6,0h-0.6c-1.1,0.1-2.1-0.5-2.5-1.5
	c-0.2-0.6-0.2-1.2,0.1-1.8C804.4,26.5,805,26,805.6,25.8z"/>
<path class="st0" d="M818.8,26.2l0.2,0.7l-5.7,1.3c0.1,0.6,0.4,1.1,0.9,1.5c0.5,0.4,1.1,0.5,1.6,0.3c0.4-0.1,0.8-0.3,1.2-0.6
	c0.3-0.3,0.6-0.7,0.6-1.2l1.5,0.2c-0.2,0.8-0.5,1.5-1,2c-0.6,0.5-1.2,0.9-2,1c-0.6,0.1-1.2,0.1-1.8,0c-0.5-0.1-1-0.4-1.4-0.7
	c-0.4-0.3-0.7-0.7-1-1.2c-0.3-0.4-0.4-0.9-0.6-1.4c-0.1-0.5-0.2-1-0.1-1.5c0-0.5,0.2-1,0.3-1.5c0.2-0.5,0.5-0.9,0.9-1.3
	c0.5-0.4,1-0.6,1.6-0.8c0.6-0.1,1.2-0.1,1.7,0c0.5,0.1,1,0.3,1.4,0.6c0.4,0.3,0.7,0.7,0.9,1.1C818.5,25.3,818.7,25.7,818.8,26.2z
	 M814.5,24.6c-0.5,0.1-0.9,0.4-1.2,0.8c-0.3,0.4-0.4,0.9-0.4,1.4l3.9-0.9c-0.2-0.5-0.5-0.8-0.9-1.1C815.5,24.6,815,24.5,814.5,24.6z
	"/>
<path class="st0" d="M826.7,27.1l1.6,0.5c-0.5,1.5-1.8,2.5-3.4,2.5c-1.1,0.2-2.2-0.2-3-1c-0.8-0.8-1.2-1.9-1.2-3
	c-0.1-1.1,0.2-2.2,0.8-3.1c0.7-0.9,1.7-1.4,2.8-1.4c1.5-0.2,3,0.6,3.7,2l-1.5,0.8c-0.4-0.8-1.2-1.4-2.1-1.3c-0.6,0-1.2,0.3-1.5,0.9
	c-0.3,0.6-0.5,1.3-0.4,2c0,0.7,0.2,1.4,0.7,2c0.4,0.5,1,0.7,1.6,0.6C825.6,28.6,826.4,28,826.7,27.1z"/>
<path class="st0" d="M836.5,30.4l-1.7-0.1l0.1-1.4c-0.3,0.4-0.7,0.8-1.2,1c-0.5,0.2-1,0.3-1.5,0.3c-0.7,0-1.3-0.3-1.7-0.8
	c-0.4-0.5-0.6-1.2-0.5-1.9l0.5-5.9l1.7,0.1l-0.5,5.4c-0.1,1,0.3,1.5,1.1,1.6c0.6,0,1.2-0.3,1.6-0.8c0.5-0.7,0.8-1.6,0.8-2.5l0.3-3.3
	l1.7,0.1L836.5,30.4z"/>
<path class="st0" d="M840.2,31.2l-1.7-0.4l1.8-8l1.7,0.4l-0.3,1.3c0.4-0.4,0.8-0.7,1.3-0.9c0.5-0.1,0.9-0.2,1.4-0.1
	c0.4,0.1,0.7,0.2,1,0.4l-0.6,1.5c-0.2-0.2-0.6-0.4-0.9-0.5c-0.6-0.1-1.3,0.1-1.7,0.6c-0.7,0.7-1.1,1.6-1.3,2.6L840.2,31.2z"/>
<path class="st0" d="M852.8,30.6l-0.3,0.7l-5.5-2c-0.2,0.5-0.3,1.2-0.1,1.7c0.2,0.5,0.6,1,1.2,1.2c0.9,0.3,1.9,0.1,2.5-0.5l1.2,1
	c-0.6,0.5-1.2,0.9-2,1.2c-0.8,0.1-1.5,0.1-2.2-0.2c-0.6-0.2-1.1-0.6-1.5-1c-0.4-0.4-0.6-0.9-0.8-1.4c-0.1-0.5-0.2-1-0.2-1.5
	c0-1,0.4-2,1-2.8c0.3-0.4,0.7-0.7,1.1-1c0.4-0.3,1-0.5,1.5-0.5c0.6-0.1,1.2,0,1.8,0.3c0.6,0.2,1.1,0.5,1.5,0.9
	c0.4,0.4,0.6,0.8,0.8,1.3c0.1,0.5,0.2,0.9,0.2,1.4C853,29.7,852.9,30.2,852.8,30.6z M850.1,27c-0.5-0.2-1-0.2-1.4,0
	c-0.5,0.2-0.8,0.6-1.1,1l3.8,1.4c0.1-0.5,0.1-1-0.1-1.4C851,27.5,850.6,27.2,850.1,27z"/>
<path class="st0" d="M805.3,138.5c-0.5,1-1.3,1.8-2.3,2.3c-1,0.4-2.1,0.3-3-0.3c-0.4-0.2-0.7-0.5-1-0.9c-0.2-0.3-0.4-0.7-0.5-1.1
	l-2,3.8l-1.5-0.8l5.4-10.3l1.5,0.8l-0.4,0.9c0.3-0.2,0.7-0.3,1.1-0.3c0.5,0,1,0.1,1.4,0.4c1,0.4,1.7,1.3,1.9,2.3
	C806.1,136.4,805.9,137.6,805.3,138.5z M802.3,139.2c0.6-0.3,1.2-0.9,1.5-1.5c0.4-0.6,0.5-1.3,0.4-2.1c-0.2-1-1.2-1.7-2.2-1.6
	c-0.2,0-0.3,0.1-0.5,0.1c-1.3,0.7-2,2.1-1.8,3.6c0.1,0.6,0.5,1.1,1,1.4C801.1,139.4,801.7,139.4,802.3,139.2L802.3,139.2z"/>
<path class="st0" d="M806.5,140.9c0.2-0.8,0.8-1.3,1.5-1.6c0.9-0.2,1.8-0.2,2.7,0.1l1.4,0.4l0.1-0.3c0.2-0.4,0.1-0.8-0.1-1.2
	c-0.2-0.3-0.6-0.6-1-0.7c-0.7-0.3-1.4,0-1.8,0.6l-1.4-0.8c0.4-0.6,0.9-1,1.6-1.2c0.7-0.2,1.4-0.2,2.1,0c2.1,0.7,2.8,2.1,2.1,4.1
	l-1.6,4.9l-1.4-0.4l0.2-1.1c-0.8,0.6-1.9,0.7-2.8,0.4c-0.6-0.2-1.2-0.6-1.5-1.2C806.3,142.2,806.3,141.5,806.5,140.9z M808.2,141.4
	c-0.1,0.2-0.1,0.5,0,0.8c0.1,0.3,0.4,0.4,0.6,0.5c0.5,0.2,1.1,0.2,1.6-0.1c0.5-0.2,0.9-0.7,1.1-1.3v-0.2l-1.4-0.5
	c-0.4-0.2-0.9-0.2-1.3-0.1C808.6,140.8,808.3,141.1,808.2,141.4z"/>
<path class="st0" d="M815.5,137.6l1.8,0.3l1,5.8l2.8-5.1l1.8,0.3l-6.1,10.7l-1.7-0.3l2-3.5L815.5,137.6z"/>
<path class="st0" d="M823.8,139.1h1.7v1.4c0.5-0.9,1.4-1.5,2.5-1.6c0.5,0,1,0.1,1.5,0.4c0.4,0.3,0.7,0.7,0.8,1.2
	c0.2-0.5,0.6-1,1.1-1.3c0.4-0.3,0.9-0.5,1.5-0.5c0.6-0.1,1.3,0.2,1.7,0.6c0.4,0.5,0.7,1.1,0.7,1.8l0.1,5.9h-1.7l-0.1-5.5
	c0-0.4-0.1-0.7-0.3-1c-0.2-0.2-0.6-0.3-0.9-0.3c-0.6,0.1-1.1,0.4-1.3,1c-0.4,0.8-0.6,1.7-0.5,2.6l0.1,3.3h-1.7l-0.1-5.5
	c0-0.4-0.1-0.7-0.3-1c-0.2-0.2-0.6-0.4-0.9-0.3c-0.6,0-1.1,0.4-1.3,1c-0.4,0.9-0.6,1.8-0.5,2.8l0.1,3.1H824L823.8,139.1z"/>
<path class="st0" d="M845.2,140.6l0.2,0.7l-5.7,1.3c0.1,0.6,0.4,1.1,0.9,1.5c0.5,0.4,1.1,0.5,1.6,0.3c0.4-0.1,0.8-0.3,1.2-0.6
	c0.3-0.3,0.5-0.7,0.6-1.2l1.5,0.2c-0.2,0.8-0.5,1.5-1,2.1c-0.6,0.5-1.2,0.9-2,1c-0.6,0.1-1.2,0.1-1.8,0c-0.5-0.1-1-0.4-1.4-0.7
	c-0.4-0.3-0.7-0.7-1-1.2c-0.3-0.4-0.4-0.9-0.5-1.4c-0.1-0.5-0.2-1-0.1-1.5c0-0.5,0.2-1,0.3-1.5c0.2-0.5,0.6-0.9,1-1.3
	c1-0.7,2.2-1,3.4-0.8c0.5,0.1,1,0.3,1.4,0.7c0.4,0.3,0.7,0.7,0.9,1.1C844.9,139.7,845.1,140.1,845.2,140.6z M840.9,139
	c-0.5,0.1-0.9,0.4-1.2,0.8c-0.3,0.4-0.4,0.9-0.4,1.4l3.9-0.9c-0.2-0.5-0.5-0.8-0.9-1.1C841.9,138.9,841.4,138.9,840.9,139z"/>
<path class="st0" d="M845.8,136.3l1.6-0.6l0.5,1.3c0.1-1.1,0.9-2,1.9-2.4c1.1-0.6,2.5-0.1,3,1c0.1,0.1,0.1,0.2,0.1,0.4l2.2,5.5
	l-1.6,0.6l-2-5c-0.4-0.9-1-1.2-1.8-0.9c-0.6,0.3-0.9,0.8-1,1.4c-0.1,0.9,0,1.8,0.4,2.6l1.3,3.1L849,144L845.8,136.3z"/>
<path class="st0" d="M853.9,134.5l-0.8-1.3l1.2-0.7l-1.1-2l0.9-1.8l1.7,2.9l1.9-1.1l0.8,1.3l-1.9,1.1l2,3.5c0.5,0.8,1,1,1.6,0.6
	c0.2-0.1,0.4-0.3,0.6-0.6l1.1,1c-0.3,0.4-0.6,0.7-1,0.9c-0.6,0.4-1.4,0.5-2.1,0.4c-0.8-0.3-1.4-0.8-1.8-1.5l-2-3.4L853.9,134.5z"/>
<path class="st0" d="M818,89.4c-0.8,0-1.6-0.1-2.4-0.4c-2.3-0.7-4.1-2.6-4.5-5c-2.2,0.3-4.5-0.5-6.1-2c-2-1.8-3-4.5-2.6-7.2
	c0.5-2.5,2.1-4.7,4.4-5.8c1.8-0.9,3.9-1,5.8-0.4c0.5-2.1,1.9-3.8,3.9-4.7c1.6-0.8,3.5-0.9,5.1-0.1c2.5-4.7,8.3-6.1,12.8-5.4
	c4.7,0.8,8,3.6,8.8,7.6c1.2-0.7,2.6-1,3.9-0.8c2.1,0.2,4,1.4,5.2,3.1c2.2,3.4,1.6,7.9-1.5,10.6c-0.3,0.3-0.8,0.3-1.1-0.1
	c-0.3-0.3-0.3-0.8,0.1-1.1c2.4-2.1,2.9-5.7,1.2-8.5c-0.9-1.3-2.4-2.2-4-2.4c-1.4-0.2-2.8,0.2-3.9,1.2c-0.2,0.2-0.6,0.3-0.8,0.2
	c-0.3-0.1-0.5-0.4-0.5-0.7c-0.3-4.7-4.2-6.9-7.7-7.5c-4.3-0.7-9.6,0.8-11.5,5.2c-0.1,0.2-0.3,0.4-0.5,0.4c-0.2,0.1-0.5,0-0.7-0.1
	c-1.3-0.9-3-1-4.3-0.2c-1.8,0.9-2.9,2.6-3.2,4.5c0,0.3-0.2,0.5-0.4,0.6c-0.2,0.1-0.5,0.1-0.8,0c-1.7-0.9-3.7-0.9-5.4,0
	c-1.8,0.9-3.2,2.6-3.5,4.6c-0.3,2.1,0.5,4.3,2.1,5.8c1.5,1.4,3.6,2,5.5,1.4c0.4-0.1,0.9,0.1,1,0.6c0,0.1,0,0.1,0,0.2
	c0,2.1,1.5,3.9,3.5,4.5c2.1,0.8,4.4,0.1,5.8-1.6c0.3-0.4,0.8-0.4,1.1-0.1c0.4,0.3,0.4,0.8,0.1,1.1l0,0C821.9,88.5,820,89.4,818,89.4
	z"/>
<path class="st0" d="M805.4,61.1c-0.1,0-0.3-0.1-0.4-0.2c-0.2-0.2-0.1-0.5,0.1-0.7c6.1-4.4,13.6-6.5,21.2-6c0.3,0,0.5,0.2,0.5,0.5
	c0,0.3-0.2,0.5-0.5,0.5c-7.3-0.5-14.6,1.5-20.5,5.8C805.6,61.1,805.5,61.1,805.4,61.1z"/>
<path class="st0" d="M801.3,64.8c-0.1,0-0.2,0-0.3-0.1c-0.2-0.2-0.2-0.5-0.1-0.7c0.6-0.7,1.2-1.4,1.9-2c0.2-0.2,0.5-0.2,0.7,0
	c0.2,0.2,0.2,0.5,0,0.7l0,0c-0.7,0.6-1.3,1.3-1.8,2C801.6,64.8,801.4,64.9,801.3,64.8z"/>
<path class="st0" d="M839.6,111.8c-0.1,0-0.2,0-0.3-0.1c-0.2-0.1-16.8-8.2-18-31.5c0-0.3,0.2-0.6,0.5-0.8c0.6-0.3,14.2-6.3,33.8,0
	c0.3,0.1,0.6,0.4,0.6,0.8c0,0.2-0.2,22.3-16.1,31.5C839.9,111.8,839.8,111.8,839.6,111.8z M822.9,80.7c1.3,20,14.3,28.1,16.7,29.4
	c13.3-8,14.8-25.9,14.9-29.3C837.8,75.6,825.5,79.7,822.9,80.7z"/>
<path class="st0" d="M828.3,69c0-0.6-0.4-1-0.9-1.1c0,0-0.1,0-0.1,0c-0.6,0-1.1,0.4-1.1,1c0,0.6,0.4,1.1,1,1.1
	C827.8,70,828.3,69.6,828.3,69L828.3,69z"/>
<path class="st0" d="M838.6,69.7c0-0.6-0.4-1.1-1-1.1c-0.6,0-1.1,0.4-1.1,1l0,0c0,0.6,0.4,1.1,1,1.1C838,70.7,838.5,70.3,838.6,69.7
	z"/>
<path class="st0" d="M829,70.5c-0.5,0.8,1.2,2.4,2.9,2.5c2.5,0.2,4.1-1.7,3.8-2.6s-1.5,0.4-3.5,0.3C830.8,70.7,829.5,69.6,829,70.5z
	"/>
<path class="st1" d="M839,96.6c-0.1,0-0.2-0.1-0.3-0.1l-4-3.9c-0.2-0.2-0.2-0.5,0-0.7c0.2-0.2,0.5-0.2,0.7,0c0,0,0,0,0,0l3.7,3.6
	c1.2-1.4,5.2-6.2,8.8-7.9c0.2-0.1,0.5,0,0.6,0.2c0.1,0.2,0,0.5-0.2,0.6c-4,1.8-8.7,7.9-8.7,8C839.3,96.5,839.2,96.5,839,96.6
	L839,96.6z"/>
<path class="st2" d="M844.7,88c-2.4-3.3-7-4-10.3-1.6s-4,7-1.6,10.3c2.4,3.3,7,4,10.3,1.6c1.9-1.4,3-3.6,3-5.9c0-0.3,0-0.6-0.1-0.8"
	/>
<path class="st0" d="M565.7,129.5c-24-20.9-26.5-57.3-5.6-81.3c6.7-7.7,15.2-13.4,24.8-16.7c-0.2-0.7-0.3-1.4-0.4-2.2
	c-31.3,10.5-48.2,44.4-37.7,75.7c3.5,10.3,9.7,19.5,18,26.6C565,130.9,565.3,130.2,565.7,129.5z"/>
<path class="st0" d="M622.4,29.3c-0.1,0.7-0.2,1.5-0.3,2.2c30.1,10.2,46.3,42.9,36.1,73.1c-3.3,9.7-9.1,18.3-16.8,25
	c0.3,0.7,0.5,1.5,0.8,2.2c25.3-21.3,28.5-59,7.3-84.3C642.2,39.1,632.9,32.8,622.4,29.3z"/>
<path class="st0" d="M604.8,79.9c3,0.1,5.4-2.3,5.5-5.3v-9.6c-0.1-3-2.5-5.3-5.5-5.3h-19.3c-3,0-5.4,2.3-5.4,5.3v18.3
	c0,0.3,0.1,0.5,0.4,0.6c0.1,0,0.2,0,0.2,0c0.2,0,0.3-0.1,0.4-0.2l3.7-4.2L604.8,79.9z M581.2,74.6v-9.6c0.1-2.2,2-4,4.2-3.9h19.3
	c2.3-0.1,4.2,1.7,4.3,3.9v9.6c-0.1,2.2-2,4-4.2,3.9l-20.3-0.2l0,0h-0.1h-0.2c-0.1,0-0.1,0.1-0.2,0.1l0,0l-2.9,3.2L581.2,74.6z"/>
<path class="st0" d="M630.1,102V89.8c0-3.5-2.9-6.4-6.4-6.4h-23.5c-3.6,0-6.4,2.9-6.4,6.4v8.6l-3.3,5.5c-0.1,0.2-0.1,0.3,0,0.5
	c0.1,0.2,0.2,0.3,0.4,0.3l4.5,1.1l-3.3,6.6c-0.1,0.2-0.1,0.5,0.2,0.7c0.1,0.1,0.2,0.1,0.3,0.1c0.1,0,0.3,0,0.3-0.1l5.3-4.5h24.3
	l6.9,5.2c0.1,0.1,0.2,0.1,0.3,0.1c0.1,0,0.2,0,0.2,0c0.2-0.1,0.3-0.3,0.3-0.5v-11.3C630.1,102.1,630.1,102,630.1,102z M596.5,105.7
	c0.1-0.2,0.1-0.3,0-0.5c-0.1-0.1-0.2-0.3-0.4-0.3l-4.4-1l4.6-7.8l3.2-0.6l-4.1,6.2c-0.1,0.1-0.1,0.3-0.1,0.5
	c0.1,0.2,0.2,0.3,0.3,0.3l5.5,1.9l-7.2,6.1L596.5,105.7z M629,112.3l-6.1-4.7c-0.1-0.1-0.3-0.1-0.5-0.1h-23.2l3.4-2.9
	c0.2-0.2,0.3-0.5,0.1-0.8c-0.1-0.1-0.1-0.1-0.2-0.2l-5.8-2l4.5-6.7c0.2-0.3,0.1-0.6-0.2-0.8c-0.1-0.1-0.2-0.1-0.4-0.1L596,95
	c-0.2,0-0.3,0.1-0.4,0.3l-0.8,1.4v-6.9c0-3,2.4-5.4,5.4-5.4l0,0h23.5c3,0,5.4,2.4,5.4,5.4V102c0,0,0,0.1,0,0.1L629,112.3z"/>
<path class="st0" d="M619.2,64.5c0,0,1,0.2,1,1c0,0.1,0.1,0.3,0.3,0.3l0,0l0,0c0.1,0,0.3-0.1,0.3-0.3c0-0.6,0.4-1,1-1
	c0.1,0,0.3-0.1,0.3-0.3c0-0.1-0.1-0.3-0.2-0.3c0,0-1-0.1-1-1c0-0.1-0.1-0.3-0.3-0.3c-0.1,0-0.3,0.1-0.3,0.2c0,0,0,0,0,0
	c0,0-0.2,1-1,1c-0.1,0-0.3,0.1-0.3,0.2C618.9,64.3,619,64.5,619.2,64.5z M620.5,63.8c0.1,0.2,0.3,0.3,0.4,0.4
	c-0.2,0.1-0.3,0.3-0.4,0.4c-0.1-0.2-0.3-0.3-0.4-0.4C620.2,64.1,620.4,64,620.5,63.8z"/>
<path class="st0" d="M622.5,60.7c0,0,1.5,0.3,1.5,1.4c0,0.1,0.1,0.3,0.3,0.3l0,0c0.1,0,0.3-0.1,0.3-0.3c0-0.8,0.6-1.4,1.4-1.4
	c0,0,0,0,0,0c0.1,0,0.3-0.1,0.3-0.2c0-0.1-0.1-0.3-0.2-0.3c0,0-1.4-0.2-1.4-1.4c0-0.1-0.1-0.3-0.2-0.3c-0.1,0-0.3,0.1-0.3,0.2
	c0,0.1-0.2,1.5-1.4,1.5c-0.1,0-0.3,0.1-0.3,0.2c0,0,0,0,0,0C622.3,60.6,622.4,60.7,622.5,60.7z M624.2,59.7c0.2,0.3,0.4,0.5,0.7,0.7
	c-0.3,0.2-0.6,0.4-0.7,0.8c-0.2-0.3-0.4-0.5-0.8-0.7C623.8,60.3,624.1,60,624.2,59.7L624.2,59.7z"/>
<path class="st0" d="M625.8,65.4c0-0.1-0.1-0.3-0.2-0.3c-0.1,0-0.3,0.1-0.3,0.2c0,0,0,0,0,0c0,0-0.1,0.9-0.9,0.9
	c-0.1,0-0.3,0.1-0.3,0.2c0,0,0,0,0,0c0,0.1,0.1,0.3,0.2,0.3c0,0,0.9,0.2,0.9,0.9c0,0.1,0.1,0.3,0.3,0.3l0,0c0.1,0,0.3-0.1,0.3-0.2
	c0,0,0,0,0,0c0-0.5,0.4-0.9,0.9-0.9c0.1,0,0.3-0.1,0.3-0.2c0-0.1-0.1-0.3-0.2-0.3C626.7,66.3,625.8,66.2,625.8,65.4z M625.5,66.9
	c-0.1-0.1-0.2-0.2-0.4-0.3c0.1-0.1,0.3-0.2,0.4-0.4c0.1,0.1,0.2,0.2,0.3,0.3C625.7,66.7,625.6,66.8,625.5,66.9z"/>
<path class="st0" d="M579.5,95.4c0,0-1-0.1-1-1c0-0.1-0.1-0.3-0.3-0.3c-0.1,0-0.3,0.1-0.3,0.3c0,0-0.2,1-1,1c-0.1,0-0.3,0.1-0.3,0.2
	c0,0.1,0.1,0.3,0.2,0.3c0,0,1,0.2,1,1c0,0.1,0.1,0.3,0.2,0.3c0,0,0,0,0,0l0,0c0.1,0,0.3-0.1,0.3-0.3c0-0.6,0.4-1,1-1
	c0.1,0,0.3-0.1,0.3-0.2c0,0,0,0,0,0C579.8,95.6,579.7,95.5,579.5,95.4C579.5,95.5,579.5,95.5,579.5,95.4z M578.2,96.1
	c-0.1-0.2-0.3-0.3-0.4-0.4c0.2-0.1,0.3-0.3,0.4-0.5c0.1,0.2,0.3,0.3,0.4,0.4C578.5,95.8,578.3,96,578.2,96.1z"/>
<path class="st0" d="M584.4,97.8c0,0-0.9-0.1-0.9-0.9c0-0.1-0.1-0.3-0.2-0.3c-0.1,0-0.3,0.1-0.3,0.2c0,0,0,0,0,0
	c0,0-0.1,0.9-0.9,0.9c-0.1,0-0.3,0.1-0.3,0.3c0,0.1,0.1,0.3,0.3,0.3c0,0,0.9,0.2,0.9,0.9c0,0.1,0.1,0.3,0.3,0.3l0,0l0,0
	c0.1,0,0.3-0.1,0.3-0.3c0-0.5,0.4-0.9,0.9-0.9c0,0,0,0,0,0c0.1,0,0.3-0.1,0.3-0.2C584.7,98,584.6,97.8,584.4,97.8
	C584.4,97.8,584.4,97.8,584.4,97.8z M583.2,98.4c-0.1-0.1-0.2-0.2-0.4-0.3c0.1-0.1,0.3-0.2,0.4-0.4c0.1,0.1,0.2,0.2,0.3,0.3
	C583.4,98.2,583.3,98.3,583.2,98.4z"/>
<path class="st0" d="M589.7,25.7l-0.3-1.5l1-0.2l-0.1-0.4c-0.2-0.8-0.1-1.6,0.3-2.3c0.4-0.6,1.1-1,1.9-1.1c0.5-0.1,0.9-0.1,1.4,0
	l-0.1,1.5c-0.3-0.1-0.7-0.1-1,0c-0.7,0.1-1,0.6-0.9,1.5l0.1,0.5l1.8-0.3l0.3,1.5l-1.8,0.3l1.2,6.6l-1.7,0.3l-1.3-6.6L589.7,25.7z"/>
<path class="st0" d="M596.1,28.9c-0.1-0.8,0.3-1.5,0.8-2c0.7-0.6,1.6-0.9,2.5-0.9l1.4-0.1v-0.4c0-0.4-0.2-0.8-0.5-1.1
	c-0.3-0.2-0.8-0.3-1.2-0.3c-0.7,0-1.3,0.5-1.5,1.2l-1.6-0.2c0.1-0.7,0.5-1.3,1-1.7c0.6-0.5,1.3-0.7,2-0.8c2.2-0.1,3.4,0.9,3.5,3
	l0.3,5.1l-1.4,0.1l-0.2-1.1c-0.5,0.8-1.5,1.4-2.5,1.4c-0.7,0.1-1.3-0.1-1.8-0.5C596.5,30.3,596.2,29.6,596.1,28.9z M597.9,28.8
	c0,0.3,0.1,0.5,0.3,0.7c0.2,0.2,0.5,0.3,0.8,0.2c0.6,0,1.1-0.3,1.5-0.6c0.4-0.4,0.6-1,0.5-1.6v-0.2l-1.5,0.1c-0.4,0-0.9,0.2-1.2,0.4
	C598.1,28.1,597.9,28.4,597.9,28.8z"/>
<path class="st0" d="M607.9,22.7c0.5,0,1,0.2,1.4,0.4c0.4,0.2,0.8,0.6,1,1l-1.1,0.9c-0.3-0.5-0.8-0.8-1.4-0.8c-0.2,0-0.4,0-0.6,0.2
	c-0.2,0.1-0.3,0.4-0.3,0.6c0,0.3,0.1,0.5,0.3,0.7c0.3,0.2,0.7,0.4,1.1,0.6c0.3,0.1,0.5,0.2,0.7,0.3c0.2,0.1,0.4,0.2,0.6,0.4
	c0.2,0.1,0.4,0.3,0.5,0.5c0.3,0.4,0.4,0.9,0.4,1.4c0,0.7-0.4,1.4-0.9,1.8c-0.6,0.5-1.4,0.7-2.1,0.6c-0.7,0-1.4-0.3-2-0.8
	c-0.5-0.4-0.9-1-1.1-1.6l1.5-0.7c0.4,1,0.9,1.5,1.7,1.6c0.5,0.1,1.1-0.3,1.2-0.8c0-0.1,0-0.1,0-0.2c0-0.1,0-0.3-0.1-0.4
	c-0.1-0.1-0.2-0.2-0.3-0.3l-0.4-0.2l-0.5-0.3l-0.5-0.2c-1-0.4-1.7-1.3-1.6-2.4c0-0.6,0.3-1.2,0.8-1.6
	C606.6,22.8,607.2,22.6,607.9,22.7z"/>
<path class="st0" d="M612,24.7l0.3-1.5l1.3,0.2l0.4-2.2l1.9-0.7l-0.6,3.3l2.1,0.4l-0.3,1.5l-2.1-0.4l-0.7,4
	c-0.2,0.9,0.1,1.4,0.8,1.5c0.3,0,0.6,0,0.8-0.1l0.2,1.5c-0.4,0.1-0.9,0.1-1.4,0c-0.7-0.1-1.4-0.5-1.8-1.1c-0.4-0.7-0.5-1.5-0.3-2.3
	l0.7-3.8L612,24.7z"/>
<path class="st0" d="M570.7,138.9l-1.5-0.9l4.3-7l1.5,0.9l-0.7,1.2c0.5-0.3,1-0.4,1.5-0.4c0.5,0,1,0.1,1.4,0.4
	c0.3,0.2,0.6,0.4,0.8,0.7l-1.1,1.2c-0.2-0.3-0.4-0.5-0.7-0.7c-0.6-0.3-1.3-0.3-1.9,0c-0.9,0.5-1.5,1.2-2,2.1L570.7,138.9z"/>
<path class="st0" d="M584,140.7l-0.3,0.7l-5.3-2.4c-0.3,0.5-0.3,1.1-0.2,1.7c0.2,0.6,0.6,1,1.1,1.2c0.4,0.2,0.9,0.2,1.3,0.2
	c0.5-0.1,0.9-0.3,1.2-0.6l1.1,1.1c-0.6,0.5-1.3,0.9-2,1.1c-1.4,0.1-2.7-0.4-3.7-1.4c-0.3-0.4-0.6-0.9-0.7-1.4
	c-0.1-0.5-0.1-1-0.1-1.5c0-0.5,0.2-1,0.4-1.5c0.2-0.5,0.5-0.9,0.8-1.3c0.3-0.4,0.7-0.7,1.2-1c0.5-0.3,1-0.4,1.5-0.4
	c1.2,0,2.4,0.5,3.2,1.4c0.3,0.4,0.6,0.8,0.7,1.4c0.1,0.5,0.1,1,0.1,1.4C584.3,139.7,584.2,140.2,584,140.7z M581.5,136.9
	c-0.4-0.2-1-0.2-1.4-0.1c-0.5,0.2-0.9,0.5-1.1,0.9l3.7,1.6c0.1-0.5,0.1-1-0.1-1.4C582.4,137.4,582,137.1,581.5,136.9L581.5,136.9z"
	/>
<path class="st0" d="M589.8,138.2c0.5,0.1,0.9,0.4,1.3,0.7c0.4,0.3,0.6,0.7,0.8,1.2l-1.3,0.6c-0.2-0.5-0.6-0.9-1.2-1.1
	c-0.2-0.1-0.4,0-0.6,0.1c-0.2,0.1-0.3,0.3-0.4,0.5c-0.1,0.2,0,0.5,0.2,0.7c0.3,0.3,0.6,0.6,0.9,0.8l0.6,0.4c0.2,0.1,0.3,0.3,0.5,0.5
	c0.2,0.2,0.3,0.4,0.4,0.6c0.1,0.2,0.2,0.4,0.2,0.6c0,0.3,0,0.5-0.1,0.8c-0.2,0.7-0.6,1.3-1.2,1.6c-0.7,0.4-1.5,0.4-2.2,0.2
	c-0.7-0.2-1.3-0.6-1.8-1.1c-0.4-0.5-0.7-1.2-0.8-1.8l1.6-0.4c0.2,1.1,0.6,1.7,1.4,1.9c0.5,0.2,1.1-0.1,1.3-0.6c0-0.1,0-0.1,0.1-0.2
	c0-0.1,0-0.3,0-0.4c0-0.1-0.1-0.3-0.2-0.4c-0.1-0.1-0.2-0.2-0.3-0.3s-0.3-0.2-0.5-0.4l-0.5-0.4c-0.9-0.5-1.4-1.6-1.1-2.6
	c0.2-0.6,0.6-1.1,1.1-1.4C588.5,138,589.1,138,589.8,138.2z"/>
<path class="st0" d="M601.2,144.3c-0.1,1.1-0.5,2.2-1.3,3c-0.8,0.7-1.8,1-2.9,0.8c-0.5,0-0.9-0.2-1.3-0.4c-0.3-0.2-0.6-0.5-0.8-0.8
	l-0.5,4.2l-1.7-0.2l1.3-11.5l1.7,0.2l-0.1,0.9c0.2-0.3,0.6-0.5,0.9-0.6c0.4-0.2,0.9-0.2,1.4-0.2c1,0,2,0.6,2.6,1.4
	C601.2,142,601.4,143.2,601.2,144.3z M598.6,146c0.9-1.1,1.1-2.7,0.4-4c-0.3-0.5-0.8-0.8-1.4-0.9c-0.6-0.1-1.2,0.1-1.6,0.6
	c-0.9,1.1-1.1,2.7-0.4,4c0.3,0.5,0.8,0.9,1.4,0.9C597.6,146.7,598.2,146.4,598.6,146z"/>
<path class="st0" d="M604.5,147.3c-1.6-1.7-1.7-4.2-0.4-6.1c1.5-1.7,4.2-1.9,5.9-0.4c0,0,0,0,0,0c1.6,1.6,1.7,4.2,0.4,6
	C608.9,148.6,606.3,148.8,604.5,147.3C604.6,147.2,604.6,147.2,604.5,147.3L604.5,147.3z M605.5,142.3c-0.4,0.6-0.5,1.3-0.5,2
	c0,0.7,0.3,1.4,0.7,1.9c0.4,0.5,1.1,0.8,1.7,0.7c0.7,0,1.3-0.4,1.6-0.9c0.7-1.2,0.6-2.8-0.2-3.9c-0.8-0.9-2.1-0.9-3-0.2
	C605.8,142,605.6,142.2,605.5,142.3L605.5,142.3z"/>
<path class="st0" d="M612.8,139.4l1.7-0.4l0.3,1.4c0.2-0.5,0.5-1,0.8-1.4c0.4-0.4,0.9-0.6,1.4-0.7c1.2-0.4,2.5,0.3,2.8,1.5
	c0,0.1,0.1,0.3,0.1,0.4l1.4,5.8l-1.7,0.4l-1.2-5.2c-0.2-1-0.8-1.4-1.6-1.2c-0.6,0.2-1.1,0.7-1.2,1.3c-0.3,0.9-0.3,1.8,0,2.6l0.8,3.2
	l-1.7,0.4L612.8,139.4z"/>
<path class="st0" d="M623.7,136c0.5-0.2,0.9-0.2,1.4-0.2c0.5,0.1,0.9,0.2,1.3,0.5l-0.7,1.3c-0.5-0.3-1.1-0.4-1.6-0.2
	c-0.2,0.1-0.4,0.2-0.5,0.4c-0.1,0.2-0.1,0.4,0,0.6c0.1,0.2,0.3,0.4,0.6,0.5c0.4,0.1,0.8,0.1,1.2,0.1h0.7c0.2,0,0.5,0,0.7,0.1
	c0.2,0,0.5,0.1,0.7,0.2c0.2,0.1,0.4,0.2,0.5,0.4c0.2,0.2,0.3,0.4,0.4,0.7c0.3,0.6,0.3,1.4,0,2c-0.3,0.7-0.9,1.2-1.6,1.5
	c-0.7,0.3-1.4,0.3-2.1,0.1c-0.6-0.2-1.2-0.5-1.7-1l1-1.3c0.5,0.7,1.4,1,2.2,0.7c0.5-0.1,0.8-0.7,0.7-1.2c0-0.1,0-0.1-0.1-0.2
	c0-0.1-0.1-0.2-0.2-0.3c-0.1-0.1-0.3-0.1-0.4-0.1c-0.2,0-0.3,0-0.5-0.1h-1.2c-1.1,0.1-2.1-0.5-2.5-1.4c-0.3-0.6-0.3-1.2,0-1.8
	C622.5,136.7,623.1,136.2,623.7,136z"/>
<path class="st0" d="M636.1,134l0.4,0.6l-5,3c0.3,0.5,0.7,0.9,1.3,1.1c0.5,0.2,1.1,0.1,1.6-0.2c0.4-0.2,0.7-0.6,0.9-1
	c0.2-0.4,0.3-0.9,0.3-1.3l1.5-0.2c0.1,0.8,0,1.5-0.3,2.3c-0.7,1.2-1.9,2-3.3,2.1c-0.5,0-1.1,0-1.5-0.3c-0.9-0.4-1.7-1.1-2.2-2
	c-0.3-0.4-0.5-0.9-0.6-1.4c-0.1-0.5-0.1-1-0.1-1.5c0-0.5,0.2-1,0.5-1.5c0.3-0.5,0.8-0.9,1.3-1.2c0.5-0.3,1.1-0.5,1.7-0.6
	c0.5-0.1,1,0,1.5,0.2c0.4,0.2,0.9,0.4,1.2,0.8C635.6,133.2,635.9,133.6,636.1,134z M631.6,133.8c-0.4,0.2-0.8,0.6-0.9,1.1
	c-0.1,0.5-0.1,1,0.1,1.5l3.5-2c-0.3-0.4-0.7-0.7-1.2-0.8C632.5,133.4,632,133.5,631.6,133.8L631.6,133.8z"/>
<path class="st0" d="M608.8,94.4c-0.5,0.8,1.2,2.3,2.9,2.5c2.5,0.2,4.1-1.7,3.8-2.6s-1.5,0.4-3.5,0.3
	C610.6,94.6,609.3,93.5,608.8,94.4z"/>
<path class="st0" d="M594.6,67.6L594.6,67.6l-0.1-0.2c-0.1-0.1-0.2-0.3-0.2-0.4c-0.1-0.1-0.1-0.2-0.2-0.2c-0.1-0.1-0.1-0.1-0.2-0.2
	c-0.1-0.1-0.2-0.1-0.3-0.1h-0.2h-0.3h-0.1h-0.1H593c-0.1,0-0.2,0.1-0.3,0.2c-0.2,0.1-0.3,0.3-0.4,0.5c-0.1,0.1-0.1,0.3-0.2,0.4
	l-0.1,0.2l0,0c0,0.1-0.1,0.1-0.2,0.1c-0.1,0-0.1-0.1-0.1-0.2v-0.1c0-0.1,0-0.1,0-0.2c0-0.2,0-0.4,0.1-0.6c0.1-0.3,0.2-0.5,0.4-0.7
	c0.1-0.1,0.3-0.2,0.4-0.3l0.1-0.1h0.1h0.1h0.1h0.3c0.1,0,0.2,0,0.3,0c0.2,0,0.3,0.1,0.5,0.2c0.2,0.2,0.4,0.4,0.5,0.7
	c0.1,0.2,0.1,0.4,0.2,0.6c0,0.1,0,0.1,0,0.2v0.1c0,0.1-0.1,0.2-0.1,0.2c0,0,0,0,0,0C594.7,67.7,594.7,67.7,594.6,67.6L594.6,67.6z"
	/>
<path class="st0" d="M600.5,66.6L600.5,66.6c0,0,0-0.1,0-0.2c0-0.2,0-0.4,0-0.6c0.1-0.3,0.2-0.6,0.4-0.8c0.1-0.1,0.3-0.2,0.4-0.3
	c0.1,0,0.2-0.1,0.3-0.1h0.5h0.2h0.1c0.2,0,0.3,0.1,0.5,0.2c0.2,0.2,0.4,0.4,0.6,0.6c0.1,0.2,0.2,0.3,0.2,0.5c0,0.1,0,0.1,0,0.2v0.1
	c0,0.1,0,0.2-0.1,0.2c-0.1,0-0.1,0-0.2-0.1l0,0l-0.1-0.2c-0.1-0.1-0.2-0.2-0.3-0.4c-0.1-0.2-0.3-0.3-0.5-0.4
	c-0.1-0.1-0.2-0.1-0.3-0.1H602h-0.4l0,0h-0.1h-0.1c-0.1,0-0.2,0.1-0.2,0.2c-0.1,0.1-0.1,0.2-0.2,0.2c0,0.1,0,0.2,0,0.3
	c-0.1,0.1-0.1,0.3-0.1,0.5v0.1v0.1l0,0c0,0.1-0.1,0.1-0.2,0.1C600.6,66.8,600.5,66.7,600.5,66.6C600.5,66.6,600.5,66.6,600.5,66.6z"
	/>
<path class="st0" d="M596.9,69.1l0.1,0.2c0.1,0.2,0.1,0.4,0.2,0.6c0.1,0.1,0.1,0.2,0.2,0.3c0.1,0.1,0.1,0.2,0.2,0.3
	c0.1,0.1,0.2,0.2,0.3,0.2c0.1,0,0.2,0.1,0.3,0.1h0.1h0.1l0.2-0.1c0.1,0,0.1-0.1,0.2-0.1l0.1-0.1c0.1-0.1,0.2-0.2,0.2-0.3
	c0.1-0.1,0.1-0.2,0.2-0.3c0.1-0.2,0.2-0.4,0.2-0.6l0.1-0.2l0,0c0-0.1,0.1-0.1,0.2-0.1c0.1,0,0.1,0.1,0.1,0.2c0,0,0,0.1,0,0.2
	c0,0.2-0.1,0.4-0.1,0.7c-0.1,0.3-0.2,0.6-0.4,0.9l-0.2,0.2c-0.1,0.1-0.2,0.1-0.3,0.2c-0.1,0.1-0.2,0.1-0.3,0.1c-0.1,0-0.1,0-0.2,0
	h-0.1c-0.2,0-0.5,0-0.7-0.1c-0.2-0.1-0.3-0.2-0.5-0.4c-0.1-0.1-0.2-0.3-0.3-0.5c-0.1-0.1-0.1-0.3-0.2-0.4c-0.1-0.3-0.1-0.6-0.1-0.9
	c0-0.1,0.1-0.2,0.2-0.2C596.9,68.9,596.9,69,596.9,69.1L596.9,69.1z"/>
<path class="st0" d="M608.7,92.7c-0.1,0-0.2,0-0.2-0.1c0,0,0,0,0,0l0,0v-0.1l-0.1-0.2c-0.1-0.2-0.2-0.4-0.3-0.6
	c-0.1-0.1-0.2-0.2-0.3-0.4l-0.2-0.2l-0.2-0.1c-0.1-0.1-0.3-0.1-0.5-0.2c-0.1,0-0.2,0-0.2,0h-0.2c0,0-0.1,0-0.1,0c-0.1,0-0.2,0-0.2,0
	h-0.1H606c-0.1,0.1-0.3,0.2-0.4,0.3c-0.1,0.1-0.2,0.3-0.3,0.4l-0.2,0.4c-0.1,0.2-0.2,0.4-0.2,0.7l0,0.2v0.1c0,0.1-0.1,0.1-0.2,0.2
	c-0.1,0-0.2-0.1-0.2-0.2c0,0,0,0,0,0c0-0.4,0-0.7,0.1-1.1c0-0.1,0-0.1,0.1-0.2l-1-1c-0.1-0.1-0.1-0.3,0-0.4c0.1,0,0.1-0.1,0.2-0.1
	c0.1,0,0.1,0,0.2,0.1l0.8,0.8l0,0c0.1-0.1,0.1-0.2,0.2-0.3c0.1-0.2,0.3-0.4,0.5-0.5l0.2-0.1l0,0l-0.2-1c0-0.1,0.1-0.3,0.2-0.3h0.1
	c0.1,0,0.2,0.1,0.3,0.2l0.2,1c0.1,0,0.1,0,0.2,0h0.2c0.1,0,0.2,0,0.4,0.1c0.2,0.1,0.4,0.1,0.6,0.3l0.6-0.9c0.1-0.1,0.1-0.1,0.2-0.1
	c0,0,0.1,0,0.2,0c0.1,0.1,0.2,0.2,0.1,0.4c0,0,0,0,0,0l-0.6,1l0.1,0.1c0.1,0.1,0.2,0.3,0.3,0.5c0.1,0.2,0.2,0.5,0.3,0.8
	c0,0.1,0,0.1,0,0.2v0.1C608.8,92.5,608.8,92.6,608.7,92.7z"/>
<path class="st0" d="M620.2,89l-0.7,1.2c0.1,0.1,0.1,0.3,0.2,0.4c0.1,0.3,0.1,0.6,0.2,0.8c0,0.1,0,0.2,0,0.2v0.1
	c0,0.1-0.1,0.2-0.2,0.2c0,0,0,0,0,0c-0.1,0-0.2-0.1-0.2-0.2c0,0,0,0,0,0s0-0.1,0-0.3c-0.1-0.2-0.1-0.5-0.2-0.7
	c-0.1-0.1-0.1-0.3-0.2-0.4c-0.1-0.1-0.2-0.2-0.4-0.3c-0.1,0-0.1-0.1-0.2-0.1h-0.1h-0.1H618h-0.4c-0.1,0-0.2,0-0.2,0
	c-0.1,0-0.2,0-0.2,0.1L617,90l-0.1,0.1c-0.1,0-0.1,0.1-0.2,0.2c-0.1,0.1-0.2,0.3-0.3,0.4c-0.2,0.4-0.3,0.7-0.3,1.1V92v0.1l0,0
	c0,0.1-0.1,0.2-0.2,0.2c-0.1,0-0.1-0.1-0.2-0.2V92c0-0.1,0-0.1,0-0.2c0-0.3,0-0.6,0-0.8l0.1-0.3c0-0.1,0.1-0.2,0.1-0.3
	c0.1-0.2,0.1-0.3,0.2-0.4l-0.7-1c-0.1-0.1-0.1-0.3,0.1-0.4c0.1,0,0.1,0,0.2,0c0.1,0,0.2,0,0.2,0.1l0.7,0.9c0.1-0.1,0.2-0.1,0.3-0.2
	c0.1-0.1,0.2-0.1,0.4-0.1c0.1,0,0.2-0.1,0.3-0.1l0.1-0.9c0-0.1,0.1-0.2,0.3-0.2l0,0c0.1,0,0.2,0.1,0.2,0.3c0,0,0,0,0,0l-0.1,0.8l0,0
	h0.2h0.2l0.2,0.1c0.1,0.1,0.2,0.1,0.3,0.2c0.1,0,0.1,0.1,0.2,0.2l0.7-1c0.1-0.1,0.1-0.1,0.2-0.1c0,0,0.1,0,0.2,0
	c0.2,0,0.3,0.1,0.3,0.2C620.5,88.8,620.4,89,620.2,89L620.2,89z"/>
<path class="st0" d="M1088.1,38.9c-0.2,0.7-0.5,1.5-0.7,2.2c25.8,18.7,31.5,54.7,12.8,80.5c-6.1,8.4-14.4,15.1-24,19.1
	c0.2,0.7,0.3,1.4,0.5,2.2c30.5-12.8,44.8-47.9,32-78.3C1104.3,54.3,1097.2,45.4,1088.1,38.9L1088.1,38.9z"/>
<path class="st0" d="M1030.4,140.6c-29.2-12.7-42.5-46.7-29.8-75.9c4.1-9.4,10.6-17.5,18.9-23.5c-0.2-0.7-0.5-1.5-0.7-2.2
	c-26.9,19.1-33.3,56.5-14.2,83.4c6.4,9,15.1,16.1,25.3,20.4C1030,142,1030.2,141.3,1030.4,140.6z"/>
<path class="st0" d="M1029.2,33.3l0.3,0.7l-5.2,2.8c0.3,0.5,0.7,0.9,1.2,1.2c0.5,0.2,1.1,0.2,1.6-0.1c0.4-0.2,0.8-0.5,1-0.9
	c0.2-0.4,0.3-0.9,0.3-1.3l1.6-0.2c0,0.8-0.1,1.5-0.4,2.2c-0.7,1.2-2,1.9-3.4,2c-0.5,0-1.1-0.1-1.5-0.3c-0.5-0.2-0.9-0.5-1.2-0.9
	c-0.4-0.4-0.7-0.8-0.9-1.2c-0.2-0.4-0.4-0.9-0.5-1.4c-0.1-0.5-0.1-1,0-1.5c0.1-0.5,0.3-1,0.6-1.5c0.7-1,1.8-1.5,3-1.6
	c0.5,0,1,0.1,1.5,0.3C1028.1,31.8,1028.8,32.5,1029.2,33.3L1029.2,33.3z M1024.7,32.9c-0.5,0.2-0.8,0.6-1,1.1c-0.2,0.5-0.2,1,0,1.5
	l3.5-1.9c-0.3-0.4-0.7-0.7-1.2-0.8C1025.6,32.6,1025.1,32.6,1024.7,32.9L1024.7,32.9z"/>
<path class="st0" d="M1033.5,27.6l1.7-0.6l-1,4.5l4,3.2l-1.7,0.6l-2.7-2.1l-0.7,3.3l-1.7,0.6l1.1-5l-3.6-2.8l1.7-0.6l2.2,1.8
	L1033.5,27.6z"/>
<path class="st0" d="M1043.7,30.6l1.6,0.3c-0.2,1.5-1.5,2.8-3,3c-1.1,0.3-2.2,0.1-3.1-0.6c-0.9-0.7-1.4-1.7-1.6-2.8
	c-0.3-1.1-0.1-2.2,0.4-3.2c0.5-1,1.5-1.6,2.6-1.8c1.5-0.4,3.1,0.2,4,1.5l-1.4,1c-0.5-0.8-1.4-1.2-2.3-1c-0.6,0.1-1.1,0.5-1.4,1.1
	c-0.2,0.7-0.3,1.4-0.1,2.1c0.1,0.7,0.4,1.3,0.9,1.9c0.5,0.4,1.1,0.6,1.7,0.4C1043,32.2,1043.7,31.5,1043.7,30.6z"/>
<path class="st0" d="M1046.4,21.4l1.7-0.2l1.1,11.5l-1.7,0.2L1046.4,21.4z"/>
<path class="st0" d="M1057.9,32.7h-1.7v-1.4c-0.3,0.5-0.7,0.9-1.2,1.1c-0.5,0.3-1,0.4-1.5,0.4c-1.3,0.1-2.3-0.9-2.4-2.2
	c0-0.1,0-0.2,0-0.4l0.1-5.9h1.7l-0.1,5.4c0,1,0.4,1.5,1.2,1.5c0.6,0,1.2-0.4,1.5-0.9c0.5-0.8,0.7-1.7,0.7-2.6l0.1-3.3h1.7
	L1057.9,32.7z"/>
<path class="st0" d="M1063.3,25c0.5,0.1,0.9,0.3,1.3,0.6c0.4,0.3,0.7,0.7,0.9,1.1l-1.2,0.8c-0.2-0.5-0.7-0.9-1.3-1
	c-0.2,0-0.4,0-0.6,0.1c-0.2,0.1-0.3,0.3-0.3,0.6c0,0.3,0.1,0.5,0.2,0.7c0.3,0.3,0.6,0.5,1,0.7l0.6,0.4c0.2,0.1,0.4,0.3,0.6,0.4
	c0.2,0.1,0.3,0.3,0.5,0.5c0.1,0.2,0.2,0.4,0.2,0.6c0.1,0.3,0.1,0.5,0,0.8c-0.1,0.7-0.5,1.3-1.1,1.7c-0.6,0.4-1.4,0.6-2.2,0.4
	c-0.7-0.1-1.4-0.5-1.9-1c-0.5-0.5-0.8-1.1-0.9-1.7l1.5-0.6c0.3,1,0.8,1.6,1.6,1.8c0.5,0.2,1.1-0.2,1.2-0.7c0-0.1,0-0.1,0-0.2
	c0-0.1,0-0.3,0-0.4c-0.1-0.1-0.2-0.2-0.3-0.3c-0.1-0.1-0.3-0.2-0.4-0.3l-0.5-0.3l-0.5-0.3c-1-0.4-1.5-1.4-1.4-2.5
	c0.1-0.6,0.5-1.2,1-1.5C1061.9,25,1062.6,24.9,1063.3,25z"/>
<path class="st0" d="M1068.2,26.1l1.7,0.4l-2,8l-1.7-0.4L1068.2,26.1z M1068.6,24.6c-0.2-0.3-0.2-0.6-0.1-0.9
	c0.1-0.3,0.3-0.6,0.5-0.8c0.3-0.2,0.6-0.2,0.9-0.1c0.6,0.2,1,0.8,0.8,1.5c-0.1,0.3-0.3,0.6-0.5,0.7c-0.3,0.2-0.6,0.2-0.9,0.1
	C1069,25.1,1068.8,24.9,1068.6,24.6z"/>
<path class="st0" d="M1071.7,26.9l1.6,0.6l-0.3,6.2l3.7-5l1.6,0.6l-5.4,6.8l-1.5-0.5L1071.7,26.9z"/>
<path class="st0" d="M1084.6,36.9l-0.3,0.7l-5.2-2.8c-0.3,0.5-0.4,1.1-0.3,1.7c0.1,0.6,0.5,1,1,1.3c0.4,0.2,0.8,0.3,1.3,0.3
	c0.5,0,0.9-0.2,1.3-0.5l1,1.2c-0.6,0.5-1.3,0.8-2.1,0.9c-0.8,0.1-1.5-0.1-2.2-0.5c-0.5-0.3-1-0.7-1.4-1.2c-0.3-0.4-0.5-0.9-0.6-1.5
	c-0.1-0.5-0.1-1,0-1.5c0.1-0.5,0.3-1,0.5-1.4c0.2-0.5,0.5-0.9,0.9-1.2c0.4-0.4,0.8-0.7,1.2-0.9c0.5-0.2,1-0.3,1.5-0.3
	c0.6,0,1.2,0.2,1.7,0.5c0.5,0.3,1,0.7,1.3,1.1c0.3,0.4,0.5,0.9,0.6,1.4c0.1,0.5,0.1,1,0,1.4C1084.9,36,1084.8,36.5,1084.6,36.9z
	 M1082.4,32.9c-0.4-0.3-0.9-0.3-1.4-0.2c-0.5,0.1-0.9,0.4-1.2,0.8l3.5,1.9c0.2-0.5,0.2-1,0-1.4C1083.1,33.6,1082.8,33.2,1082.4,32.9
	L1082.4,32.9z"/>
<path class="st0" d="M1036,146.4c-1-2-0.4-4.5,1.4-5.9c0.9-0.6,2.1-0.8,3.2-0.5c1.1,0.2,2,0.9,2.6,1.9c1,2,0.4,4.5-1.4,5.9
	C1039.8,149,1037.2,148.4,1036,146.4C1036,146.4,1036,146.4,1036,146.4z M1038.4,141.9c-0.5,0.5-0.9,1.1-1,1.7
	c-0.2,0.7-0.1,1.4,0.1,2c0.3,0.6,0.8,1,1.4,1.2c0.6,0.2,1.3,0,1.8-0.4c0.5-0.5,0.9-1.1,1-1.7c0.2-0.7,0.1-1.4-0.1-2
	c-0.5-1.1-1.7-1.5-2.8-1C1038.7,141.7,1038.6,141.8,1038.4,141.9L1038.4,141.9z"/>
<path class="st0" d="M1045.3,142.7l0.2-1.5l1.1,0.1v-0.4c0-0.8,0.4-1.6,1-2.1c0.6-0.4,1.4-0.6,2.1-0.5c0.5,0,0.9,0.2,1.3,0.4
	l-0.5,1.4c-0.3-0.2-0.6-0.3-0.9-0.3c-0.7-0.1-1.2,0.3-1.2,1.2v0.5l1.8,0.2l-0.2,1.5l-1.8-0.2l-0.7,6.7l-1.7-0.2l0.7-6.7
	L1045.3,142.7z"/>
<path class="st0" d="M1051.2,143.3v-1.5h1.1v-0.4c-0.1-0.8,0.2-1.6,0.7-2.2c0.5-0.5,1.3-0.8,2-0.8c0.5,0,0.9,0.1,1.4,0.3l-0.3,1.4
	c-0.3-0.2-0.7-0.2-1-0.2c-0.8,0-1.1,0.4-1.1,1.3v0.5h1.8v1.5h-1.8l0.1,6.8h-1.7l-0.1-6.8L1051.2,143.3z"/>
<path class="st0" d="M1064.7,144.6l0.1,0.7l-5.8,0.7c0.1,0.6,0.3,1.1,0.7,1.5c0.4,0.4,1,0.6,1.6,0.5c0.4-0.1,0.9-0.2,1.2-0.5
	c0.4-0.3,0.6-0.7,0.8-1.1l1.5,0.4c-0.2,0.7-0.6,1.4-1.2,1.9c-0.6,0.5-1.3,0.8-2.1,0.8c-0.6,0.1-1.2,0-1.8-0.1
	c-0.5-0.2-1-0.5-1.3-0.9c-0.3-0.4-0.6-0.8-0.8-1.3c-0.2-0.5-0.4-1-0.4-1.5c-0.1-0.5-0.1-1,0-1.5c0.1-0.5,0.3-1,0.5-1.4
	c0.3-0.5,0.6-0.9,1.1-1.2c1-0.6,2.3-0.8,3.4-0.5c0.5,0.2,0.9,0.4,1.3,0.8c0.3,0.3,0.6,0.7,0.8,1.2
	C1064.5,143.7,1064.7,144.1,1064.7,144.6z M1060.7,142.6c-0.5,0-1,0.3-1.3,0.7c-0.3,0.4-0.5,0.9-0.5,1.4l4-0.5
	c-0.1-0.5-0.4-0.9-0.8-1.2C1061.7,142.7,1061.2,142.5,1060.7,142.6L1060.7,142.6z"/>
<path class="st0" d="M1069.6,147.9l-1.6,0.4l-2.2-8l1.6-0.4l0.4,1.3c0.1-0.5,0.4-1,0.8-1.4c0.3-0.3,0.7-0.6,1.2-0.7
	c0.3-0.1,0.7-0.1,1.1-0.1l0.1,1.6c-0.3-0.1-0.7-0.1-1,0c-0.6,0.2-1.1,0.7-1.2,1.4c-0.3,1-0.2,2,0.1,2.9L1069.6,147.9z"/>
<path class="st0" d="M1044.5,89.2c0.1,0.1,0.3,0.1,0.4,0.1h0.2c0.2-0.1,0.4-0.2,0.5-0.3l6.1-10.5c0.2-0.3,0.1-0.8-0.2-1c0,0,0,0,0,0
	c-0.2-0.1-0.4-0.1-0.6-0.1c-0.2,0-0.3,0.2-0.4,0.3l-5.7,9.8l-7.7-5.3c-0.3-0.2-0.8-0.1-1,0.2c-0.2,0.3-0.1,0.8,0.2,1L1044.5,89.2z"
	/>
<path class="st0" d="M1074,84.8c-0.4-0.1-0.8,0.1-0.9,0.4c-3.5,10-4.4,15.4-4.6,17c-1,0.5-5.2,2.2-14.3,2.2h-0.1
	c-9.3,0-14.7-1.6-16.1-2c-0.1-1.7-0.7-7.4-4.1-17.2c-0.1-0.2-0.2-0.3-0.4-0.4c-0.2-0.1-0.4-0.1-0.6,0c-0.4,0.1-0.6,0.5-0.4,0.9
	c4,11.4,4.1,17.2,4.1,17.3c0,0.3,0.2,0.6,0.4,0.7c0,0,5.7,2.3,17.1,2.3h0.1c11.1,0,15-2.3,15.4-2.6c0.2-0.1,0.3-0.3,0.3-0.5
	c0,0,0.5-5.5,4.6-17c0.2-0.4,0-0.8-0.3-1C1074.1,84.8,1074,84.8,1074,84.8z"/>
<path class="st0" d="M1067.1,97.9c-0.2-0.1-0.4-0.1-0.6,0c0,0-3.3,1.5-12.4,1.5h-0.1c-9.3,0-13.9-1.3-14.1-1.4
	c-0.4-0.1-0.8,0.1-0.9,0.4c0,0,0,0,0,0c-0.1,0.4,0.1,0.8,0.5,0.9c0.2,0.1,5,1.4,14.5,1.5h0.1c9.8,0,13-1.6,13.1-1.7
	c0.2-0.1,0.3-0.2,0.4-0.4c0.1-0.2,0.1-0.4,0-0.6C1067.4,98,1067.2,97.9,1067.1,97.9z"/>
<path class="st0" d="M1055.7,77.4c-0.2,0.1-0.3,0.2-0.3,0.4c-0.1,0.2,0,0.4,0.1,0.6l6,10.6c0.1,0.2,0.3,0.3,0.5,0.3h0.2
	c0.1,0,0.3,0,0.4-0.1l8.3-5.7c0.2-0.1,0.3-0.3,0.3-0.5c0-0.2,0-0.4-0.1-0.5c-0.2-0.3-0.7-0.4-1-0.2c0,0,0,0,0,0l-7.7,5.3l-5.6-9.9
	c-0.1-0.2-0.3-0.3-0.4-0.3C1056,77.3,1055.8,77.3,1055.7,77.4z"/>
<path class="st0" d="M1053.6,75.5c1.5-0.1,2.6-1.3,2.5-2.8c-0.1-1.5-1.3-2.6-2.8-2.5c-1.4,0.1-2.5,1.2-2.5,2.7
	c0,1.5,1.2,2.7,2.7,2.7C1053.5,75.5,1053.6,75.5,1053.6,75.5z"/>
<path class="st0" d="M1034.1,79.6c0-1.5-1.2-2.7-2.7-2.7c-1.5,0-2.7,1.2-2.7,2.7c0,1.5,1.2,2.7,2.7,2.7
	C1032.9,82.3,1034.1,81.1,1034.1,79.6z"/>
<path class="st0" d="M1075.5,76.9c-1.5,0-2.7,1.2-2.7,2.7c0,0.7,0.3,1.4,0.8,1.9c1,1,2.7,1,3.8,0c1-1,1-2.7,0-3.8
	C1076.9,77.2,1076.2,76.9,1075.5,76.9z"/>
<path class="st0" d="M1070.2,67.2c0,0,1,0.2,1,1c0,0.1,0.1,0.3,0.3,0.3l0,0l0,0c0.1,0,0.3-0.1,0.3-0.3c0-0.6,0.4-1,1-1
	c0.1,0,0.3-0.1,0.3-0.3c0-0.1-0.1-0.3-0.2-0.3c0,0-1-0.1-1-1c0-0.1-0.1-0.3-0.3-0.3c-0.1,0-0.3,0.1-0.3,0.2c0,0,0,0,0,0
	c0,0-0.2,1-1,1c-0.1,0-0.3,0.1-0.3,0.3C1069.9,67,1070,67.1,1070.2,67.2L1070.2,67.2z M1071.5,66.5c0.1,0.2,0.3,0.3,0.4,0.4
	c-0.2,0.1-0.3,0.3-0.4,0.4c-0.1-0.2-0.3-0.3-0.4-0.4C1071.2,66.8,1071.4,66.6,1071.5,66.5L1071.5,66.5z"/>
<path class="st0" d="M1073.5,63.4c0,0,1.4,0.2,1.4,1.4c0,0.1,0.1,0.3,0.3,0.3l0,0l0,0c0.1,0,0.3-0.1,0.3-0.2c0,0,0,0,0,0
	c0-0.8,0.6-1.4,1.4-1.4l0,0c0.2,0,0.3-0.2,0.2-0.3c0-0.1-0.1-0.2-0.2-0.2c0,0-1.4-0.2-1.4-1.4c0-0.1-0.1-0.3-0.2-0.3
	c-0.1,0-0.3,0.1-0.3,0.2c0,0.1-0.2,1.4-1.4,1.4c-0.1,0-0.3,0.1-0.3,0.2C1073.3,63.2,1073.4,63.4,1073.5,63.4
	C1073.5,63.4,1073.5,63.4,1073.5,63.4z M1075.2,62.4c0.2,0.3,0.4,0.5,0.7,0.7c-0.3,0.2-0.6,0.4-0.7,0.8c-0.2-0.3-0.4-0.5-0.8-0.7
	C1074.8,63,1075.1,62.7,1075.2,62.4L1075.2,62.4z"/>
<path class="st0" d="M1076.8,68.1c0-0.1-0.1-0.3-0.2-0.3c-0.1,0-0.3,0.1-0.3,0.2c0,0-0.1,0.9-0.9,0.9c-0.1,0-0.3,0.1-0.3,0.3
	c0,0.1,0.1,0.3,0.3,0.3c0,0,0.9,0.2,0.9,0.9c0,0.2,0.1,0.3,0.3,0.3l0,0c0.1,0,0.3-0.1,0.3-0.3c0-0.5,0.4-0.9,0.9-0.9
	c0.2,0,0.3-0.2,0.2-0.3c0-0.1-0.1-0.2-0.2-0.2C1077.7,69,1076.8,68.9,1076.8,68.1z M1076.5,69.6c-0.1-0.1-0.2-0.2-0.4-0.3
	c0.1-0.1,0.3-0.2,0.4-0.4c0.1,0.1,0.2,0.2,0.3,0.3C1076.7,69.3,1076.6,69.5,1076.5,69.6z"/>
</svg>
